<?xml version="1.0" encoding="utf-8"?>
<!-- Generator: Adobe Illustrator 20.1.0, SVG Export Plug-In . SVG Version: 6.00 Build 0)  -->
<svg version="1.1" id="Layer_1" xmlns="http://www.w3.org/2000/svg" xmlns:xlink="http://www.w3.org/1999/xlink" x="0px" y="0px"
	 viewBox="0 0 130 130" style="enable-background:new 0 0 130 130;" xml:space="preserve">
<style type="text/css">
	.st0{opacity:0.06;clip-path:url(#SVGID_2_);}
	.st1{fill:none;stroke:#2E517A;stroke-miterlimit:10;}
	.st2{clip-path:url(#SVGID_2_);fill:#FFFFFF;}
	.st3{opacity:0.06;clip-path:url(#SVGID_4_);}
	.st4{clip-path:url(#SVGID_6_);}
	.st5{opacity:0.06;clip-path:url(#SVGID_8_);}
	.st6{fill:#2E517A;}
	.st7{fill:#3E5B70;}
	.st8{fill:#EC6231;}
	.st9{fill:#DF2424;}
	.st10{fill:#DF7B72;}
	.st11{fill:#FFFFFF;}
	.st12{fill:#414750;}
	.st13{fill:#252629;}
	.st14{fill:#E7E8E8;}
	.st15{fill:#1F2121;}
	.st16{fill:#050708;}
	.st17{fill:#41474F;}
	.st18{fill:url(#SVGID_11_);}
	.st19{fill:url(#SVGID_12_);}
	.st20{fill:url(#SVGID_13_);}
	.st21{fill:#40BBCD;}
	.st22{fill:#024969;}
	.st23{fill:none;stroke:#024969;stroke-linecap:round;stroke-miterlimit:10;}
	.st24{fill:none;stroke:#40BBCD;stroke-miterlimit:10;}
	.st25{clip-path:url(#SVGID_15_);}
	.st26{fill:#3D5E6A;}
	.st27{fill:#9CC31B;}
	.st28{fill:#EB5D57;}
	.st29{fill:#EE7675;}
	.st30{fill:#AECB3C;}
</style>
<g>
	<defs>
		<rect id="SVGID_1_" x="-620.033" y="-884.234" width="600" height="600"/>
	</defs>
	<clipPath id="SVGID_2_">
		<use xlink:href="#SVGID_1_"  style="overflow:visible;"/>
	</clipPath>
	<g class="st0">
		<line class="st1" x1="-1.258" y1="-923.087" x2="-758.039" y2="-166.306"/>
		<line class="st1" x1="-21.255" y1="-923.087" x2="-778.036" y2="-166.306"/>
		<line class="st1" x1="-41.252" y1="-923.087" x2="-798.033" y2="-166.306"/>
		<line class="st1" x1="-61.249" y1="-923.087" x2="-818.03" y2="-166.306"/>
		<line class="st1" x1="-81.246" y1="-923.087" x2="-838.027" y2="-166.306"/>
		<line class="st1" x1="-101.243" y1="-923.087" x2="-858.024" y2="-166.306"/>
		<line class="st1" x1="-114.574" y1="-923.087" x2="-871.355" y2="-166.306"/>
		<line class="st1" x1="-127.905" y1="-923.087" x2="-884.686" y2="-166.306"/>
		<line class="st1" x1="-141.236" y1="-923.087" x2="-898.017" y2="-166.306"/>
		<line class="st1" x1="-154.568" y1="-923.087" x2="-911.349" y2="-166.306"/>
		<line class="st1" x1="-167.899" y1="-923.087" x2="-924.68" y2="-166.306"/>
		<line class="st1" x1="-181.23" y1="-923.087" x2="-938.011" y2="-166.306"/>
		<line class="st1" x1="-194.561" y1="-923.087" x2="-951.342" y2="-166.306"/>
		<line class="st1" x1="-207.892" y1="-923.087" x2="-964.673" y2="-166.306"/>
		<line class="st1" x1="-221.224" y1="-923.087" x2="-978.005" y2="-166.306"/>
		<line class="st1" x1="-234.555" y1="-923.087" x2="-991.336" y2="-166.306"/>
		<line class="st1" x1="-247.886" y1="-923.087" x2="-1004.667" y2="-166.306"/>
		<line class="st1" x1="-261.217" y1="-923.087" x2="-1017.998" y2="-166.306"/>
		<line class="st1" x1="-274.549" y1="-923.087" x2="-1031.33" y2="-166.306"/>
		<line class="st1" x1="-287.88" y1="-923.087" x2="-1044.661" y2="-166.306"/>
		<line class="st1" x1="-301.211" y1="-923.087" x2="-1057.992" y2="-166.306"/>
		<line class="st1" x1="-314.542" y1="-923.087" x2="-1071.323" y2="-166.306"/>
		<line class="st1" x1="-327.874" y1="-923.087" x2="-1084.655" y2="-166.306"/>
		<line class="st1" x1="-341.205" y1="-923.087" x2="-1097.986" y2="-166.306"/>
		<line class="st1" x1="-354.536" y1="-923.087" x2="-1111.317" y2="-166.306"/>
		<line class="st1" x1="-367.867" y1="-923.087" x2="-1124.648" y2="-166.306"/>
		<line class="st1" x1="-381.199" y1="-923.087" x2="-1137.979" y2="-166.306"/>
		<line class="st1" x1="-394.53" y1="-923.087" x2="-1151.311" y2="-166.306"/>
		<line class="st1" x1="-401.195" y1="-923.087" x2="-1157.976" y2="-166.306"/>
		<line class="st1" x1="-407.861" y1="-923.087" x2="-1164.642" y2="-166.306"/>
		<line class="st1" x1="-414.527" y1="-923.087" x2="-1171.308" y2="-166.306"/>
		<line class="st1" x1="-421.192" y1="-923.087" x2="-1177.973" y2="-166.306"/>
		<line class="st1" x1="-427.858" y1="-923.087" x2="-1184.639" y2="-166.306"/>
		<line class="st1" x1="-434.523" y1="-923.087" x2="-1191.304" y2="-166.306"/>
		<line class="st1" x1="-441.189" y1="-923.087" x2="-1197.97" y2="-166.306"/>
		<line class="st1" x1="-447.855" y1="-923.087" x2="-1204.636" y2="-166.306"/>
		<line class="st1" x1="-454.52" y1="-923.087" x2="-1211.301" y2="-166.306"/>
		<line class="st1" x1="-461.186" y1="-923.087" x2="-1217.967" y2="-166.306"/>
		<line class="st1" x1="-467.852" y1="-923.087" x2="-1224.633" y2="-166.306"/>
		<line class="st1" x1="-474.517" y1="-923.087" x2="-1231.298" y2="-166.306"/>
		<line class="st1" x1="-481.183" y1="-923.087" x2="-1237.964" y2="-166.306"/>
		<line class="st1" x1="-487.848" y1="-923.087" x2="-1244.629" y2="-166.306"/>
		<line class="st1" x1="-494.514" y1="-923.087" x2="-1251.295" y2="-166.306"/>
		<line class="st1" x1="-501.18" y1="-923.087" x2="-1257.961" y2="-166.306"/>
		<line class="st1" x1="-507.845" y1="-923.087" x2="-1264.626" y2="-166.306"/>
		<line class="st1" x1="-514.511" y1="-923.087" x2="-1271.292" y2="-166.306"/>
		<line class="st1" x1="-521.177" y1="-923.087" x2="-1277.958" y2="-166.306"/>
		<line class="st1" x1="-527.842" y1="-923.087" x2="-1284.623" y2="-166.306"/>
		<line class="st1" x1="-534.508" y1="-923.087" x2="-1291.289" y2="-166.306"/>
		<line class="st1" x1="-541.173" y1="-923.087" x2="-1297.954" y2="-166.306"/>
		<line class="st1" x1="-547.839" y1="-923.087" x2="-1304.62" y2="-166.306"/>
		<line class="st1" x1="-554.505" y1="-923.087" x2="-1311.286" y2="-166.306"/>
		<line class="st1" x1="-561.17" y1="-923.087" x2="-1317.951" y2="-166.306"/>
		<line class="st1" x1="-567.836" y1="-923.087" x2="-1324.617" y2="-166.306"/>
		<line class="st1" x1="-574.501" y1="-923.087" x2="-1331.282" y2="-166.306"/>
		<line class="st1" x1="18.739" y1="-922.957" x2="-738.042" y2="-166.176"/>
		<line class="st1" x1="378.742" y1="-923.087" x2="-378.039" y2="-166.306"/>
		<line class="st1" x1="365.409" y1="-923.087" x2="-391.372" y2="-166.306"/>
		<line class="st1" x1="352.076" y1="-923.087" x2="-404.705" y2="-166.306"/>
		<line class="st1" x1="338.742" y1="-923.087" x2="-418.039" y2="-166.306"/>
		<line class="st1" x1="325.409" y1="-923.087" x2="-431.372" y2="-166.306"/>
		<line class="st1" x1="312.075" y1="-923.087" x2="-444.706" y2="-166.306"/>
		<line class="st1" x1="298.742" y1="-923.087" x2="-458.039" y2="-166.306"/>
		<line class="st1" x1="285.408" y1="-923.087" x2="-471.373" y2="-166.306"/>
		<line class="st1" x1="272.075" y1="-923.087" x2="-484.706" y2="-166.306"/>
		<line class="st1" x1="258.741" y1="-923.087" x2="-498.04" y2="-166.306"/>
		<line class="st1" x1="245.408" y1="-923.087" x2="-511.373" y2="-166.306"/>
		<line class="st1" x1="232.074" y1="-923.087" x2="-524.707" y2="-166.306"/>
		<line class="st1" x1="218.741" y1="-923.087" x2="-538.04" y2="-166.306"/>
		<line class="st1" x1="205.407" y1="-923.087" x2="-551.374" y2="-166.306"/>
		<line class="st1" x1="192.074" y1="-923.087" x2="-564.707" y2="-166.306"/>
		<line class="st1" x1="178.74" y1="-923.087" x2="-578.041" y2="-166.306"/>
		<line class="st1" x1="165.407" y1="-923.087" x2="-591.374" y2="-166.306"/>
		<line class="st1" x1="152.073" y1="-923.087" x2="-604.708" y2="-166.306"/>
		<line class="st1" x1="138.74" y1="-923.087" x2="-618.041" y2="-166.306"/>
		<line class="st1" x1="125.406" y1="-923.087" x2="-631.375" y2="-166.306"/>
		<line class="st1" x1="112.073" y1="-923.087" x2="-644.708" y2="-166.306"/>
		<line class="st1" x1="98.739" y1="-923.087" x2="-658.042" y2="-166.306"/>
		<line class="st1" x1="85.406" y1="-923.087" x2="-671.375" y2="-166.306"/>
		<line class="st1" x1="72.072" y1="-923.087" x2="-684.709" y2="-166.306"/>
		<line class="st1" x1="58.739" y1="-923.087" x2="-698.042" y2="-166.306"/>
		<line class="st1" x1="45.405" y1="-923.087" x2="-711.375" y2="-166.306"/>
		<line class="st1" x1="32.072" y1="-923.087" x2="-724.709" y2="-166.306"/>
		<line class="st1" x1="5.407" y1="-923.087" x2="-751.374" y2="-166.306"/>
		<line class="st1" x1="-14.59" y1="-923.087" x2="-771.371" y2="-166.306"/>
		<line class="st1" x1="-34.586" y1="-923.087" x2="-791.367" y2="-166.306"/>
		<line class="st1" x1="-54.583" y1="-923.087" x2="-811.364" y2="-166.306"/>
		<line class="st1" x1="-74.58" y1="-923.087" x2="-831.361" y2="-166.306"/>
		<line class="st1" x1="-94.577" y1="-923.087" x2="-851.358" y2="-166.306"/>
		<line class="st1" x1="-107.908" y1="-923.087" x2="-864.689" y2="-166.306"/>
		<line class="st1" x1="-121.239" y1="-923.087" x2="-878.02" y2="-166.306"/>
		<line class="st1" x1="-134.571" y1="-923.087" x2="-891.352" y2="-166.306"/>
		<line class="st1" x1="-147.902" y1="-923.087" x2="-904.683" y2="-166.306"/>
		<line class="st1" x1="-161.233" y1="-923.087" x2="-918.014" y2="-166.306"/>
		<line class="st1" x1="-174.564" y1="-923.087" x2="-931.345" y2="-166.306"/>
		<line class="st1" x1="-187.896" y1="-923.087" x2="-944.677" y2="-166.306"/>
		<line class="st1" x1="-201.227" y1="-923.087" x2="-958.008" y2="-166.306"/>
		<line class="st1" x1="-214.558" y1="-923.087" x2="-971.339" y2="-166.306"/>
		<line class="st1" x1="-227.889" y1="-923.087" x2="-984.67" y2="-166.306"/>
		<line class="st1" x1="-241.221" y1="-923.087" x2="-998.002" y2="-166.306"/>
		<line class="st1" x1="-254.552" y1="-923.087" x2="-1011.333" y2="-166.306"/>
		<line class="st1" x1="-267.883" y1="-923.087" x2="-1024.664" y2="-166.306"/>
		<line class="st1" x1="-281.214" y1="-923.087" x2="-1037.995" y2="-166.306"/>
		<line class="st1" x1="-294.546" y1="-923.087" x2="-1051.327" y2="-166.306"/>
		<line class="st1" x1="-307.877" y1="-923.087" x2="-1064.658" y2="-166.306"/>
		<line class="st1" x1="-321.208" y1="-923.087" x2="-1077.989" y2="-166.306"/>
		<line class="st1" x1="-334.539" y1="-923.087" x2="-1091.32" y2="-166.306"/>
		<line class="st1" x1="-347.87" y1="-923.087" x2="-1104.651" y2="-166.306"/>
		<line class="st1" x1="-361.202" y1="-923.087" x2="-1117.983" y2="-166.306"/>
		<line class="st1" x1="-374.533" y1="-923.087" x2="-1131.314" y2="-166.306"/>
		<line class="st1" x1="-387.864" y1="-923.087" x2="-1144.645" y2="-166.306"/>
		<line class="st1" x1="538.744" y1="-923.087" x2="-218.037" y2="-166.306"/>
		<line class="st1" x1="532.078" y1="-923.087" x2="-224.703" y2="-166.306"/>
		<line class="st1" x1="525.411" y1="-923.087" x2="-231.37" y2="-166.306"/>
		<line class="st1" x1="518.744" y1="-923.087" x2="-238.037" y2="-166.306"/>
		<line class="st1" x1="512.077" y1="-923.087" x2="-244.704" y2="-166.306"/>
		<line class="st1" x1="505.411" y1="-923.087" x2="-251.37" y2="-166.306"/>
		<line class="st1" x1="498.744" y1="-923.087" x2="-258.037" y2="-166.306"/>
		<line class="st1" x1="492.077" y1="-923.087" x2="-264.704" y2="-166.306"/>
		<line class="st1" x1="485.41" y1="-923.087" x2="-271.371" y2="-166.306"/>
		<line class="st1" x1="478.744" y1="-923.087" x2="-278.037" y2="-166.306"/>
		<line class="st1" x1="472.077" y1="-923.087" x2="-284.704" y2="-166.306"/>
		<line class="st1" x1="465.41" y1="-923.087" x2="-291.371" y2="-166.306"/>
		<line class="st1" x1="458.743" y1="-923.087" x2="-298.038" y2="-166.306"/>
		<line class="st1" x1="452.077" y1="-923.087" x2="-304.704" y2="-166.306"/>
		<line class="st1" x1="618.745" y1="-923.087" x2="-138.036" y2="-166.306"/>
		<line class="st1" x1="612.078" y1="-923.087" x2="-144.703" y2="-166.306"/>
		<line class="st1" x1="605.412" y1="-923.087" x2="-151.369" y2="-166.306"/>
		<line class="st1" x1="598.745" y1="-923.087" x2="-158.036" y2="-166.306"/>
		<line class="st1" x1="592.078" y1="-923.087" x2="-164.703" y2="-166.306"/>
		<line class="st1" x1="585.411" y1="-923.087" x2="-171.37" y2="-166.306"/>
		<line class="st1" x1="578.745" y1="-923.087" x2="-178.036" y2="-166.306"/>
		<line class="st1" x1="572.078" y1="-923.087" x2="-184.703" y2="-166.306"/>
		<line class="st1" x1="565.411" y1="-923.087" x2="-191.37" y2="-166.306"/>
		<line class="st1" x1="558.744" y1="-923.087" x2="-198.037" y2="-166.306"/>
		<line class="st1" x1="552.078" y1="-923.087" x2="-204.703" y2="-166.306"/>
		<line class="st1" x1="545.411" y1="-923.087" x2="-211.37" y2="-166.306"/>
		<line class="st1" x1="445.41" y1="-923.087" x2="-311.371" y2="-166.306"/>
		<line class="st1" x1="438.743" y1="-923.087" x2="-318.038" y2="-166.306"/>
		<line class="st1" x1="432.076" y1="-923.087" x2="-324.705" y2="-166.306"/>
		<line class="st1" x1="425.41" y1="-923.087" x2="-331.371" y2="-166.306"/>
		<line class="st1" x1="418.743" y1="-923.087" x2="-338.038" y2="-166.306"/>
		<line class="st1" x1="412.076" y1="-923.087" x2="-344.705" y2="-166.306"/>
		<line class="st1" x1="405.409" y1="-923.087" x2="-351.372" y2="-166.306"/>
		<line class="st1" x1="398.743" y1="-923.087" x2="-358.038" y2="-166.306"/>
		<line class="st1" x1="392.076" y1="-923.087" x2="-364.705" y2="-166.306"/>
		<line class="st1" x1="385.409" y1="-923.087" x2="-371.372" y2="-166.306"/>
		<line class="st1" x1="372.076" y1="-923.087" x2="-384.705" y2="-166.306"/>
		<line class="st1" x1="358.742" y1="-923.087" x2="-398.039" y2="-166.306"/>
		<line class="st1" x1="345.409" y1="-923.087" x2="-411.372" y2="-166.306"/>
		<line class="st1" x1="332.075" y1="-923.087" x2="-424.706" y2="-166.306"/>
		<line class="st1" x1="318.742" y1="-923.087" x2="-438.039" y2="-166.306"/>
		<line class="st1" x1="305.408" y1="-923.087" x2="-451.373" y2="-166.306"/>
		<line class="st1" x1="292.075" y1="-923.087" x2="-464.706" y2="-166.306"/>
		<line class="st1" x1="278.741" y1="-923.087" x2="-478.04" y2="-166.306"/>
		<line class="st1" x1="265.408" y1="-923.087" x2="-491.373" y2="-166.306"/>
		<line class="st1" x1="252.074" y1="-923.087" x2="-504.707" y2="-166.306"/>
		<line class="st1" x1="238.741" y1="-923.087" x2="-518.04" y2="-166.306"/>
		<line class="st1" x1="225.407" y1="-923.087" x2="-531.374" y2="-166.306"/>
		<line class="st1" x1="212.074" y1="-923.087" x2="-544.707" y2="-166.306"/>
		<line class="st1" x1="198.741" y1="-923.087" x2="-558.04" y2="-166.306"/>
		<line class="st1" x1="185.407" y1="-923.087" x2="-571.374" y2="-166.306"/>
		<line class="st1" x1="172.074" y1="-923.087" x2="-584.707" y2="-166.306"/>
		<line class="st1" x1="158.74" y1="-923.087" x2="-598.041" y2="-166.306"/>
		<line class="st1" x1="145.407" y1="-923.087" x2="-611.374" y2="-166.306"/>
		<line class="st1" x1="132.073" y1="-923.087" x2="-624.708" y2="-166.306"/>
		<line class="st1" x1="118.74" y1="-923.087" x2="-638.041" y2="-166.306"/>
		<line class="st1" x1="105.406" y1="-923.087" x2="-651.375" y2="-166.306"/>
		<line class="st1" x1="92.073" y1="-923.087" x2="-664.708" y2="-166.306"/>
		<line class="st1" x1="78.739" y1="-923.087" x2="-678.042" y2="-166.306"/>
		<line class="st1" x1="65.406" y1="-923.087" x2="-691.375" y2="-166.306"/>
		<line class="st1" x1="52.072" y1="-923.087" x2="-704.709" y2="-166.306"/>
		<line class="st1" x1="38.739" y1="-923.087" x2="-718.042" y2="-166.306"/>
		<line class="st1" x1="25.405" y1="-923.087" x2="-731.376" y2="-166.306"/>
		<line class="st1" x1="12.073" y1="-923.087" x2="-744.708" y2="-166.306"/>
		<line class="st1" x1="-7.924" y1="-923.087" x2="-764.705" y2="-166.306"/>
		<line class="st1" x1="-27.921" y1="-923.087" x2="-784.702" y2="-166.306"/>
		<line class="st1" x1="-47.918" y1="-923.087" x2="-804.699" y2="-166.306"/>
		<line class="st1" x1="-67.914" y1="-923.087" x2="-824.695" y2="-166.306"/>
		<line class="st1" x1="-87.911" y1="-923.087" x2="-844.692" y2="-166.306"/>
	</g>
	<path class="st2" d="M-364.609-1119.508l-16.112-16.112L-599.899-916.44c-5.204-2.591-11.068-4.056-17.276-4.056
		c-21.444,0-38.827,17.383-38.827,38.827c0,6.208,1.465,12.072,4.056,17.276l-242.221,242.221l16.112,16.111l241.799-241.799
		c5.637,3.188,12.144,5.017,19.082,5.017c21.444,0,38.827-17.383,38.827-38.827c0-6.938-1.829-13.446-5.017-19.082
		L-364.609-1119.508z M-617.175-859.574c-12.203,0-22.095-9.892-22.095-22.095s9.892-22.095,22.095-22.095
		s22.095,9.892,22.095,22.095S-604.972-859.574-617.175-859.574z"/>
	<path class="st2" d="M235.391-519.508l-16.112-16.112L0.101-316.44c-5.204-2.591-11.068-4.056-17.276-4.056
		c-21.444,0-38.827,17.383-38.827,38.827c0,6.208,1.465,12.072,4.056,17.276L-294.168-22.172l16.112,16.111l241.799-241.799
		c5.637,3.188,12.144,5.017,19.082,5.017c21.444,0,38.827-17.383,38.827-38.827c0-6.938-1.829-13.446-5.017-19.082L235.391-519.508z
		 M-17.175-259.574c-12.203,0-22.095-9.892-22.095-22.095s9.892-22.095,22.095-22.095s22.095,9.892,22.095,22.095
		S-4.972-259.574-17.175-259.574z"/>
	<path class="st2" d="M-364.609-519.508l-16.112-16.112L-599.899-316.44c-5.204-2.591-11.068-4.056-17.276-4.056
		c-21.444,0-38.827,17.383-38.827,38.827c0,6.208,1.465,12.072,4.056,17.276L-894.168-22.172l16.112,16.111l241.799-241.799
		c5.637,3.188,12.144,5.017,19.082,5.017c21.444,0,38.827-17.383,38.827-38.827c0-6.938-1.829-13.446-5.017-19.082L-364.609-519.508
		z M-617.175-259.574c-12.203,0-22.095-9.892-22.095-22.095s9.892-22.095,22.095-22.095s22.095,9.892,22.095,22.095
		S-604.972-259.574-617.175-259.574z"/>
	<path class="st2" d="M-65.623-818.493l-16.112-16.112l-219.179,219.179c-5.204-2.591-11.068-4.056-17.276-4.056
		c-21.444,0-38.827,17.383-38.827,38.827c0,6.208,1.465,12.072,4.056,17.276l-242.221,242.221l16.112,16.111l241.799-241.799
		c5.637,3.188,12.144,5.017,19.082,5.017c21.444,0,38.827-17.383,38.827-38.827c0-6.938-1.829-13.446-5.017-19.082L-65.623-818.493z
		 M-318.189-558.559c-12.203,0-22.095-9.892-22.095-22.095s9.892-22.095,22.095-22.095s22.095,9.892,22.095,22.095
		S-305.986-558.559-318.189-558.559z"/>
	<path class="st2" d="M235.391-1119.508l-16.112-16.112L0.101-916.44c-5.204-2.591-11.068-4.056-17.276-4.056
		c-21.444,0-38.827,17.383-38.827,38.827c0,6.208,1.465,12.072,4.056,17.276l-242.221,242.221l16.112,16.111l241.799-241.799
		c5.637,3.188,12.144,5.017,19.082,5.017c21.444,0,38.827-17.383,38.827-38.827c0-6.938-1.829-13.446-5.017-19.082L235.391-1119.508
		z M-17.175-859.574c-12.203,0-22.095-9.892-22.095-22.095s9.892-22.095,22.095-22.095s22.095,9.892,22.095,22.095
		S-4.972-859.574-17.175-859.574z"/>
</g>
<g>
	<defs>
		<rect id="SVGID_3_" x="321.36" y="-634.234" width="113.164" height="113.164"/>
	</defs>
	<clipPath id="SVGID_4_">
		<use xlink:href="#SVGID_3_"  style="overflow:visible;"/>
	</clipPath>
	<g class="st3">
		<line class="st1" x1="560.194" y1="-673.087" x2="-196.587" y2="83.694"/>
		<line class="st1" x1="546.863" y1="-673.087" x2="-209.918" y2="83.694"/>
		<line class="st1" x1="540.197" y1="-673.087" x2="-216.584" y2="83.694"/>
		<line class="st1" x1="533.532" y1="-673.087" x2="-223.249" y2="83.694"/>
		<line class="st1" x1="526.866" y1="-673.087" x2="-229.915" y2="83.694"/>
		<line class="st1" x1="520.201" y1="-673.087" x2="-236.58" y2="83.694"/>
		<line class="st1" x1="513.535" y1="-673.087" x2="-243.246" y2="83.694"/>
		<line class="st1" x1="506.869" y1="-673.087" x2="-249.912" y2="83.694"/>
		<line class="st1" x1="500.204" y1="-673.087" x2="-256.577" y2="83.694"/>
		<line class="st1" x1="493.538" y1="-673.087" x2="-263.243" y2="83.694"/>
		<line class="st1" x1="486.872" y1="-673.087" x2="-269.909" y2="83.694"/>
		<line class="st1" x1="480.207" y1="-673.087" x2="-276.574" y2="83.694"/>
		<line class="st1" x1="473.541" y1="-673.087" x2="-283.24" y2="83.694"/>
		<line class="st1" x1="466.876" y1="-673.087" x2="-289.905" y2="83.694"/>
		<line class="st1" x1="460.21" y1="-673.087" x2="-296.571" y2="83.694"/>
		<line class="st1" x1="453.544" y1="-673.087" x2="-303.237" y2="83.694"/>
		<line class="st1" x1="446.879" y1="-673.087" x2="-309.902" y2="83.694"/>
		<line class="st1" x1="440.213" y1="-673.087" x2="-316.568" y2="83.694"/>
		<line class="st1" x1="433.548" y1="-673.087" x2="-323.233" y2="83.694"/>
		<line class="st1" x1="426.882" y1="-673.087" x2="-329.899" y2="83.694"/>
		<line class="st1" x1="420.216" y1="-673.087" x2="-336.565" y2="83.694"/>
		<line class="st1" x1="413.551" y1="-673.087" x2="-343.23" y2="83.694"/>
		<line class="st1" x1="406.885" y1="-673.087" x2="-349.896" y2="83.694"/>
		<line class="st1" x1="400.219" y1="-673.087" x2="-356.562" y2="83.694"/>
		<line class="st1" x1="393.554" y1="-673.087" x2="-363.227" y2="83.694"/>
		<line class="st1" x1="386.888" y1="-673.087" x2="-369.893" y2="83.694"/>
		<line class="st1" x1="380.223" y1="-673.087" x2="-376.558" y2="83.694"/>
		<line class="st1" x1="373.557" y1="-673.087" x2="-383.224" y2="83.694"/>
		<line class="st1" x1="366.891" y1="-673.087" x2="-389.89" y2="83.694"/>
		<line class="st1" x1="553.529" y1="-673.087" x2="-203.252" y2="83.694"/>
	</g>
</g>
<g>
	<defs>
		<rect id="SVGID_5_" x="517.04" y="-847.502" width="501.318" height="387.223"/>
	</defs>
	<clipPath id="SVGID_6_">
		<use xlink:href="#SVGID_5_"  style="overflow:visible;"/>
	</clipPath>
	<g class="st4">
		<defs>
			<path id="SVGID_7_" d="M1606.486-1446.601l-51.562-51.562L853.478-796.717c-16.655-8.292-35.42-12.979-55.289-12.979
				c-68.627,0-124.259,55.633-124.259,124.26c0,19.868,4.688,38.633,12.979,55.289L-88.283,145.044l51.562,51.562l773.839-773.838
				c18.04,10.204,38.866,16.056,61.07,16.056c68.627,0,124.26-55.633,124.26-124.259c0-22.205-5.852-43.031-16.056-61.07
				L1606.486-1446.601z M798.189-614.724c-39.054,0-70.713-31.659-70.713-70.713c0-39.054,31.659-70.713,70.713-70.713
				c39.054,0,70.713,31.659,70.713,70.713C868.902-646.383,837.242-614.724,798.189-614.724z"/>
		</defs>
		<clipPath id="SVGID_8_">
			<use xlink:href="#SVGID_7_"  style="overflow:visible;"/>
		</clipPath>
		<g class="st5">
			<line class="st1" x1="1158.249" y1="-1074.057" x2="401.468" y2="-317.277"/>
			<line class="st1" x1="1138.252" y1="-1074.057" x2="381.471" y2="-317.277"/>
			<line class="st1" x1="1118.256" y1="-1074.057" x2="361.475" y2="-317.277"/>
			<line class="st1" x1="1098.259" y1="-1074.057" x2="341.478" y2="-317.277"/>
			<line class="st1" x1="1078.262" y1="-1074.057" x2="321.481" y2="-317.277"/>
			<line class="st1" x1="1058.265" y1="-1074.057" x2="301.484" y2="-317.277"/>
			<line class="st1" x1="1044.934" y1="-1074.057" x2="288.153" y2="-317.277"/>
			<line class="st1" x1="1031.603" y1="-1074.057" x2="274.822" y2="-317.277"/>
			<line class="st1" x1="1018.271" y1="-1074.057" x2="261.49" y2="-317.277"/>
			<line class="st1" x1="1004.94" y1="-1074.057" x2="248.159" y2="-317.277"/>
			<line class="st1" x1="991.609" y1="-1074.057" x2="234.828" y2="-317.277"/>
			<line class="st1" x1="978.278" y1="-1074.057" x2="221.497" y2="-317.277"/>
			<line class="st1" x1="964.946" y1="-1074.057" x2="208.165" y2="-317.277"/>
			<line class="st1" x1="951.615" y1="-1074.057" x2="194.834" y2="-317.277"/>
			<line class="st1" x1="938.284" y1="-1074.057" x2="181.503" y2="-317.277"/>
			<line class="st1" x1="924.953" y1="-1074.057" x2="168.172" y2="-317.277"/>
			<line class="st1" x1="911.621" y1="-1074.057" x2="154.84" y2="-317.277"/>
			<line class="st1" x1="898.29" y1="-1074.057" x2="141.509" y2="-317.277"/>
			<line class="st1" x1="884.959" y1="-1074.057" x2="128.178" y2="-317.277"/>
			<line class="st1" x1="871.628" y1="-1074.057" x2="114.847" y2="-317.277"/>
			<line class="st1" x1="858.297" y1="-1074.057" x2="101.516" y2="-317.277"/>
			<line class="st1" x1="844.965" y1="-1074.057" x2="88.184" y2="-317.277"/>
			<line class="st1" x1="831.634" y1="-1074.057" x2="74.853" y2="-317.277"/>
			<line class="st1" x1="818.303" y1="-1074.057" x2="61.522" y2="-317.277"/>
			<line class="st1" x1="804.972" y1="-1074.057" x2="48.191" y2="-317.277"/>
			<line class="st1" x1="791.64" y1="-1074.057" x2="34.859" y2="-317.277"/>
			<line class="st1" x1="778.309" y1="-1074.057" x2="21.528" y2="-317.277"/>
			<line class="st1" x1="764.978" y1="-1074.057" x2="8.197" y2="-317.277"/>
			<line class="st1" x1="758.312" y1="-1074.057" x2="1.531" y2="-317.277"/>
			<line class="st1" x1="751.647" y1="-1074.057" x2="-5.134" y2="-317.277"/>
			<line class="st1" x1="744.981" y1="-1074.057" x2="-11.8" y2="-317.277"/>
			<line class="st1" x1="738.315" y1="-1074.057" x2="-18.466" y2="-317.277"/>
			<line class="st1" x1="731.65" y1="-1074.057" x2="-25.131" y2="-317.277"/>
			<line class="st1" x1="724.984" y1="-1074.057" x2="-31.797" y2="-317.277"/>
			<line class="st1" x1="718.319" y1="-1074.057" x2="-38.462" y2="-317.277"/>
			<line class="st1" x1="711.653" y1="-1074.057" x2="-45.128" y2="-317.277"/>
			<line class="st1" x1="704.987" y1="-1074.057" x2="-51.794" y2="-317.277"/>
			<line class="st1" x1="698.322" y1="-1074.057" x2="-58.459" y2="-317.277"/>
			<line class="st1" x1="691.656" y1="-1074.057" x2="-65.125" y2="-317.277"/>
			<line class="st1" x1="684.99" y1="-1074.057" x2="-71.791" y2="-317.277"/>
			<line class="st1" x1="678.325" y1="-1074.057" x2="-78.456" y2="-317.277"/>
			<line class="st1" x1="671.659" y1="-1074.057" x2="-85.122" y2="-317.277"/>
			<line class="st1" x1="664.994" y1="-1074.057" x2="-91.787" y2="-317.277"/>
			<line class="st1" x1="658.328" y1="-1074.057" x2="-98.453" y2="-317.277"/>
			<line class="st1" x1="651.662" y1="-1074.057" x2="-105.119" y2="-317.277"/>
			<line class="st1" x1="644.997" y1="-1074.057" x2="-111.784" y2="-317.277"/>
			<line class="st1" x1="638.331" y1="-1074.057" x2="-118.45" y2="-317.277"/>
			<line class="st1" x1="631.666" y1="-1074.057" x2="-125.115" y2="-317.277"/>
			<line class="st1" x1="625" y1="-1074.057" x2="-131.781" y2="-317.277"/>
			<line class="st1" x1="618.334" y1="-1074.057" x2="-138.447" y2="-317.277"/>
			<line class="st1" x1="611.669" y1="-1074.057" x2="-145.112" y2="-317.277"/>
			<line class="st1" x1="605.003" y1="-1074.057" x2="-151.778" y2="-317.277"/>
			<line class="st1" x1="598.337" y1="-1074.057" x2="-158.444" y2="-317.277"/>
			<line class="st1" x1="591.672" y1="-1074.057" x2="-165.109" y2="-317.277"/>
			<line class="st1" x1="585.006" y1="-1074.057" x2="-171.775" y2="-317.277"/>
			<line class="st1" x1="1178.246" y1="-1073.927" x2="421.465" y2="-317.146"/>
			<line class="st1" x1="1538.25" y1="-1074.057" x2="781.469" y2="-317.277"/>
			<line class="st1" x1="1524.917" y1="-1074.057" x2="768.136" y2="-317.277"/>
			<line class="st1" x1="1511.583" y1="-1074.057" x2="754.802" y2="-317.277"/>
			<line class="st1" x1="1498.25" y1="-1074.057" x2="741.469" y2="-317.277"/>
			<line class="st1" x1="1484.916" y1="-1074.057" x2="728.135" y2="-317.277"/>
			<line class="st1" x1="1471.583" y1="-1074.057" x2="714.802" y2="-317.277"/>
			<line class="st1" x1="1458.249" y1="-1074.057" x2="701.468" y2="-317.277"/>
			<line class="st1" x1="1444.916" y1="-1074.057" x2="688.135" y2="-317.277"/>
			<line class="st1" x1="1431.582" y1="-1074.057" x2="674.801" y2="-317.277"/>
			<line class="st1" x1="1418.249" y1="-1074.057" x2="661.468" y2="-317.277"/>
			<line class="st1" x1="1404.915" y1="-1074.057" x2="648.134" y2="-317.277"/>
			<line class="st1" x1="1391.582" y1="-1074.057" x2="634.801" y2="-317.277"/>
			<line class="st1" x1="1378.248" y1="-1074.057" x2="621.467" y2="-317.277"/>
			<line class="st1" x1="1364.915" y1="-1074.057" x2="608.134" y2="-317.277"/>
			<line class="st1" x1="1351.581" y1="-1074.057" x2="594.8" y2="-317.277"/>
			<line class="st1" x1="1338.248" y1="-1074.057" x2="581.467" y2="-317.277"/>
			<line class="st1" x1="1324.914" y1="-1074.057" x2="568.133" y2="-317.277"/>
			<line class="st1" x1="1311.581" y1="-1074.057" x2="554.8" y2="-317.277"/>
			<line class="st1" x1="1298.248" y1="-1074.057" x2="541.467" y2="-317.277"/>
			<line class="st1" x1="1284.914" y1="-1074.057" x2="528.133" y2="-317.277"/>
			<line class="st1" x1="1271.581" y1="-1074.057" x2="514.8" y2="-317.277"/>
			<line class="st1" x1="1258.247" y1="-1074.057" x2="501.466" y2="-317.277"/>
			<line class="st1" x1="1244.914" y1="-1074.057" x2="488.133" y2="-317.277"/>
			<line class="st1" x1="1231.58" y1="-1074.057" x2="474.799" y2="-317.277"/>
			<line class="st1" x1="1218.247" y1="-1074.057" x2="461.466" y2="-317.277"/>
			<line class="st1" x1="1204.913" y1="-1074.057" x2="448.132" y2="-317.277"/>
			<line class="st1" x1="1191.58" y1="-1074.057" x2="434.799" y2="-317.277"/>
			<line class="st1" x1="1164.915" y1="-1074.057" x2="408.134" y2="-317.277"/>
			<line class="st1" x1="1144.918" y1="-1074.057" x2="388.137" y2="-317.277"/>
			<line class="st1" x1="1124.921" y1="-1074.057" x2="368.14" y2="-317.277"/>
			<line class="st1" x1="1104.924" y1="-1074.057" x2="348.143" y2="-317.277"/>
			<line class="st1" x1="1084.927" y1="-1074.057" x2="328.147" y2="-317.277"/>
			<line class="st1" x1="1064.931" y1="-1074.057" x2="308.15" y2="-317.277"/>
			<line class="st1" x1="1051.599" y1="-1074.057" x2="294.818" y2="-317.277"/>
			<line class="st1" x1="1038.268" y1="-1074.057" x2="281.487" y2="-317.277"/>
			<line class="st1" x1="1024.937" y1="-1074.057" x2="268.156" y2="-317.277"/>
			<line class="st1" x1="1011.606" y1="-1074.057" x2="254.825" y2="-317.277"/>
			<line class="st1" x1="998.275" y1="-1074.057" x2="241.494" y2="-317.277"/>
			<line class="st1" x1="984.943" y1="-1074.057" x2="228.162" y2="-317.277"/>
			<line class="st1" x1="971.612" y1="-1074.057" x2="214.831" y2="-317.277"/>
			<line class="st1" x1="958.281" y1="-1074.057" x2="201.5" y2="-317.277"/>
			<line class="st1" x1="944.95" y1="-1074.057" x2="188.169" y2="-317.277"/>
			<line class="st1" x1="931.618" y1="-1074.057" x2="174.837" y2="-317.277"/>
			<line class="st1" x1="918.287" y1="-1074.057" x2="161.506" y2="-317.277"/>
			<line class="st1" x1="904.956" y1="-1074.057" x2="148.175" y2="-317.277"/>
			<line class="st1" x1="891.625" y1="-1074.057" x2="134.844" y2="-317.277"/>
			<line class="st1" x1="878.293" y1="-1074.057" x2="121.512" y2="-317.277"/>
			<line class="st1" x1="864.962" y1="-1074.057" x2="108.181" y2="-317.277"/>
			<line class="st1" x1="851.631" y1="-1074.057" x2="94.85" y2="-317.277"/>
			<line class="st1" x1="838.3" y1="-1074.057" x2="81.519" y2="-317.277"/>
			<line class="st1" x1="824.968" y1="-1074.057" x2="68.187" y2="-317.277"/>
			<line class="st1" x1="811.637" y1="-1074.057" x2="54.856" y2="-317.277"/>
			<line class="st1" x1="798.306" y1="-1074.057" x2="41.525" y2="-317.277"/>
			<line class="st1" x1="784.975" y1="-1074.057" x2="28.194" y2="-317.277"/>
			<line class="st1" x1="771.643" y1="-1074.057" x2="14.863" y2="-317.277"/>
			<line class="st1" x1="1698.252" y1="-1074.057" x2="941.471" y2="-317.277"/>
			<line class="st1" x1="1691.585" y1="-1074.057" x2="934.804" y2="-317.277"/>
			<line class="st1" x1="1684.918" y1="-1074.057" x2="928.137" y2="-317.277"/>
			<line class="st1" x1="1678.252" y1="-1074.057" x2="921.471" y2="-317.277"/>
			<line class="st1" x1="1671.585" y1="-1074.057" x2="914.804" y2="-317.277"/>
			<line class="st1" x1="1664.918" y1="-1074.057" x2="908.137" y2="-317.277"/>
			<line class="st1" x1="1658.251" y1="-1074.057" x2="901.47" y2="-317.277"/>
			<line class="st1" x1="1651.585" y1="-1074.057" x2="894.804" y2="-317.277"/>
			<line class="st1" x1="1644.918" y1="-1074.057" x2="888.137" y2="-317.277"/>
			<line class="st1" x1="1638.251" y1="-1074.057" x2="881.47" y2="-317.277"/>
			<line class="st1" x1="1631.584" y1="-1074.057" x2="874.804" y2="-317.277"/>
			<line class="st1" x1="1624.918" y1="-1074.057" x2="868.137" y2="-317.277"/>
			<line class="st1" x1="1618.251" y1="-1074.057" x2="861.47" y2="-317.277"/>
			<line class="st1" x1="1611.584" y1="-1074.057" x2="854.803" y2="-317.277"/>
			<line class="st1" x1="1778.253" y1="-1074.057" x2="1021.472" y2="-317.277"/>
			<line class="st1" x1="1771.586" y1="-1074.057" x2="1014.805" y2="-317.277"/>
			<line class="st1" x1="1764.919" y1="-1074.057" x2="1008.138" y2="-317.277"/>
			<line class="st1" x1="1758.253" y1="-1074.057" x2="1001.472" y2="-317.277"/>
			<line class="st1" x1="1751.586" y1="-1074.057" x2="994.805" y2="-317.277"/>
			<line class="st1" x1="1744.919" y1="-1074.057" x2="988.138" y2="-317.277"/>
			<line class="st1" x1="1738.252" y1="-1074.057" x2="981.471" y2="-317.277"/>
			<line class="st1" x1="1731.586" y1="-1074.057" x2="974.805" y2="-317.277"/>
			<line class="st1" x1="1724.919" y1="-1074.057" x2="968.138" y2="-317.277"/>
			<line class="st1" x1="1718.252" y1="-1074.057" x2="961.471" y2="-317.277"/>
			<line class="st1" x1="1711.585" y1="-1074.057" x2="954.804" y2="-317.277"/>
			<line class="st1" x1="1704.919" y1="-1074.057" x2="948.138" y2="-317.277"/>
			<line class="st1" x1="1604.917" y1="-1074.057" x2="848.137" y2="-317.277"/>
			<line class="st1" x1="1598.251" y1="-1074.057" x2="841.47" y2="-317.277"/>
			<line class="st1" x1="1591.584" y1="-1074.057" x2="834.803" y2="-317.277"/>
			<line class="st1" x1="1584.917" y1="-1074.057" x2="828.136" y2="-317.277"/>
			<line class="st1" x1="1578.251" y1="-1074.057" x2="821.47" y2="-317.277"/>
			<line class="st1" x1="1571.584" y1="-1074.057" x2="814.803" y2="-317.277"/>
			<line class="st1" x1="1564.917" y1="-1074.057" x2="808.136" y2="-317.277"/>
			<line class="st1" x1="1558.25" y1="-1074.057" x2="801.469" y2="-317.277"/>
			<line class="st1" x1="1551.584" y1="-1074.057" x2="794.803" y2="-317.277"/>
			<line class="st1" x1="1544.917" y1="-1074.057" x2="788.136" y2="-317.277"/>
			<line class="st1" x1="1531.583" y1="-1074.057" x2="774.802" y2="-317.277"/>
			<line class="st1" x1="1518.25" y1="-1074.057" x2="761.469" y2="-317.277"/>
			<line class="st1" x1="1504.916" y1="-1074.057" x2="748.135" y2="-317.277"/>
			<line class="st1" x1="1491.583" y1="-1074.057" x2="734.802" y2="-317.277"/>
			<line class="st1" x1="1478.25" y1="-1074.057" x2="721.469" y2="-317.277"/>
			<line class="st1" x1="1464.916" y1="-1074.057" x2="708.135" y2="-317.277"/>
			<line class="st1" x1="1451.583" y1="-1074.057" x2="694.802" y2="-317.277"/>
			<line class="st1" x1="1438.249" y1="-1074.057" x2="681.468" y2="-317.277"/>
			<line class="st1" x1="1424.916" y1="-1074.057" x2="668.135" y2="-317.277"/>
			<line class="st1" x1="1411.582" y1="-1074.057" x2="654.801" y2="-317.277"/>
			<line class="st1" x1="1398.249" y1="-1074.057" x2="641.468" y2="-317.277"/>
			<line class="st1" x1="1384.915" y1="-1074.057" x2="628.134" y2="-317.277"/>
			<line class="st1" x1="1371.582" y1="-1074.057" x2="614.801" y2="-317.277"/>
			<line class="st1" x1="1358.248" y1="-1074.057" x2="601.467" y2="-317.277"/>
			<line class="st1" x1="1344.915" y1="-1074.057" x2="588.134" y2="-317.277"/>
			<line class="st1" x1="1331.581" y1="-1074.057" x2="574.8" y2="-317.277"/>
			<line class="st1" x1="1318.248" y1="-1074.057" x2="561.467" y2="-317.277"/>
			<line class="st1" x1="1304.914" y1="-1074.057" x2="548.133" y2="-317.277"/>
			<line class="st1" x1="1291.581" y1="-1074.057" x2="534.8" y2="-317.277"/>
			<line class="st1" x1="1278.247" y1="-1074.057" x2="521.466" y2="-317.277"/>
			<line class="st1" x1="1264.914" y1="-1074.057" x2="508.133" y2="-317.277"/>
			<line class="st1" x1="1251.58" y1="-1074.057" x2="494.799" y2="-317.277"/>
			<line class="st1" x1="1238.247" y1="-1074.057" x2="481.466" y2="-317.277"/>
			<line class="st1" x1="1224.913" y1="-1074.057" x2="468.132" y2="-317.277"/>
			<line class="st1" x1="1211.58" y1="-1074.057" x2="454.799" y2="-317.277"/>
			<line class="st1" x1="1198.246" y1="-1074.057" x2="441.465" y2="-317.277"/>
			<line class="st1" x1="1184.913" y1="-1074.057" x2="428.132" y2="-317.277"/>
			<line class="st1" x1="1171.581" y1="-1074.057" x2="414.8" y2="-317.277"/>
			<line class="st1" x1="1151.584" y1="-1074.057" x2="394.803" y2="-317.277"/>
			<line class="st1" x1="1131.587" y1="-1074.057" x2="374.806" y2="-317.277"/>
			<line class="st1" x1="1111.59" y1="-1074.057" x2="354.809" y2="-317.277"/>
			<line class="st1" x1="1091.593" y1="-1074.057" x2="334.812" y2="-317.277"/>
			<line class="st1" x1="1071.596" y1="-1074.057" x2="314.815" y2="-317.277"/>
		</g>
	</g>
</g>
<path class="st6" d="M184.366-865.761c0.015-1.011,0.854-1.827,1.866-1.813l7.775,0.112c1.011,0.015,2.416,0.62,3.121,1.346
	l11.207,11.534c0.705,0.726,0.688,1.896-0.037,2.601l-11.534,11.207c-0.726,0.705-2.147,1.27-3.158,1.255l-7.775-0.112
	c-1.011-0.015-1.827-0.854-1.813-1.866l0.076-5.294c0.015-1.011,0.62-2.416,1.346-3.121l2.433-2.364
	c0.726-0.705,0.742-1.875,0.037-2.601l-2.364-2.433c-0.705-0.726-1.27-2.147-1.255-3.158L184.366-865.761z"/>
<path class="st6" d="M173.176-841.332c-0.015,1.011-0.854,1.827-1.866,1.813l-7.775-0.112c-1.011-0.015-2.416-0.62-3.121-1.346
	l-11.207-11.534c-0.705-0.726-0.688-1.896,0.037-2.601l11.534-11.207c0.726-0.705,2.147-1.27,3.158-1.255l7.775,0.112
	c1.011,0.015,1.827,0.854,1.813,1.866l-0.076,5.294c-0.015,1.011-0.62,2.416-1.346,3.121l-2.433,2.364
	c-0.726,0.705-0.742,1.875-0.037,2.601l2.364,2.433c0.705,0.726,1.27,2.147,1.255,3.158L173.176-841.332z"/>
<g>
	<rect x="117.2" y="-691.337" class="st7" width="9.742" height="142.36"/>
	<g>
		<polygon class="st8" points="214.072,-691.337 126.942,-691.337 126.942,-637.53 214.06,-691.324 		"/>
		<polygon class="st9" points="126.942,-637.53 213.915,-637.53 187.09,-664.355 214.06,-691.324 		"/>
	</g>
	<polygon class="st7" points="135.997,-545.346 108.144,-545.346 122.071,-559.272 	"/>
</g>
<g>
	
		<ellipse transform="matrix(0.7974 -0.6034 0.6034 0.7974 185.3074 26.5213)" class="st10" cx="132.153" cy="-262.723" rx="10.273" ry="12.526"/>
	<path class="st11" d="M245.19-278.877c-32.27,2.83-64.55,5.66-96.83,8.5c-2.36-7.47-4.72-14.93-7.07-22.4
		c-3.15-9.98-6.3-19.96-9.45-29.94c28.32-15.97,56.65-31.95,84.97-47.92c3.93,12.72,7.87,25.44,11.8,38.16
		C234.14-314.607,239.66-296.747,245.19-278.877z"/>
	<g>
		<path class="st12" d="M103.645-271.485c0.982,3.151-0.793,6.531-3.944,7.512l-10.253,3.192c-3.151,0.981-6.136,0.474-6.634-1.126
			s-1.265-4.06-1.705-5.465s-1.063-3.401-1.385-4.435s-0.943-3.03-1.38-4.435s-1.07-3.439-1.405-4.52s-0.97-3.115-1.41-4.52
			s-1.288-4.126-1.885-6.045s1.493-4.293,4.644-5.274l10.253-3.192c3.151-0.981,6.532,0.794,7.513,3.945L103.645-271.485z"/>
	</g>
	<g>
		<path class="st13" d="M150.778-234.998c1.518,2.93,0.363,6.569-2.566,8.088l-2.642,1.369c-2.93,1.518-6.569,0.363-8.088-2.566
			l-18.427-35.558c-1.518-2.93-0.363-6.569,2.566-8.088l2.642-1.369c2.93-1.518,6.569-0.363,8.088,2.566L150.778-234.998z"/>
	</g>
	<path class="st14" d="M245.19-278.877c-32.27,2.83-64.55,5.66-96.83,8.5c-2.36-7.47-4.72-14.93-7.07-22.4
		c29.11-13.24,58.21-26.47,87.32-39.7c0.02-0.01,0.05-0.02,0.07-0.03C234.19-314.637,239.69-296.757,245.19-278.877z"/>
	<g>
		<path class="st12" d="M251.055-285.126c0.981,3.151-0.794,6.531-3.945,7.512l-1.591,0.495c-3.151,0.981-6.531-0.794-7.512-3.945
			l-26.675-85.672c-0.981-3.151,0.794-6.531,3.945-7.512l1.591-0.495c3.151-0.981,6.531,0.794,7.512,3.945L251.055-285.126z"/>
	</g>
	<polygon class="st15" points="99.214,-261.434 112.014,-259.164 95.799,-311.241 86.551,-302.106 	"/>
	<polygon class="st16" points="122.509,-256.999 136.162,-263.203 128.61,-277.047 116.485,-268.172 	"/>
	
		<rect x="103.047" y="-318.107" transform="matrix(0.9548 -0.2973 0.2973 0.9548 91.9766 23.1179)" class="st17" width="37.893" height="54.543"/>
	<path class="st15" d="M83.19-284.867l-6.86,2.14l-1.6-5.11l6.86-2.14c1.58-0.49,3.23,0.26,3.66,1.66
		C85.69-286.907,84.76-285.357,83.19-284.867z"/>
	<path class="st15" d="M86-275.827l-6.86,2.14l-1.59-5.11l6.86-2.14c1.57-0.49,3.22,0.26,3.66,1.66
		C88.51-277.867,87.58-276.317,86-275.827z"/>
	<path class="st15" d="M88.76-266.957l-6.85,2.14l-1.6-5.11l6.86-2.14c1.58-0.49,3.22,0.26,3.66,1.66
		C91.27-268.997,90.34-267.447,88.76-266.957z"/>
	<polygon class="st13" points="99.214,-261.434 112.014,-259.164 107.492,-273.688 95.858,-272.214 	"/>
</g>
<g>
	<defs>
		<polygon id="SVGID_9_" points="-1005.018,-898.968 -1242.006,-355.996 -963.02,-273.5 -705.033,-841.971 		"/>
	</defs>
	<clipPath id="SVGID_10_">
		<use xlink:href="#SVGID_9_"  style="overflow:visible;"/>
	</clipPath>
	<g style="clip-path:url(#SVGID_10_);">
		
			<image style="overflow:visible;" width="1500" height="845" xlink:href="8907C239716CB5D9.png"  transform="matrix(1 0 0 1 -2047.0353 -1018.0161)">
		</image>
	</g>
</g>
<g>
	<g>
		<g>
			<g>
				<g>
					<path class="st6" d="M590.425-200.004c-0.111,0.111-0.236,0.167-0.373,0.167h-3.112c-0.138,0-0.257-0.056-0.36-0.167
						c-0.103-0.112-0.154-0.236-0.154-0.374v-8.79c0-0.825-0.111-1.389-0.334-1.688c-0.223-0.301-0.635-0.451-1.235-0.451
						c-0.223,0-0.51,0.029-0.862,0.09s-0.724,0.185-1.119,0.374c0.051,0.516,0.077,1.074,0.077,1.676v8.79
						c0,0.138-0.051,0.262-0.154,0.374c-0.103,0.111-0.223,0.167-0.36,0.167h-3.112c-0.138,0-0.262-0.056-0.373-0.167
						c-0.112-0.112-0.167-0.236-0.167-0.374v-8.79c0-0.825-0.099-1.389-0.296-1.688c-0.197-0.301-0.596-0.451-1.196-0.451
						c-0.24,0-0.527,0.06-0.861,0.18c-0.334,0.121-0.699,0.284-1.093,0.49v10.26c0,0.138-0.051,0.262-0.154,0.374
						c-0.103,0.111-0.223,0.167-0.36,0.167h-3.112c-0.138,0-0.262-0.056-0.373-0.167c-0.112-0.111-0.167-0.235-0.167-0.373v-13.684
						c0-0.137,0.051-0.257,0.154-0.359c0.103-0.104,0.223-0.154,0.36-0.154h2.932c0.137,0,0.257,0.051,0.36,0.152
						c0.103,0.103,0.154,0.222,0.154,0.357v0.561c0.548-0.357,1.131-0.659,1.749-0.906c0.617-0.247,1.303-0.37,2.058-0.37
						c0.686,0,1.273,0.099,1.762,0.296s0.913,0.519,1.273,0.964c0.377-0.205,0.729-0.39,1.055-0.553
						c0.326-0.162,0.651-0.296,0.978-0.398c0.326-0.103,0.664-0.18,1.016-0.231c0.351-0.052,0.733-0.077,1.145-0.077
						c0.857,0,1.569,0.138,2.135,0.411c0.566,0.274,1.016,0.656,1.35,1.145c0.334,0.489,0.574,1.081,0.72,1.775
						c0.146,0.694,0.219,1.462,0.219,2.302v8.771C590.592-200.239,590.536-200.115,590.425-200.004z"/>
					<path class="st6" d="M605.613-205.907h-8.205v0.052c0,0.356,0.042,0.705,0.128,1.045c0.085,0.34,0.231,0.637,0.437,0.892
						c0.206,0.255,0.476,0.459,0.811,0.612c0.334,0.152,0.759,0.229,1.273,0.229c0.412,0,0.849-0.009,1.312-0.026
						c0.463-0.017,0.921-0.034,1.376-0.051c0.454-0.018,0.878-0.043,1.273-0.077s0.72-0.061,0.978-0.077h0.077
						c0.326,0,0.489,0.138,0.489,0.412v1.97c0,0.208-0.035,0.362-0.103,0.467c-0.069,0.104-0.214,0.182-0.437,0.233
						c-0.823,0.207-1.629,0.362-2.418,0.466c-0.789,0.104-1.741,0.155-2.855,0.155c-0.771,0-1.543-0.111-2.315-0.334
						c-0.771-0.223-1.466-0.592-2.083-1.106c-0.617-0.514-1.115-1.195-1.492-2.045c-0.377-0.849-0.566-1.89-0.566-3.125v-1.8
						c0-1.029,0.146-1.964,0.438-2.804c0.292-0.84,0.716-1.552,1.273-2.135s1.239-1.033,2.045-1.351
						c0.806-0.317,1.723-0.476,2.752-0.476c1.063,0,1.989,0.172,2.778,0.515s1.449,0.814,1.98,1.414
						c0.532,0.601,0.93,1.312,1.196,2.135c0.266,0.823,0.398,1.724,0.398,2.701v1.491
						C606.153-206.112,605.973-205.907,605.613-205.907z M602.089-208.582c0-0.96-0.206-1.676-0.618-2.147
						c-0.411-0.472-0.977-0.707-1.697-0.707s-1.295,0.24-1.724,0.72c-0.429,0.48-0.643,1.192-0.643,2.135v0.104h4.681V-208.582z"/>
					<path class="st6" d="M628.105-200.004c-0.111,0.111-0.236,0.167-0.373,0.167h-3.112c-0.138,0-0.257-0.056-0.36-0.167
						c-0.103-0.112-0.154-0.236-0.154-0.374v-8.79c0-0.825-0.111-1.389-0.334-1.688c-0.223-0.301-0.635-0.451-1.235-0.451
						c-0.223,0-0.51,0.029-0.862,0.09s-0.724,0.185-1.119,0.374c0.051,0.516,0.077,1.074,0.077,1.676v8.79
						c0,0.138-0.051,0.262-0.154,0.374c-0.103,0.111-0.223,0.167-0.36,0.167h-3.112c-0.138,0-0.262-0.056-0.373-0.167
						c-0.112-0.112-0.167-0.236-0.167-0.374v-8.79c0-0.825-0.099-1.389-0.296-1.688c-0.197-0.301-0.596-0.451-1.196-0.451
						c-0.24,0-0.527,0.06-0.861,0.18c-0.334,0.121-0.699,0.284-1.093,0.49v10.26c0,0.138-0.051,0.262-0.154,0.374
						c-0.103,0.111-0.223,0.167-0.36,0.167h-3.112c-0.138,0-0.262-0.056-0.373-0.167c-0.112-0.111-0.167-0.235-0.167-0.373v-13.684
						c0-0.137,0.051-0.257,0.154-0.359c0.103-0.104,0.223-0.154,0.36-0.154h2.932c0.137,0,0.257,0.051,0.36,0.152
						c0.103,0.103,0.154,0.222,0.154,0.357v0.561c0.548-0.357,1.131-0.659,1.749-0.906c0.617-0.247,1.303-0.37,2.058-0.37
						c0.686,0,1.273,0.099,1.762,0.296s0.913,0.519,1.273,0.964c0.377-0.205,0.729-0.39,1.055-0.553
						c0.326-0.162,0.651-0.296,0.978-0.398c0.326-0.103,0.664-0.18,1.016-0.231c0.351-0.052,0.733-0.077,1.145-0.077
						c0.857,0,1.569,0.138,2.135,0.411c0.566,0.274,1.016,0.656,1.35,1.145c0.334,0.489,0.574,1.081,0.72,1.775
						c0.146,0.694,0.219,1.462,0.219,2.302v8.771C628.273-200.239,628.217-200.115,628.105-200.004z"/>
					<path class="st6" d="M643.409-203.514c-0.283,0.823-0.694,1.521-1.234,2.096c-0.54,0.575-1.209,1.021-2.006,1.338
						s-1.719,0.476-2.765,0.476s-1.967-0.158-2.765-0.476s-1.471-0.763-2.019-1.338c-0.549-0.574-0.965-1.272-1.248-2.096
						c-0.283-0.823-0.424-1.749-0.424-2.778v-1.8c0-1.029,0.141-1.955,0.424-2.778c0.283-0.823,0.698-1.521,1.248-2.096
						c0.548-0.574,1.222-1.021,2.019-1.338s1.719-0.476,2.765-0.476s1.968,0.158,2.765,0.476s1.466,0.764,2.006,1.338
						s0.952,1.272,1.234,2.096c0.283,0.823,0.424,1.749,0.424,2.778v1.8C643.833-205.263,643.692-204.338,643.409-203.514z
						 M639.667-208.092c0-2.092-0.755-3.138-2.264-3.138c-0.746,0-1.314,0.261-1.704,0.784c-0.39,0.523-0.585,1.308-0.585,2.354v1.8
						c0,1.047,0.195,1.835,0.585,2.367c0.39,0.531,0.958,0.797,1.704,0.797c1.509,0,2.264-1.055,2.264-3.164V-208.092z"/>
					<path class="st6" d="M654.482-211.464c-0.069,0.104-0.163,0.156-0.283,0.156h-0.206c-0.634,0-1.226,0.085-1.774,0.256
						c-0.549,0.172-1.063,0.386-1.543,0.642v10.034c0,0.138-0.051,0.262-0.154,0.372c-0.103,0.111-0.223,0.167-0.36,0.167h-3.112
						c-0.138,0-0.262-0.056-0.373-0.167c-0.112-0.111-0.167-0.235-0.167-0.373v-13.684c0-0.137,0.051-0.257,0.154-0.359
						c0.103-0.104,0.223-0.154,0.36-0.154h3.061c0.137,0,0.257,0.052,0.36,0.155s0.154,0.225,0.154,0.363v0.52
						c0.48-0.397,1.024-0.704,1.633-0.92c0.608-0.216,1.222-0.324,1.839-0.324c0.137,0,0.257,0.052,0.36,0.155
						c0.103,0.104,0.154,0.225,0.154,0.363v2.461C654.585-211.679,654.55-211.567,654.482-211.464z"/>
					<path class="st6" d="M660.912-216.4c-0.103,0.103-0.223,0.154-0.36,0.154h-3.344c-0.137,0-0.257-0.052-0.36-0.154
						c-0.103-0.104-0.154-0.223-0.154-0.36v-2.393c0-0.137,0.051-0.257,0.154-0.359c0.103-0.104,0.223-0.154,0.36-0.154h3.344
						c0.137,0,0.257,0.051,0.36,0.154c0.103,0.103,0.154,0.223,0.154,0.359v2.393C661.066-216.623,661.015-216.504,660.912-216.4z
						 M660.809-199.991c-0.103,0.104-0.223,0.154-0.36,0.154h-3.138c-0.138,0-0.257-0.051-0.36-0.154
						c-0.103-0.103-0.154-0.223-0.154-0.36v-13.709c0-0.137,0.052-0.257,0.154-0.359c0.103-0.104,0.223-0.154,0.36-0.154h3.138
						c0.137,0,0.257,0.051,0.36,0.154c0.103,0.103,0.154,0.223,0.154,0.359v13.709C660.963-200.214,660.912-200.093,660.809-199.991
						z"/>
					<path class="st6" d="M675.367-199.991c-0.103,0.104-0.223,0.154-0.36,0.154h-2.881c-0.137,0-0.257-0.051-0.36-0.154
						c-0.103-0.103-0.154-0.223-0.154-0.36v-0.411c-0.498,0.36-1.025,0.644-1.582,0.849c-0.558,0.206-1.222,0.309-1.993,0.309
						c-0.566,0-1.111-0.073-1.633-0.219c-0.523-0.146-0.99-0.39-1.402-0.732s-0.742-0.798-0.99-1.363
						c-0.249-0.566-0.373-1.269-0.373-2.109v-0.231c0-1.509,0.501-2.61,1.505-3.305c1.003-0.694,2.61-1.042,4.822-1.042h1.389
						v-0.926c0-0.737-0.172-1.218-0.515-1.44c-0.343-0.223-0.814-0.334-1.415-0.334c-0.412,0-0.828,0.004-1.248,0.013
						c-0.42,0.009-0.823,0.021-1.208,0.038c-0.386,0.018-0.733,0.039-1.042,0.064s-0.566,0.048-0.771,0.064h-0.128
						c-0.138,0-0.249-0.034-0.334-0.103c-0.086-0.068-0.129-0.188-0.129-0.36v-2.084c0-0.291,0.163-0.479,0.489-0.565
						c0.48-0.12,1.127-0.24,1.942-0.36c0.814-0.119,1.65-0.18,2.508-0.18c0.926,0,1.762,0.099,2.508,0.296s1.376,0.506,1.891,0.926
						c0.514,0.42,0.913,0.961,1.196,1.62c0.283,0.66,0.424,1.462,0.424,2.405v9.182C675.521-200.214,675.47-200.093,675.367-199.991
						z M671.432-206.138h-1.466c-0.892,0-1.492,0.154-1.8,0.464c-0.309,0.309-0.463,0.78-0.463,1.414v0.231
						c0,0.549,0.132,0.9,0.398,1.055c0.266,0.154,0.673,0.231,1.222,0.231c0.395,0,0.768-0.056,1.119-0.167
						c0.351-0.111,0.682-0.244,0.99-0.398V-206.138z"/>
				</g>
			</g>
			<g>
				<linearGradient id="SVGID_11_" gradientUnits="userSpaceOnUse" x1="535.6014" y1="-202.8125" x2="561.5322" y2="-202.8125">
					<stop  offset="0" style="stop-color:#29235C"/>
					<stop  offset="1" style="stop-color:#1D71B8"/>
				</linearGradient>
				<path class="st18" d="M561.172-195.354l-6.912-18.993c-0.864-2.374-3.084-3.856-5.504-3.909l-0.015-0.001
					c-0.023,0-0.059,0.001-0.112,0.001h-0.092c-0.076,0-0.122-0.002-0.139-0.001l-0.017,0.001l-0.036,0.001
					c-2.386,0.052-4.604,1.534-5.468,3.908l-1.932,5.308c1.276,0.947,2.107,2.46,2.107,4.171c0,2.87-2.326,5.196-5.196,5.196
					c-0.106,0-0.209-0.01-0.314-0.016l-1.578,4.334c-0.245,0.675-0.362,1.359-0.362,2.033c0.003,2.428,1.5,4.712,3.918,5.593
					c0.674,0.244,1.359,0.359,2.036,0.359c2.237,0,4.353-1.278,5.357-3.371l3.435-9.303l-0.222,9.088
					c0.959,2.221,3.139,3.586,5.456,3.587c0.674,0,1.359-0.116,2.035-0.36c2.418-0.879,3.915-3.162,3.917-5.591
					C561.532-193.994,561.417-194.68,561.172-195.354z"/>
				<linearGradient id="SVGID_12_" gradientUnits="userSpaceOnUse" x1="519.6983" y1="-202.8165" x2="538.5157" y2="-202.8165">
					<stop  offset="0" style="stop-color:#29235C"/>
					<stop  offset="1" style="stop-color:#1D71B8"/>
				</linearGradient>
				<path class="st19" d="M532.658-204.867c0-2.87,2.326-5.196,5.196-5.196c0.074,0,0.146,0.008,0.219,0.011l0.082-0.223
					c0.245-0.677,0.36-1.365,0.36-2.037c-0.002-2.428-1.499-4.713-3.917-5.591c-0.674-0.246-1.36-0.359-2.035-0.362
					c-2.429,0.003-4.714,1.5-5.591,3.918l-6.915,18.997c-0.245,0.67-0.36,1.356-0.36,2.031c0.002,2.429,1.501,4.714,3.916,5.591
					c0.675,0.244,1.362,0.36,2.036,0.36c2.429-0.001,4.714-1.499,5.592-3.917l3.446-9.469
					C533.456-201.703,532.658-203.19,532.658-204.867z"/>
				<linearGradient id="SVGID_13_" gradientUnits="userSpaceOnUse" x1="535.169" y1="-204.8676" x2="540.54" y2="-204.8676">
					<stop  offset="0" style="stop-color:#29235C"/>
					<stop  offset="1" style="stop-color:#1D71B8"/>
				</linearGradient>
				<circle class="st20" cx="537.855" cy="-204.867" r="2.686"/>
			</g>
		</g>
	</g>
	<g>
		<g>
			<g>
				<g>
					<path class="st6" d="M662.985-191.077c-0.03,0.033-0.101,0.063-0.21,0.091c-0.236,0.061-0.509,0.111-0.816,0.152
						c-0.308,0.042-0.621,0.062-0.939,0.062c-0.67,0-1.183-0.185-1.537-0.553s-0.532-0.887-0.532-1.558v-0.643
						c0-0.648,0.17-1.162,0.511-1.542c0.34-0.379,0.86-0.568,1.558-0.568c0.083,0,0.186,0.006,0.309,0.017s0.246,0.024,0.367,0.041
						v-1.426c0-0.044,0.017-0.082,0.049-0.115c0.033-0.033,0.072-0.05,0.116-0.05h0.997c0.044,0,0.084,0.017,0.12,0.05
						s0.054,0.071,0.054,0.115v5.777C663.031-191.159,663.016-191.109,662.985-191.077z M661.695-194.489
						c-0.099-0.011-0.211-0.021-0.338-0.028c-0.126-0.009-0.239-0.013-0.338-0.013c-0.148,0-0.27,0.024-0.363,0.074
						s-0.167,0.119-0.223,0.21c-0.055,0.091-0.093,0.198-0.115,0.321c-0.022,0.124-0.033,0.257-0.033,0.4v0.643
						c0,0.148,0.011,0.284,0.033,0.408c0.022,0.123,0.061,0.23,0.115,0.321c0.055,0.091,0.129,0.161,0.223,0.21
						c0.093,0.05,0.214,0.074,0.363,0.074c0.137,0,0.265-0.005,0.383-0.017c0.118-0.011,0.215-0.021,0.292-0.032V-194.489z"/>
					<path class="st6" d="M667.613-190.895c-0.033,0.033-0.072,0.05-0.116,0.05h-0.923c-0.044,0-0.083-0.017-0.116-0.05
						c-0.033-0.033-0.049-0.071-0.049-0.115v-0.132c-0.159,0.115-0.328,0.206-0.507,0.271c-0.179,0.066-0.392,0.1-0.639,0.1
						c-0.182,0-0.356-0.023-0.523-0.07c-0.168-0.047-0.317-0.125-0.449-0.235c-0.132-0.109-0.238-0.255-0.317-0.437
						s-0.12-0.406-0.12-0.676v-0.074c0-0.483,0.161-0.837,0.482-1.06c0.321-0.222,0.836-0.333,1.545-0.333h0.445v-0.297
						c0-0.236-0.055-0.391-0.165-0.462c-0.11-0.071-0.261-0.107-0.454-0.107c-0.132,0-0.265,0.002-0.399,0.005
						c-0.135,0.003-0.264,0.007-0.388,0.012c-0.124,0.006-0.235,0.013-0.333,0.021c-0.099,0.009-0.182,0.016-0.248,0.021H664.3
						c-0.044,0-0.08-0.011-0.107-0.032c-0.027-0.022-0.041-0.061-0.041-0.115v-0.668c0-0.094,0.052-0.154,0.157-0.182
						c0.154-0.038,0.361-0.077,0.622-0.115c0.261-0.038,0.529-0.058,0.804-0.058c0.297,0,0.564,0.031,0.804,0.095
						c0.239,0.063,0.441,0.162,0.606,0.297c0.165,0.135,0.292,0.308,0.383,0.52c0.091,0.211,0.136,0.468,0.136,0.771v2.942
						C667.663-190.966,667.646-190.928,667.613-190.895z M666.352-192.865h-0.47c-0.286,0-0.478,0.05-0.577,0.148
						c-0.099,0.099-0.148,0.25-0.148,0.453v0.074c0,0.176,0.042,0.288,0.128,0.338c0.085,0.05,0.216,0.074,0.392,0.074
						c0.126,0,0.246-0.018,0.358-0.054c0.113-0.035,0.218-0.078,0.317-0.128V-192.865z"/>
					<path class="st6" d="M671.207-190.837c-0.126,0.021-0.236,0.038-0.33,0.049c-0.094,0.011-0.201,0.017-0.322,0.017
						c-0.224,0-0.422-0.02-0.594-0.058c-0.172-0.039-0.315-0.108-0.43-0.211c-0.115-0.102-0.203-0.244-0.262-0.428
						c-0.06-0.185-0.09-0.422-0.09-0.714v-2.39l-0.659-0.107c-0.044-0.011-0.084-0.031-0.12-0.062s-0.054-0.067-0.054-0.111v-0.544
						c0-0.044,0.018-0.084,0.054-0.12c0.036-0.035,0.076-0.053,0.12-0.053h0.659v-0.677c0-0.044,0.017-0.079,0.049-0.106
						s0.071-0.047,0.115-0.058l0.999-0.174h0.025c0.043,0,0.079,0.013,0.106,0.037c0.027,0.025,0.041,0.06,0.041,0.104v0.874h0.676
						c0.044,0,0.083,0.017,0.115,0.05c0.033,0.033,0.05,0.071,0.05,0.116v0.673c0,0.044-0.017,0.083-0.05,0.116
						c-0.033,0.033-0.071,0.05-0.115,0.05h-0.676v2.398c0,0.165,0.014,0.271,0.041,0.317c0.027,0.047,0.104,0.07,0.231,0.07h0.404
						c0.115,0,0.173,0.046,0.173,0.139v0.638C671.363-190.908,671.311-190.853,671.207-190.837z"/>
					<path class="st6" d="M675.716-190.895c-0.033,0.033-0.072,0.05-0.116,0.05h-0.923c-0.044,0-0.083-0.017-0.116-0.05
						c-0.033-0.033-0.049-0.071-0.049-0.115v-0.132c-0.159,0.115-0.328,0.206-0.507,0.271c-0.179,0.066-0.392,0.1-0.639,0.1
						c-0.182,0-0.356-0.023-0.523-0.07c-0.168-0.047-0.317-0.125-0.449-0.235c-0.132-0.109-0.238-0.255-0.317-0.437
						s-0.12-0.406-0.12-0.676v-0.074c0-0.483,0.161-0.837,0.482-1.06c0.321-0.222,0.836-0.333,1.545-0.333h0.445v-0.297
						c0-0.236-0.055-0.391-0.165-0.462c-0.11-0.071-0.261-0.107-0.454-0.107c-0.132,0-0.265,0.002-0.399,0.005
						c-0.135,0.003-0.264,0.007-0.388,0.012c-0.124,0.006-0.235,0.013-0.333,0.021c-0.099,0.009-0.182,0.016-0.248,0.021h-0.041
						c-0.044,0-0.08-0.011-0.107-0.032c-0.027-0.022-0.041-0.061-0.041-0.115v-0.668c0-0.094,0.052-0.154,0.157-0.182
						c0.154-0.038,0.361-0.077,0.622-0.115c0.261-0.038,0.529-0.058,0.804-0.058c0.297,0,0.564,0.031,0.804,0.095
						c0.239,0.063,0.441,0.162,0.606,0.297c0.165,0.135,0.292,0.308,0.383,0.52c0.091,0.211,0.136,0.468,0.136,0.771v2.942
						C675.765-190.966,675.748-190.928,675.716-190.895z M674.455-192.865h-0.47c-0.286,0-0.478,0.05-0.577,0.148
						c-0.099,0.099-0.148,0.25-0.148,0.453v0.074c0,0.176,0.042,0.288,0.128,0.338c0.085,0.05,0.216,0.074,0.392,0.074
						c0.126,0,0.246-0.018,0.358-0.054c0.113-0.035,0.218-0.078,0.317-0.128V-192.865z"/>
				</g>
			</g>
			<g>
				<g>
					<path class="st6" d="M608.348-190.837c-0.126,0.021-0.236,0.038-0.33,0.049c-0.094,0.011-0.201,0.017-0.322,0.017
						c-0.224,0-0.422-0.02-0.594-0.058c-0.172-0.039-0.315-0.108-0.43-0.211c-0.115-0.102-0.203-0.244-0.262-0.428
						c-0.06-0.185-0.09-0.422-0.09-0.714v-2.39l-0.659-0.107c-0.044-0.011-0.084-0.031-0.12-0.062s-0.054-0.067-0.054-0.111v-0.544
						c0-0.044,0.018-0.084,0.054-0.12c0.036-0.035,0.076-0.053,0.12-0.053h0.659v-0.677c0-0.044,0.017-0.079,0.049-0.106
						s0.071-0.047,0.115-0.058l0.999-0.174h0.025c0.043,0,0.079,0.013,0.106,0.037c0.027,0.025,0.041,0.06,0.041,0.104v0.874h0.676
						c0.044,0,0.083,0.017,0.115,0.05c0.033,0.033,0.05,0.071,0.05,0.116v0.673c0,0.044-0.017,0.083-0.05,0.116
						c-0.033,0.033-0.071,0.05-0.115,0.05h-0.676v2.398c0,0.165,0.014,0.271,0.041,0.317c0.027,0.047,0.104,0.07,0.231,0.07h0.404
						c0.115,0,0.173,0.046,0.173,0.139v0.638C608.504-190.908,608.452-190.853,608.348-190.837z"/>
					<path class="st6" d="M613.086-192.791h-2.629v0.017c0,0.114,0.014,0.226,0.042,0.335c0.027,0.108,0.074,0.204,0.14,0.285
						c0.066,0.082,0.152,0.147,0.26,0.196c0.107,0.049,0.243,0.073,0.408,0.073c0.132,0,0.272-0.002,0.42-0.008
						s0.295-0.011,0.441-0.017s0.282-0.014,0.408-0.024c0.126-0.012,0.23-0.02,0.313-0.025h0.025c0.104,0,0.157,0.045,0.157,0.133
						v0.631c0,0.066-0.011,0.116-0.033,0.149s-0.069,0.059-0.14,0.075c-0.264,0.066-0.522,0.116-0.775,0.149
						c-0.252,0.033-0.558,0.05-0.915,0.05c-0.248,0-0.495-0.036-0.742-0.107c-0.247-0.071-0.47-0.189-0.667-0.354
						s-0.357-0.383-0.478-0.655c-0.121-0.271-0.181-0.605-0.181-1.001v-0.577c0-0.33,0.046-0.629,0.14-0.898
						c0.093-0.27,0.229-0.497,0.408-0.685c0.179-0.187,0.397-0.331,0.655-0.433s0.552-0.152,0.882-0.152
						c0.341,0,0.638,0.055,0.89,0.165c0.253,0.109,0.464,0.261,0.635,0.453s0.298,0.42,0.383,0.685
						c0.085,0.264,0.128,0.552,0.128,0.865v0.478C613.26-192.857,613.202-192.791,613.086-192.791z M611.957-193.648
						c0-0.308-0.066-0.537-0.198-0.688c-0.132-0.15-0.313-0.227-0.544-0.227c-0.23,0-0.415,0.077-0.552,0.231
						c-0.138,0.153-0.207,0.382-0.207,0.684v0.033h1.5V-193.648z"/>
					<path class="st6" d="M617.15-190.957c-0.027,0.024-0.071,0.045-0.132,0.062c-0.115,0.027-0.265,0.055-0.449,0.083
						c-0.184,0.027-0.4,0.041-0.647,0.041c-0.583,0-1.048-0.179-1.397-0.536c-0.349-0.357-0.523-0.874-0.523-1.55v-0.692
						c0-0.676,0.174-1.192,0.523-1.549c0.349-0.357,0.814-0.536,1.397-0.536c0.247,0,0.463,0.014,0.647,0.041
						s0.334,0.055,0.449,0.083c0.061,0.016,0.104,0.037,0.132,0.062s0.041,0.067,0.041,0.128v0.733c0,0.044-0.015,0.078-0.045,0.103
						c-0.03,0.025-0.067,0.037-0.111,0.037h-0.017c-0.154-0.017-0.301-0.029-0.441-0.041c-0.14-0.011-0.329-0.017-0.565-0.017
						c-0.093,0-0.181,0.016-0.264,0.046s-0.154,0.082-0.214,0.156s-0.108,0.173-0.144,0.297s-0.054,0.276-0.054,0.457v0.692
						c0,0.182,0.018,0.334,0.054,0.458c0.036,0.123,0.083,0.223,0.144,0.297s0.132,0.126,0.214,0.156s0.17,0.045,0.264,0.045
						c0.236,0,0.425-0.005,0.565-0.016c0.14-0.012,0.287-0.025,0.441-0.042h0.017c0.044,0,0.081,0.013,0.111,0.037
						c0.03,0.025,0.045,0.06,0.045,0.104v0.733C617.191-191.024,617.178-190.982,617.15-190.957z"/>
					<path class="st6" d="M622.034-190.899c-0.036,0.036-0.076,0.054-0.119,0.054h-0.998c-0.044,0-0.083-0.018-0.115-0.054
						c-0.033-0.035-0.05-0.075-0.05-0.119v-2.738c0-0.143-0.008-0.264-0.024-0.362c-0.017-0.099-0.047-0.178-0.091-0.238
						s-0.106-0.103-0.186-0.128c-0.08-0.024-0.183-0.037-0.309-0.037c-0.121,0-0.245,0.025-0.371,0.074
						c-0.126,0.05-0.261,0.112-0.404,0.189v3.24c0,0.044-0.016,0.084-0.049,0.119c-0.033,0.036-0.071,0.054-0.115,0.054h-0.998
						c-0.044,0-0.083-0.018-0.119-0.054c-0.036-0.036-0.054-0.075-0.054-0.119v-5.984c0-0.044,0.017-0.082,0.049-0.115
						c0.033-0.033,0.071-0.05,0.115-0.05h1.006c0.044,0,0.083,0.017,0.115,0.05c0.033,0.033,0.049,0.071,0.049,0.115v1.742
						c0.209-0.139,0.41-0.235,0.602-0.291s0.412-0.083,0.659-0.083c0.297,0,0.54,0.048,0.729,0.145
						c0.189,0.096,0.338,0.229,0.445,0.399c0.107,0.171,0.181,0.37,0.222,0.598c0.042,0.229,0.062,0.471,0.062,0.729v2.745
						C622.087-190.974,622.069-190.935,622.034-190.899z"/>
					<path class="st6" d="M627.078-190.899c-0.036,0.036-0.076,0.054-0.119,0.054h-0.998c-0.044,0-0.083-0.018-0.115-0.054
						c-0.033-0.035-0.05-0.075-0.05-0.119v-2.738c0-0.143-0.008-0.264-0.024-0.362c-0.017-0.099-0.047-0.178-0.091-0.238
						s-0.106-0.103-0.186-0.128c-0.08-0.024-0.183-0.037-0.309-0.037c-0.121,0-0.245,0.025-0.371,0.074
						c-0.126,0.05-0.261,0.112-0.404,0.189v3.24c0,0.044-0.016,0.084-0.049,0.119c-0.033,0.036-0.071,0.054-0.115,0.054h-0.998
						c-0.044,0-0.083-0.018-0.119-0.054c-0.036-0.036-0.054-0.075-0.054-0.119v-4.386c0-0.044,0.017-0.082,0.049-0.115
						c0.033-0.033,0.071-0.049,0.115-0.049h0.923c0.044,0,0.083,0.017,0.115,0.05c0.033,0.033,0.05,0.071,0.05,0.116v0.199
						c0.225-0.16,0.439-0.272,0.643-0.336c0.204-0.063,0.437-0.096,0.701-0.096c0.297,0,0.54,0.048,0.729,0.145
						c0.189,0.096,0.338,0.229,0.445,0.399c0.107,0.171,0.181,0.37,0.222,0.598c0.042,0.229,0.062,0.471,0.062,0.729v2.745
						C627.132-190.974,627.114-190.935,627.078-190.899z"/>
					<path class="st6" d="M631.982-192.024c-0.09,0.264-0.222,0.487-0.396,0.672c-0.173,0.184-0.387,0.327-0.643,0.429
						c-0.255,0.102-0.551,0.152-0.886,0.152c-0.335,0-0.631-0.051-0.886-0.152s-0.471-0.245-0.647-0.429
						c-0.176-0.185-0.309-0.408-0.4-0.672c-0.09-0.264-0.136-0.561-0.136-0.891v-0.577c0-0.329,0.045-0.626,0.136-0.89
						c0.091-0.264,0.224-0.487,0.4-0.672c0.176-0.184,0.392-0.327,0.647-0.429s0.551-0.152,0.886-0.152
						c0.335,0,0.63,0.051,0.886,0.152c0.256,0.102,0.47,0.245,0.643,0.429c0.173,0.185,0.305,0.408,0.396,0.672
						c0.091,0.264,0.136,0.561,0.136,0.89v0.577C632.119-192.585,632.073-192.288,631.982-192.024z M630.783-193.492
						c0-0.67-0.242-1.005-0.725-1.005c-0.239,0-0.421,0.084-0.546,0.251c-0.125,0.168-0.188,0.419-0.188,0.754v0.577
						c0,0.336,0.062,0.588,0.188,0.759c0.125,0.17,0.307,0.255,0.546,0.255c0.483,0,0.725-0.338,0.725-1.014V-193.492z"/>
					<path class="st6" d="M634.266-190.899c-0.03,0.036-0.067,0.054-0.111,0.054h-1.006c-0.044,0-0.083-0.018-0.119-0.054
						c-0.036-0.036-0.054-0.075-0.054-0.119v-5.984c0-0.044,0.018-0.082,0.054-0.115c0.036-0.033,0.075-0.05,0.119-0.05h1.006
						c0.044,0,0.081,0.017,0.111,0.05c0.03,0.033,0.045,0.071,0.045,0.115v5.984C634.31-190.974,634.295-190.935,634.266-190.899z"
						/>
					<path class="st6" d="M639.161-192.024c-0.09,0.264-0.222,0.487-0.396,0.672c-0.173,0.184-0.387,0.327-0.643,0.429
						c-0.255,0.102-0.551,0.152-0.886,0.152c-0.335,0-0.631-0.051-0.886-0.152s-0.471-0.245-0.647-0.429
						c-0.176-0.185-0.309-0.408-0.4-0.672c-0.09-0.264-0.136-0.561-0.136-0.891v-0.577c0-0.329,0.045-0.626,0.136-0.89
						c0.091-0.264,0.224-0.487,0.4-0.672c0.176-0.184,0.392-0.327,0.647-0.429s0.551-0.152,0.886-0.152
						c0.335,0,0.63,0.051,0.886,0.152c0.256,0.102,0.47,0.245,0.643,0.429c0.173,0.185,0.305,0.408,0.396,0.672
						c0.091,0.264,0.136,0.561,0.136,0.89v0.577C639.297-192.585,639.252-192.288,639.161-192.024z M637.962-193.492
						c0-0.67-0.242-1.005-0.725-1.005c-0.239,0-0.421,0.084-0.546,0.251c-0.125,0.168-0.188,0.419-0.188,0.754v0.577
						c0,0.336,0.062,0.588,0.188,0.759c0.125,0.17,0.307,0.255,0.546,0.255c0.483,0,0.725-0.338,0.725-1.014V-193.492z"/>
					<path class="st6" d="M644.379-194.76c-0.025,0.021-0.062,0.041-0.111,0.058l-0.255,0.082c0.049,0.077,0.092,0.173,0.128,0.289
						c0.036,0.115,0.053,0.222,0.053,0.321v0.065c0,0.539-0.177,0.931-0.532,1.175c-0.354,0.244-0.855,0.367-1.504,0.367
						c-0.192,0-0.363-0.013-0.511-0.037c-0.148-0.025-0.264-0.054-0.346-0.087c-0.044,0.027-0.074,0.057-0.09,0.087
						c-0.017,0.03-0.025,0.064-0.025,0.103c0,0.066,0.017,0.115,0.049,0.148c0.033,0.033,0.099,0.061,0.198,0.082l0.932,0.206
						c0.357,0.077,0.659,0.153,0.907,0.228c0.247,0.073,0.446,0.159,0.597,0.255c0.151,0.097,0.26,0.212,0.326,0.347
						s0.099,0.301,0.099,0.498v0.066c0,0.896-0.72,1.344-2.16,1.344c-0.687,0-1.208-0.116-1.562-0.347s-0.531-0.563-0.531-0.997
						v-0.066c0-0.17,0.038-0.332,0.115-0.486c0.077-0.153,0.203-0.299,0.379-0.437c-0.148-0.082-0.255-0.196-0.321-0.342
						s-0.099-0.287-0.099-0.425c0-0.153,0.035-0.288,0.103-0.404c0.069-0.115,0.155-0.214,0.26-0.296
						c-0.132-0.116-0.228-0.267-0.289-0.454c-0.061-0.187-0.09-0.362-0.09-0.527v-0.065c0-0.467,0.163-0.844,0.49-1.13
						c0.327-0.285,0.85-0.428,1.57-0.428h2.052c0.061,0,0.11,0.021,0.148,0.062c0.038,0.041,0.058,0.092,0.058,0.152v0.47
						C644.416-194.824,644.404-194.783,644.379-194.76z M642.933-190.574c0-0.038-0.01-0.075-0.029-0.111
						c-0.019-0.035-0.059-0.069-0.119-0.103c-0.061-0.033-0.146-0.067-0.256-0.104c-0.11-0.035-0.258-0.072-0.445-0.111l-0.61-0.132
						c-0.05,0.072-0.089,0.147-0.12,0.227c-0.03,0.08-0.045,0.191-0.045,0.334v0.066c0,0.143,0.058,0.248,0.173,0.317
						c0.115,0.068,0.332,0.103,0.651,0.103c0.17,0,0.308-0.01,0.412-0.028c0.104-0.02,0.186-0.049,0.243-0.087
						s0.096-0.084,0.115-0.136c0.02-0.053,0.029-0.108,0.029-0.169V-190.574z M642.891-194.01c0-0.171-0.049-0.312-0.148-0.425
						c-0.099-0.112-0.294-0.169-0.585-0.169c-0.292,0-0.489,0.057-0.594,0.169s-0.156,0.254-0.156,0.425v0.065
						c0,0.071,0.009,0.142,0.029,0.21c0.019,0.069,0.056,0.131,0.111,0.186c0.055,0.056,0.132,0.1,0.23,0.132
						c0.099,0.033,0.226,0.05,0.379,0.05c0.291,0,0.486-0.052,0.585-0.156c0.099-0.104,0.148-0.245,0.148-0.421V-194.01z"/>
					<path class="st6" d="M649.295-195.421c0,0.012-0.001,0.019-0.004,0.021c-0.002,0.002-0.004,0.009-0.004,0.021l-1.385,4.854
						c-0.066,0.226-0.14,0.422-0.223,0.589c-0.083,0.168-0.189,0.307-0.321,0.417c-0.132,0.109-0.3,0.193-0.503,0.251
						s-0.456,0.087-0.758,0.087c-0.077,0-0.162-0.005-0.255-0.013c-0.094-0.008-0.187-0.018-0.28-0.029
						c-0.093-0.011-0.181-0.024-0.264-0.041s-0.148-0.032-0.198-0.049c-0.044-0.017-0.084-0.035-0.12-0.054
						c-0.036-0.02-0.054-0.051-0.054-0.095v-0.668c0-0.044,0.017-0.081,0.05-0.111c0.033-0.03,0.071-0.045,0.115-0.045h0.017
						c0.066,0.005,0.144,0.011,0.235,0.017c0.09,0.005,0.184,0.012,0.28,0.021c0.096,0.008,0.189,0.015,0.28,0.021
						c0.09,0.005,0.169,0.008,0.235,0.008c0.148,0,0.264-0.03,0.346-0.091c0.082-0.061,0.148-0.173,0.198-0.338l0.074-0.255h-0.124
						c-0.077,0-0.149-0.007-0.218-0.021s-0.136-0.046-0.202-0.095c-0.066-0.05-0.128-0.125-0.186-0.228
						c-0.058-0.102-0.111-0.243-0.161-0.424l-1.088-3.709c-0.005-0.017-0.008-0.036-0.008-0.058c0-0.088,0.055-0.132,0.165-0.132
						h1.096c0.044,0,0.079,0.015,0.103,0.045c0.025,0.03,0.042,0.067,0.054,0.111l0.742,3.099c0.022,0.104,0.055,0.157,0.099,0.157
						h0.008h0.033h0.033l0.767-3.256c0.011-0.044,0.031-0.081,0.062-0.111s0.067-0.045,0.111-0.045h1.096
						c0.044,0,0.081,0.014,0.111,0.041S649.295-195.465,649.295-195.421z"/>
				</g>
			</g>
			<g>
				<g>
					<path class="st6" d="M574.693-191.341c-0.341,0.38-0.86,0.569-1.558,0.569c-0.083,0-0.186-0.006-0.309-0.017
						c-0.124-0.012-0.246-0.024-0.367-0.041v1.426c0,0.044-0.016,0.082-0.049,0.115c-0.033,0.033-0.071,0.05-0.115,0.05h-0.998
						c-0.044,0-0.083-0.017-0.119-0.05c-0.036-0.033-0.054-0.071-0.054-0.115v-5.778c0-0.065,0.015-0.115,0.045-0.148
						c0.03-0.032,0.1-0.062,0.21-0.091c0.236-0.06,0.508-0.111,0.816-0.152s0.621-0.062,0.94-0.062c0.67,0,1.183,0.185,1.537,0.552
						c0.354,0.369,0.532,0.888,0.532,1.559v0.643C575.205-192.233,575.034-191.719,574.693-191.341z M573.869-193.519
						c0-0.147-0.011-0.282-0.033-0.402c-0.022-0.121-0.06-0.227-0.115-0.316c-0.055-0.091-0.129-0.16-0.223-0.21
						c-0.093-0.049-0.214-0.074-0.362-0.074c-0.138,0-0.265,0.005-0.383,0.013c-0.118,0.009-0.216,0.018-0.293,0.029v2.563
						c0.099,0.011,0.212,0.021,0.338,0.032c0.126,0.012,0.239,0.017,0.338,0.017c0.148,0,0.269-0.025,0.362-0.078
						c0.094-0.052,0.168-0.123,0.223-0.214c0.055-0.09,0.093-0.196,0.115-0.32c0.022-0.123,0.033-0.256,0.033-0.398V-193.519z"/>
					<path class="st6" d="M579.869-192.791h-2.629v0.017c0,0.114,0.014,0.226,0.042,0.335c0.027,0.108,0.074,0.204,0.14,0.285
						c0.066,0.082,0.152,0.147,0.26,0.196c0.107,0.049,0.243,0.073,0.408,0.073c0.132,0,0.272-0.002,0.42-0.008
						s0.295-0.011,0.441-0.017s0.282-0.014,0.408-0.024c0.126-0.012,0.23-0.02,0.313-0.025h0.025c0.104,0,0.157,0.045,0.157,0.133
						v0.631c0,0.066-0.011,0.116-0.033,0.149s-0.069,0.059-0.14,0.075c-0.264,0.066-0.522,0.116-0.775,0.149
						c-0.252,0.033-0.558,0.05-0.915,0.05c-0.248,0-0.495-0.036-0.742-0.107c-0.247-0.071-0.47-0.189-0.667-0.354
						s-0.357-0.383-0.478-0.655c-0.121-0.271-0.181-0.605-0.181-1.001v-0.577c0-0.33,0.046-0.629,0.14-0.898
						c0.093-0.27,0.229-0.497,0.408-0.685c0.179-0.187,0.397-0.331,0.655-0.433s0.552-0.152,0.882-0.152
						c0.341,0,0.638,0.055,0.89,0.165c0.253,0.109,0.464,0.261,0.635,0.453s0.298,0.42,0.383,0.685
						c0.085,0.264,0.128,0.552,0.128,0.865v0.478C580.042-192.857,579.985-192.791,579.869-192.791z M578.74-193.648
						c0-0.308-0.066-0.537-0.198-0.688c-0.132-0.15-0.313-0.227-0.544-0.227c-0.23,0-0.415,0.077-0.552,0.231
						c-0.138,0.153-0.207,0.382-0.207,0.684v0.033h1.5V-193.648z"/>
					<path class="st6" d="M584.769-192.024c-0.09,0.264-0.222,0.487-0.396,0.672c-0.173,0.184-0.387,0.327-0.643,0.429
						c-0.255,0.102-0.551,0.152-0.886,0.152c-0.335,0-0.631-0.051-0.886-0.152s-0.471-0.245-0.647-0.429
						c-0.176-0.185-0.309-0.408-0.4-0.672c-0.09-0.264-0.136-0.561-0.136-0.891v-0.577c0-0.329,0.045-0.626,0.136-0.89
						c0.091-0.264,0.224-0.487,0.4-0.672c0.176-0.184,0.392-0.327,0.647-0.429s0.551-0.152,0.886-0.152
						c0.335,0,0.63,0.051,0.886,0.152c0.256,0.102,0.47,0.245,0.643,0.429c0.173,0.185,0.305,0.408,0.396,0.672
						c0.091,0.264,0.136,0.561,0.136,0.89v0.577C584.906-192.585,584.86-192.288,584.769-192.024z M583.57-193.492
						c0-0.67-0.242-1.005-0.725-1.005c-0.239,0-0.421,0.084-0.546,0.251c-0.125,0.168-0.188,0.419-0.188,0.754v0.577
						c0,0.336,0.062,0.588,0.188,0.759c0.125,0.17,0.307,0.255,0.546,0.255c0.483,0,0.725-0.338,0.725-1.014V-193.492z"/>
					<path class="st6" d="M589.331-191.341c-0.341,0.38-0.86,0.569-1.558,0.569c-0.083,0-0.186-0.006-0.309-0.017
						c-0.124-0.012-0.246-0.024-0.367-0.041v1.426c0,0.044-0.016,0.082-0.049,0.115c-0.033,0.033-0.071,0.05-0.115,0.05h-0.998
						c-0.044,0-0.083-0.017-0.119-0.05c-0.036-0.033-0.054-0.071-0.054-0.115v-5.778c0-0.065,0.015-0.115,0.045-0.148
						c0.03-0.032,0.1-0.062,0.21-0.091c0.236-0.06,0.508-0.111,0.816-0.152s0.621-0.062,0.94-0.062c0.67,0,1.183,0.185,1.537,0.552
						c0.354,0.369,0.532,0.888,0.532,1.559v0.643C589.843-192.233,589.672-191.719,589.331-191.341z M588.507-193.519
						c0-0.147-0.011-0.282-0.033-0.402c-0.022-0.121-0.06-0.227-0.115-0.316c-0.055-0.091-0.129-0.16-0.223-0.21
						c-0.093-0.049-0.214-0.074-0.362-0.074c-0.138,0-0.265,0.005-0.383,0.013c-0.118,0.009-0.216,0.018-0.293,0.029v2.563
						c0.099,0.011,0.212,0.021,0.338,0.032c0.126,0.012,0.239,0.017,0.338,0.017c0.148,0,0.269-0.025,0.362-0.078
						c0.094-0.052,0.168-0.123,0.223-0.214c0.055-0.09,0.093-0.196,0.115-0.32c0.022-0.123,0.033-0.256,0.033-0.398V-193.519z"/>
					<path class="st6" d="M591.973-190.899c-0.03,0.036-0.067,0.054-0.111,0.054h-1.006c-0.044,0-0.083-0.018-0.119-0.054
						c-0.036-0.036-0.054-0.075-0.054-0.119v-5.984c0-0.044,0.018-0.082,0.054-0.115c0.036-0.033,0.075-0.05,0.119-0.05h1.006
						c0.044,0,0.081,0.017,0.111,0.05c0.03,0.033,0.045,0.071,0.045,0.115v5.984C592.018-190.974,592.003-190.935,591.973-190.899z"
						/>
					<path class="st6" d="M596.832-192.791h-2.629v0.017c0,0.114,0.014,0.226,0.042,0.335c0.027,0.108,0.074,0.204,0.14,0.285
						c0.066,0.082,0.152,0.147,0.26,0.196c0.107,0.049,0.243,0.073,0.408,0.073c0.132,0,0.272-0.002,0.42-0.008
						s0.295-0.011,0.441-0.017s0.282-0.014,0.408-0.024c0.126-0.012,0.23-0.02,0.313-0.025h0.025c0.104,0,0.157,0.045,0.157,0.133
						v0.631c0,0.066-0.011,0.116-0.033,0.149s-0.069,0.059-0.14,0.075c-0.264,0.066-0.522,0.116-0.775,0.149
						c-0.252,0.033-0.558,0.05-0.915,0.05c-0.248,0-0.495-0.036-0.742-0.107c-0.247-0.071-0.47-0.189-0.667-0.354
						s-0.357-0.383-0.478-0.655c-0.121-0.271-0.181-0.605-0.181-1.001v-0.577c0-0.33,0.046-0.629,0.14-0.898
						c0.093-0.27,0.229-0.497,0.408-0.685c0.179-0.187,0.397-0.331,0.655-0.433s0.552-0.152,0.882-0.152
						c0.341,0,0.638,0.055,0.89,0.165c0.253,0.109,0.464,0.261,0.635,0.453s0.298,0.42,0.383,0.685
						c0.085,0.264,0.128,0.552,0.128,0.865v0.478C597.005-192.857,596.948-192.791,596.832-192.791z M595.703-193.648
						c0-0.308-0.066-0.537-0.198-0.688c-0.132-0.15-0.313-0.227-0.544-0.227c-0.23,0-0.415,0.077-0.552,0.231
						c-0.138,0.153-0.207,0.382-0.207,0.684v0.033h1.5V-193.648z"/>
				</g>
			</g>
			<path class="st6" d="M600.301-194.42c0.002-0.113,0.096-0.205,0.209-0.203l0.871,0.013c0.113,0.002,0.271,0.069,0.35,0.151
				l1.256,1.292c0.079,0.081,0.077,0.212-0.004,0.291l-1.292,1.256c-0.081,0.079-0.241,0.142-0.354,0.141l-0.871-0.013
				c-0.113-0.002-0.205-0.096-0.203-0.209l0.009-0.593c0.002-0.113,0.069-0.271,0.151-0.35l0.273-0.265
				c0.081-0.079,0.083-0.21,0.004-0.291l-0.265-0.273c-0.079-0.081-0.142-0.241-0.141-0.354L600.301-194.42z"/>
			<path class="st6" d="M652.95-194.42c0.002-0.113,0.096-0.205,0.209-0.203l0.871,0.013c0.113,0.002,0.271,0.069,0.35,0.151
				l1.255,1.292c0.079,0.081,0.077,0.212-0.004,0.291l-1.292,1.256c-0.081,0.079-0.241,0.142-0.354,0.141l-0.871-0.013
				c-0.113-0.002-0.205-0.096-0.203-0.209l0.008-0.593c0.002-0.113,0.07-0.271,0.151-0.35l0.273-0.265
				c0.081-0.079,0.083-0.21,0.004-0.291l-0.265-0.273c-0.079-0.081-0.142-0.241-0.141-0.354L652.95-194.42z"/>
		</g>
	</g>
</g>
<g>
	<g>
		<g>
			<rect x="589.653" y="-144.784" class="st11" width="16.22" height="19.904"/>
			<path class="st6" d="M609.763-144.88c0-2.102-1.897-4-4-4h-16c-2.103,0-4,1.898-4,4v16c0,2.102,1.897,4,4,4h8v-9.066h-2.934v-4
				h2.934v-1.559c0-2.688,2.018-5.108,4.5-5.108h3.233v4h-3.233c-0.354,0-0.767,0.43-0.767,1.073v1.594h4v4h-4v9.066h4.267
				c2.103,0,4-1.898,4-4V-144.88z M609.763-144.88"/>
		</g>
	</g>
</g>
<rect x="616.826" y="-146.918" class="st11" width="19.904" height="19.904"/>
<g>
	<g>
		<path class="st6" d="M628.27-138.057h0.02v-0.03C628.28-138.077,628.28-138.067,628.27-138.057z M628.27-138.057h0.02v-0.03
			C628.28-138.077,628.28-138.067,628.27-138.057z M628.27-138.057h0.02v-0.03C628.28-138.077,628.28-138.067,628.27-138.057z
			 M628.27-138.057h0.02v-0.03C628.28-138.077,628.28-138.067,628.27-138.057z M635.41-148.877h-16c-2.1,0-4,1.9-4,4v16
			c0,2.06,1.83,3.93,3.89,3.99v0.01h16.22v-0.01c1.93-0.05,3.66-1.7,3.87-3.6v-16.78C639.17-147.207,637.39-148.877,635.41-148.877z
			 M622.66-128.787h-3.62v-10.84h3.62V-128.787z M620.85-141.107h-0.02c-0.65,0-1.18-0.24-1.53-0.62c-0.31-0.33-0.48-0.77-0.48-1.25
			c0-0.48,0.17-0.91,0.48-1.24c0.25-0.28,0.61-0.49,1.05-0.57c0.16-0.04,0.34-0.06,0.52-0.06s0.36,0.02,0.52,0.06
			c0.93,0.19,1.49,0.91,1.51,1.81C622.9-141.937,622.11-141.107,620.85-141.107z M635.74-128.787h-3.63v-5.8
			c0-1.46-0.53-2.45-1.84-2.45c-1,0-1.59,0.67-1.86,1.32c-0.09,0.23-0.12,0.55-0.12,0.87v6.06h-3.62c0,0,0.01-2.53,0.01-5.16
			c0.01-1.44,0.01-2.9,0-4c0.01-0.84,0-1.46-0.01-1.68h3.62v1.54c0.46-0.69,1.24-1.65,2.9-1.78c0.12-0.01,0.24-0.01,0.37-0.01
			c1.52,0,2.79,0.62,3.52,1.93c0.03,0.04,0.05,0.09,0.07,0.14c0.16,0.29,0.28,0.62,0.37,0.98c0.14,0.53,0.22,1.14,0.22,1.82
			V-128.787z M628.29-138.057v-0.03c-0.01,0.01-0.01,0.02-0.02,0.03H628.29z M628.27-138.057h0.02v-0.03
			C628.28-138.077,628.28-138.067,628.27-138.057z M628.27-138.057h0.02v-0.03C628.28-138.077,628.28-138.067,628.27-138.057z"/>
	</g>
</g>
<path class="st6" d="M665.4-148.857c-0.11-0.02-0.21-0.02-0.32-0.02h-16c-0.13,0-0.26,0.01-0.39,0.02
	c-1.94,0.22-3.61,2.01-3.61,3.98v16c0,1.46,0.92,2.82,2.19,3.53c0.01-0.01,0.01-0.01,0.01,0c0.19,0.09,0.38,0.18,0.57,0.25
	c0.08,0.03,0.17,0.06,0.26,0.08s0.19,0.04,0.28,0.06c0.12,0.02,0.25,0.04,0.37,0.05c0.07,0.01,0.14,0.02,0.21,0.02v0.01h16.22v-0.01
	c0.15,0,0.29-0.02,0.43-0.04v-0.02c1.85-0.32,3.39-2.04,3.39-3.93v-16C669.01-146.847,667.34-148.637,665.4-148.857z"/>
<g>
	<g id="AAFe4s.tif">
		<g>
			<path class="st11" d="M657.025-145.456c1.157,0.02,2.315,0.03,3.472,0.063c1.01,0.029,1.989,0.209,2.865,0.749
				c1.14,0.703,1.807,1.739,2.069,3.041c0.2,0.993,0.186,2.001,0.191,3.007c0.007,1.498,0.008,2.995-0.014,4.493
				c-0.013,0.904-0.04,1.811-0.344,2.68c-0.584,1.673-1.768,2.659-3.484,3.017c-0.991,0.207-2.001,0.186-3.006,0.191
				c-1.491,0.007-2.983,0.008-4.474-0.014c-0.91-0.013-1.823-0.041-2.699-0.347c-1.666-0.583-2.646-1.765-3.007-3.472
				c-0.209-0.991-0.187-2.001-0.192-3.006c-0.007-1.497-0.008-2.995,0.014-4.493c0.013-0.904,0.04-1.811,0.344-2.68
				c0.584-1.673,1.768-2.658,3.484-3.017c0.997-0.208,2.014-0.178,3.025-0.192c0.585-0.008,1.17-0.002,1.756-0.002
				C657.025-145.445,657.025-145.451,657.025-145.456z M657.014-143.903c0,0.005,0,0.011,0,0.016c-0.277,0-0.554-0.007-0.83,0.001
				c-1.111,0.035-2.226,0.034-3.333,0.124c-1.418,0.115-2.425,1.016-2.702,2.407c-0.128,0.642-0.164,1.309-0.175,1.966
				c-0.027,1.572-0.03,3.145-0.01,4.717c0.009,0.746,0.035,1.5,0.154,2.234c0.207,1.274,0.951,2.113,2.223,2.453
				c0.695,0.186,1.407,0.191,2.114,0.2c1.566,0.021,3.133,0.028,4.698,0.008c0.752-0.009,1.513-0.034,2.253-0.155
				c1.273-0.208,2.112-0.953,2.45-2.226c0.183-0.689,0.19-1.394,0.199-2.096c0.02-1.585,0.027-3.17,0.008-4.755
				c-0.009-0.733-0.037-1.474-0.152-2.196c-0.203-1.276-0.942-2.133-2.217-2.453c-0.435-0.109-0.891-0.164-1.34-0.18
				C659.24-143.879,658.127-143.884,657.014-143.903z"/>
			<path class="st11" d="M661.433-136.814c0,2.457-1.973,4.41-4.453,4.41c-2.445-0.001-4.393-1.984-4.39-4.472
				c0.003-2.413,2.02-4.401,4.471-4.377C659.474-141.228,661.433-139.259,661.433-136.814z M657.02-133.956
				c1.578-0.005,2.866-1.3,2.862-2.878c-0.004-1.577-1.302-2.868-2.878-2.862c-1.579,0.006-2.866,1.3-2.862,2.878
				C654.146-135.241,655.443-133.951,657.02-133.956z"/>
			<path class="st11" d="M661.631-142.456c0.574,0.004,1.013,0.458,1.011,1.042c-0.002,0.568-0.471,1.035-1.033,1.03
				c-0.574-0.005-1.049-0.486-1.039-1.052C660.58-142.013,661.044-142.46,661.631-142.456z"/>
		</g>
	</g>
</g>
<circle class="st9" cx="242.527" cy="31.787" r="23.019"/>
<g>
	<path class="st8" d="M242.527,6.602v25.185h25.185C267.711,17.878,256.436,6.602,242.527,6.602z"/>
</g>
<rect x="224.891" y="63.953" class="st9" width="36.5" height="3.5"/>
<rect x="224.891" y="63.953" class="st8" width="9.438" height="3.5"/>
<circle class="st21" cx="175.86" cy="31.787" r="23.019"/>
<g>
	<path class="st22" d="M175.86,6.602v25.185h25.185C201.044,17.878,189.769,6.602,175.86,6.602z"/>
</g>
<rect x="158.225" y="63.953" class="st21" width="36.5" height="3.5"/>
<rect x="158.225" y="63.953" class="st22" width="17.635" height="3.5"/>
<g>
	<path class="st22" d="M175.86,56.971V31.787h25.185C201.044,45.696,189.769,56.971,175.86,56.971z"/>
</g>
<rect x="157.225" y="104.203" class="st21" width="10.911" height="15.75"/>
<rect x="176.094" y="89.564" class="st21" width="10.911" height="30.39"/>
<rect x="194.963" y="91.678" class="st21" width="10.911" height="28.275"/>
<rect x="213.833" y="83.453" class="st21" width="10.911" height="36.5"/>
<rect x="232.702" y="80.436" class="st21" width="10.911" height="39.518"/>
<rect x="251.571" y="88.015" class="st21" width="10.911" height="31.938"/>
<line class="st23" x1="152.841" y1="108.018" x2="267.711" y2="81.453"/>
<line class="st24" x1="152.841" y1="119.953" x2="267.711" y2="119.953"/>
<g>
	<defs>
		<rect id="SVGID_14_" x="4.255" y="4.083" width="121.491" height="80.5"/>
	</defs>
	<clipPath id="SVGID_15_">
		<use xlink:href="#SVGID_14_"  style="overflow:visible;"/>
	</clipPath>
	<g id="GjSVZ6.tif_1_" class="st25">
		
			<image style="overflow:visible;" width="650" height="553" id="Layer_0_9_" xlink:href="8907C239716CB5DB.png"  transform="matrix(0.5083 0 0 0.5083 -66.1515 -24.1024)">
		</image>
	</g>
</g>
<rect x="10.514" y="19.083" class="st26" width="29.24" height="7"/>
<rect x="68.245" y="89.253" class="st27" width="57.5" height="36.66"/>
<g>
	<path class="st28" d="M50.755,107.75c-2.181-1.023-3.806-2.367-6.167-2c-2.583,0.401-2.831,2.351-5.5,3.667
		c-3.921,1.933-5.841-1.063-11.5-0.167c-4.215,0.668-7.389,3.002-10.333,5.167c-4.255,3.129-4.348,4.665-6.833,5.5
		c-1.447,0.486-3.438,0.64-6.167-0.336v6.336h57.5v-16.673C56.677,109.803,53.143,108.87,50.755,107.75z"/>
	<path class="st29" d="M61.755,89.253v19.99c-5.08,0.56-8.61-0.37-11-1.49c-2.18-1.03-3.81-2.37-6.17-2
		c-2.58,0.4-2.83,2.35-5.5,3.66c-3.92,1.94-5.84-1.06-11.5-0.16c-4.21,0.66-7.39,3-10.33,5.16c-4.25,3.13-4.35,4.67-6.83,5.5
		c-1.45,0.49-3.44,0.64-6.17-0.33v-30.33H61.755z"/>
</g>
<g>
	<path class="st11" d="M32.08,111.254c0,0.098-0.007,0.184-0.021,0.26c-0.013,0.076-0.032,0.14-0.057,0.19
		c-0.024,0.052-0.057,0.09-0.097,0.114c-0.041,0.024-0.085,0.036-0.134,0.036h-5.803c-0.076,0-0.142-0.01-0.199-0.028
		c-0.057-0.019-0.105-0.05-0.146-0.094c-0.041-0.043-0.07-0.105-0.089-0.187s-0.028-0.181-0.028-0.3
		c0-0.108,0.004-0.203,0.013-0.284s0.026-0.153,0.054-0.216c0.028-0.062,0.063-0.124,0.104-0.187
		c0.042-0.062,0.096-0.128,0.163-0.198l2.1-2.159c0.485-0.498,0.874-0.944,1.167-1.34c0.293-0.395,0.519-0.755,0.678-1.079
		c0.159-0.325,0.263-0.62,0.313-0.885c0.05-0.266,0.076-0.514,0.076-0.747c0-0.232-0.04-0.453-0.118-0.661s-0.191-0.391-0.339-0.548
		s-0.334-0.281-0.557-0.374c-0.223-0.092-0.48-0.138-0.771-0.138c-0.341,0-0.646,0.046-0.917,0.138
		c-0.271,0.093-0.508,0.192-0.712,0.301c-0.204,0.108-0.375,0.208-0.511,0.3c-0.137,0.093-0.238,0.139-0.306,0.139
		c-0.039,0-0.074-0.011-0.104-0.032c-0.031-0.022-0.056-0.058-0.075-0.106c-0.02-0.048-0.035-0.113-0.046-0.194
		s-0.017-0.179-0.017-0.292c0-0.081,0.002-0.151,0.008-0.211c0.005-0.06,0.015-0.111,0.028-0.154
		c0.013-0.044,0.031-0.084,0.053-0.122c0.021-0.038,0.065-0.085,0.13-0.142c0.065-0.058,0.177-0.135,0.337-0.231
		c0.159-0.098,0.36-0.193,0.601-0.288s0.506-0.175,0.795-0.24c0.29-0.064,0.594-0.097,0.913-0.097c0.509,0,0.954,0.071,1.335,0.215
		c0.381,0.144,0.698,0.34,0.95,0.589c0.251,0.249,0.439,0.538,0.564,0.868s0.187,0.682,0.187,1.055c0,0.336-0.03,0.67-0.089,1.003
		s-0.185,0.692-0.377,1.079c-0.192,0.388-0.469,0.817-0.832,1.291c-0.362,0.474-0.844,1.019-1.444,1.636l-1.664,1.736h4.57
		c0.043,0,0.085,0.013,0.125,0.037s0.076,0.061,0.105,0.109s0.052,0.109,0.065,0.183C32.073,111.072,32.08,111.157,32.08,111.254z"
		/>
	<path class="st11" d="M40.773,108.453c0,0.46-0.071,0.905-0.211,1.336c-0.141,0.43-0.357,0.809-0.649,1.136
		c-0.292,0.328-0.663,0.59-1.112,0.788c-0.449,0.197-0.979,0.296-1.591,0.296c-0.438,0-0.825-0.055-1.161-0.162
		c-0.336-0.108-0.628-0.263-0.877-0.463c-0.249-0.2-0.456-0.446-0.621-0.738c-0.165-0.293-0.298-0.625-0.398-0.999
		c-0.1-0.373-0.172-0.781-0.215-1.226c-0.043-0.443-0.065-0.92-0.065-1.429c0-0.449,0.024-0.903,0.073-1.363
		c0.049-0.46,0.135-0.903,0.26-1.331s0.293-0.829,0.507-1.205c0.214-0.377,0.481-0.704,0.804-0.982
		c0.322-0.279,0.708-0.499,1.157-0.662c0.449-0.162,0.971-0.243,1.566-0.243c0.2,0,0.403,0.013,0.609,0.036
		c0.206,0.024,0.395,0.058,0.568,0.098c0.173,0.041,0.319,0.085,0.438,0.134s0.198,0.088,0.235,0.118
		c0.038,0.029,0.066,0.062,0.085,0.098c0.019,0.035,0.034,0.072,0.044,0.113s0.019,0.087,0.024,0.138
		c0.005,0.052,0.008,0.115,0.008,0.191c0,0.097-0.001,0.181-0.004,0.251c-0.002,0.07-0.013,0.128-0.032,0.171
		s-0.043,0.075-0.073,0.098c-0.03,0.021-0.069,0.032-0.118,0.032c-0.06,0-0.141-0.02-0.243-0.057
		c-0.103-0.038-0.228-0.08-0.374-0.126s-0.323-0.088-0.532-0.126s-0.451-0.057-0.727-0.057c-0.503,0-0.936,0.103-1.299,0.309
		c-0.362,0.205-0.659,0.481-0.889,0.827c-0.23,0.347-0.4,0.749-0.511,1.206s-0.174,0.935-0.191,1.433
		c0.141-0.081,0.299-0.163,0.475-0.244s0.368-0.154,0.576-0.219c0.208-0.065,0.429-0.118,0.662-0.158
		c0.232-0.041,0.481-0.061,0.747-0.061c0.568,0,1.047,0.076,1.437,0.23c0.389,0.154,0.705,0.368,0.945,0.642
		s0.413,0.596,0.516,0.966C40.721,107.619,40.773,108.021,40.773,108.453z M39.36,108.583c0-0.313-0.031-0.599-0.093-0.855
		c-0.062-0.258-0.167-0.476-0.312-0.654c-0.146-0.178-0.341-0.316-0.584-0.413c-0.244-0.098-0.544-0.146-0.901-0.146
		c-0.2,0-0.4,0.018-0.601,0.053s-0.394,0.084-0.581,0.146c-0.187,0.062-0.365,0.135-0.536,0.219s-0.326,0.175-0.467,0.271
		c0,0.698,0.045,1.283,0.134,1.754c0.089,0.471,0.219,0.848,0.39,1.132s0.383,0.487,0.637,0.609
		c0.254,0.121,0.552,0.183,0.893,0.183c0.346,0,0.646-0.065,0.901-0.195s0.465-0.305,0.633-0.523
		c0.167-0.219,0.291-0.465,0.369-0.738S39.36,108.87,39.36,108.583z"/>
</g>
<polygon class="st30" points="125.745,89.253 125.745,100.313 120.925,102.413 118.255,105.683 114.755,114.413 109.755,118.413 
	104.425,115.803 101.425,110.523 98.085,108.583 91.925,107.583 86.255,108.913 80.925,106.753 79.425,100.753 76.255,105.683 
	74.425,110.913 68.245,118.013 68.245,89.253 "/>
<g>
	<path class="st11" d="M91.881,111.303c0,0.103-0.008,0.189-0.024,0.26s-0.038,0.127-0.065,0.17
		c-0.027,0.044-0.058,0.075-0.093,0.094s-0.072,0.028-0.11,0.028h-5.487c-0.038,0-0.073-0.01-0.105-0.028
		c-0.033-0.019-0.063-0.05-0.093-0.094c-0.03-0.043-0.053-0.1-0.069-0.17c-0.016-0.07-0.024-0.157-0.024-0.26
		c0-0.098,0.008-0.182,0.024-0.252c0.017-0.07,0.037-0.128,0.061-0.175c0.024-0.046,0.054-0.081,0.089-0.105
		s0.074-0.036,0.118-0.036h2.191v-7.987l-2.029,1.21c-0.103,0.054-0.185,0.086-0.248,0.097c-0.062,0.012-0.112-0.001-0.15-0.036
		c-0.038-0.035-0.063-0.094-0.077-0.175s-0.021-0.184-0.021-0.308c0-0.093,0.004-0.171,0.012-0.236
		c0.008-0.064,0.021-0.118,0.037-0.162c0.016-0.043,0.039-0.081,0.069-0.113c0.029-0.032,0.069-0.065,0.118-0.098l2.418-1.55
		c0.021-0.017,0.049-0.03,0.082-0.041c0.032-0.011,0.073-0.021,0.122-0.032s0.105-0.018,0.17-0.021s0.146-0.004,0.244-0.004
		c0.13,0,0.238,0.005,0.325,0.016c0.086,0.012,0.154,0.026,0.203,0.045c0.049,0.02,0.081,0.044,0.098,0.073
		c0.016,0.03,0.024,0.061,0.024,0.094v9.229h1.899c0.043,0,0.084,0.012,0.122,0.036c0.038,0.024,0.069,0.06,0.093,0.105
		c0.024,0.047,0.043,0.104,0.057,0.175C91.874,111.121,91.881,111.205,91.881,111.303z"/>
	<path class="st11" d="M100.631,106.578c0,0.807-0.064,1.543-0.191,2.208c-0.127,0.666-0.338,1.238-0.633,1.717
		c-0.295,0.479-0.681,0.85-1.157,1.112c-0.477,0.263-1.063,0.394-1.762,0.394c-0.66,0-1.216-0.118-1.668-0.354
		c-0.452-0.235-0.815-0.581-1.092-1.039c-0.276-0.457-0.472-1.02-0.588-1.688c-0.116-0.669-0.174-1.436-0.174-2.302
		c0-0.801,0.065-1.535,0.195-2.203c0.13-0.669,0.341-1.242,0.633-1.721c0.292-0.479,0.677-0.85,1.153-1.112s1.061-0.394,1.753-0.394
		c0.666,0,1.224,0.117,1.676,0.353c0.452,0.235,0.816,0.582,1.092,1.039c0.276,0.458,0.472,1.021,0.588,1.688
		C100.573,104.946,100.631,105.713,100.631,106.578z M99.203,106.676c0-0.524-0.019-0.995-0.057-1.412
		c-0.038-0.417-0.093-0.784-0.167-1.104s-0.168-0.595-0.284-0.824c-0.116-0.23-0.256-0.419-0.418-0.568
		c-0.162-0.148-0.348-0.257-0.556-0.324c-0.208-0.068-0.442-0.102-0.702-0.102c-0.46,0-0.833,0.108-1.12,0.324
		c-0.287,0.217-0.513,0.515-0.678,0.893c-0.165,0.379-0.277,0.823-0.337,1.332c-0.06,0.508-0.089,1.055-0.089,1.64
		c0,0.784,0.041,1.451,0.122,2c0.081,0.55,0.209,0.997,0.386,1.344c0.176,0.347,0.4,0.598,0.673,0.755
		c0.273,0.157,0.605,0.235,0.995,0.235c0.303,0,0.569-0.049,0.799-0.146c0.23-0.097,0.427-0.236,0.593-0.418
		c0.165-0.181,0.301-0.398,0.41-0.653c0.108-0.254,0.195-0.535,0.26-0.844s0.109-0.643,0.134-1.003
		C99.19,107.441,99.203,107.066,99.203,106.676z"/>
	<path class="st11" d="M109.154,108.867c0,0.179-0.027,0.319-0.081,0.423c-0.054,0.103-0.13,0.153-0.227,0.153h-1.185v2.208
		c0,0.044-0.011,0.08-0.034,0.109c-0.022,0.03-0.061,0.056-0.117,0.077c-0.056,0.021-0.128,0.038-0.217,0.049
		s-0.204,0.017-0.343,0.017c-0.134,0-0.245-0.006-0.334-0.017c-0.089-0.011-0.16-0.027-0.213-0.049
		c-0.053-0.021-0.089-0.047-0.109-0.077c-0.02-0.029-0.029-0.065-0.029-0.109v-2.208h-4.297c-0.064,0-0.118-0.008-0.161-0.024
		c-0.043-0.016-0.082-0.046-0.117-0.089c-0.035-0.043-0.059-0.105-0.072-0.187c-0.014-0.081-0.02-0.187-0.02-0.316
		c0-0.103,0.002-0.195,0.008-0.276s0.016-0.155,0.032-0.223c0.016-0.068,0.038-0.133,0.064-0.195
		c0.026-0.062,0.059-0.128,0.096-0.199l3.744-6.38c0.027-0.043,0.067-0.081,0.12-0.113c0.052-0.032,0.12-0.06,0.203-0.081
		c0.083-0.021,0.185-0.036,0.306-0.045c0.122-0.008,0.265-0.012,0.43-0.012c0.182,0,0.341,0.007,0.476,0.021
		c0.135,0.013,0.244,0.031,0.327,0.053s0.146,0.05,0.19,0.085s0.066,0.077,0.066,0.126v6.704h1.185c0.092,0,0.166,0.048,0.223,0.143
		C109.125,108.529,109.154,108.673,109.154,108.867z M106.264,102.529h-0.016l-3.377,5.763h3.393V102.529z"/>
</g>
</svg>
