<?xml version="1.0" encoding="utf-8"?>
<!-- Generator: Adobe Illustrator 20.1.0, SVG Export Plug-In . SVG Version: 6.00 Build 0)  -->
<svg version="1.1" id="Layer_1" xmlns="http://www.w3.org/2000/svg" xmlns:xlink="http://www.w3.org/1999/xlink" x="0px" y="0px"
	 viewBox="0 0 600 600" style="enable-background:new 0 0 600 600;" xml:space="preserve">
<style type="text/css">
	.st0{opacity:0.06;clip-path:url(#SVGID_2_);}
	.st1{fill:none;stroke:#2E517A;stroke-miterlimit:10;}
	.st2{clip-path:url(#SVGID_2_);fill:#FFFFFF;}
	.st3{opacity:0.06;clip-path:url(#SVGID_4_);}
	.st4{clip-path:url(#SVGID_6_);}
	.st5{opacity:0.06;clip-path:url(#SVGID_8_);}
	.st6{fill:#2E517A;}
	.st7{fill:#3E5B70;}
	.st8{fill:#EC6231;}
	.st9{fill:#DF2424;}
	.st10{fill:#DF7B72;}
	.st11{fill:#FFFFFF;}
	.st12{fill:#414750;}
	.st13{fill:#252629;}
	.st14{fill:#E7E8E8;}
	.st15{fill:#1F2121;}
	.st16{fill:#050708;}
	.st17{fill:#41474F;}
	.st18{fill:url(#SVGID_11_);}
	.st19{fill:url(#SVGID_12_);}
	.st20{fill:url(#SVGID_13_);}
</style>
<g>
	<defs>
		<rect id="SVGID_1_" width="600" height="600"/>
	</defs>
	<clipPath id="SVGID_2_">
		<use xlink:href="#SVGID_1_"  style="overflow:visible;"/>
	</clipPath>
	<g class="st0">
		<line class="st1" x1="618.775" y1="-38.853" x2="-138.006" y2="717.928"/>
		<line class="st1" x1="598.778" y1="-38.853" x2="-158.003" y2="717.928"/>
		<line class="st1" x1="578.781" y1="-38.853" x2="-178" y2="717.928"/>
		<line class="st1" x1="558.784" y1="-38.853" x2="-197.997" y2="717.928"/>
		<line class="st1" x1="538.787" y1="-38.853" x2="-217.994" y2="717.928"/>
		<line class="st1" x1="518.79" y1="-38.853" x2="-237.991" y2="717.928"/>
		<line class="st1" x1="505.459" y1="-38.853" x2="-251.322" y2="717.928"/>
		<line class="st1" x1="492.128" y1="-38.853" x2="-264.653" y2="717.928"/>
		<line class="st1" x1="478.797" y1="-38.853" x2="-277.984" y2="717.928"/>
		<line class="st1" x1="465.465" y1="-38.853" x2="-291.316" y2="717.928"/>
		<line class="st1" x1="452.134" y1="-38.853" x2="-304.647" y2="717.928"/>
		<line class="st1" x1="438.803" y1="-38.853" x2="-317.978" y2="717.928"/>
		<line class="st1" x1="425.472" y1="-38.853" x2="-331.309" y2="717.928"/>
		<line class="st1" x1="412.141" y1="-38.853" x2="-344.641" y2="717.928"/>
		<line class="st1" x1="398.809" y1="-38.853" x2="-357.972" y2="717.928"/>
		<line class="st1" x1="385.478" y1="-38.853" x2="-371.303" y2="717.928"/>
		<line class="st1" x1="372.147" y1="-38.853" x2="-384.634" y2="717.928"/>
		<line class="st1" x1="358.816" y1="-38.853" x2="-397.965" y2="717.928"/>
		<line class="st1" x1="345.484" y1="-38.853" x2="-411.297" y2="717.928"/>
		<line class="st1" x1="332.153" y1="-38.853" x2="-424.628" y2="717.928"/>
		<line class="st1" x1="318.822" y1="-38.853" x2="-437.959" y2="717.928"/>
		<line class="st1" x1="305.491" y1="-38.853" x2="-451.29" y2="717.928"/>
		<line class="st1" x1="292.159" y1="-38.853" x2="-464.622" y2="717.928"/>
		<line class="st1" x1="278.828" y1="-38.853" x2="-477.953" y2="717.928"/>
		<line class="st1" x1="265.497" y1="-38.853" x2="-491.284" y2="717.928"/>
		<line class="st1" x1="252.166" y1="-38.853" x2="-504.615" y2="717.928"/>
		<line class="st1" x1="238.834" y1="-38.853" x2="-517.947" y2="717.928"/>
		<line class="st1" x1="225.503" y1="-38.853" x2="-531.278" y2="717.928"/>
		<line class="st1" x1="218.838" y1="-38.853" x2="-537.943" y2="717.928"/>
		<line class="st1" x1="212.172" y1="-38.853" x2="-544.609" y2="717.928"/>
		<line class="st1" x1="205.506" y1="-38.853" x2="-551.275" y2="717.928"/>
		<line class="st1" x1="198.841" y1="-38.853" x2="-557.94" y2="717.928"/>
		<line class="st1" x1="192.175" y1="-38.853" x2="-564.606" y2="717.928"/>
		<line class="st1" x1="185.509" y1="-38.853" x2="-571.271" y2="717.928"/>
		<line class="st1" x1="178.844" y1="-38.853" x2="-577.937" y2="717.928"/>
		<line class="st1" x1="172.178" y1="-38.853" x2="-584.603" y2="717.928"/>
		<line class="st1" x1="165.513" y1="-38.853" x2="-591.268" y2="717.928"/>
		<line class="st1" x1="158.847" y1="-38.853" x2="-597.934" y2="717.928"/>
		<line class="st1" x1="152.181" y1="-38.853" x2="-604.6" y2="717.928"/>
		<line class="st1" x1="145.516" y1="-38.853" x2="-611.265" y2="717.928"/>
		<line class="st1" x1="138.85" y1="-38.853" x2="-617.931" y2="717.928"/>
		<line class="st1" x1="132.185" y1="-38.853" x2="-624.596" y2="717.928"/>
		<line class="st1" x1="125.519" y1="-38.853" x2="-631.262" y2="717.928"/>
		<line class="st1" x1="118.853" y1="-38.853" x2="-637.928" y2="717.928"/>
		<line class="st1" x1="112.188" y1="-38.853" x2="-644.593" y2="717.928"/>
		<line class="st1" x1="105.522" y1="-38.853" x2="-651.259" y2="717.928"/>
		<line class="st1" x1="98.856" y1="-38.853" x2="-657.925" y2="717.928"/>
		<line class="st1" x1="92.191" y1="-38.853" x2="-664.59" y2="717.928"/>
		<line class="st1" x1="85.525" y1="-38.853" x2="-671.256" y2="717.928"/>
		<line class="st1" x1="78.86" y1="-38.853" x2="-677.921" y2="717.928"/>
		<line class="st1" x1="72.194" y1="-38.853" x2="-684.587" y2="717.928"/>
		<line class="st1" x1="65.528" y1="-38.853" x2="-691.253" y2="717.928"/>
		<line class="st1" x1="58.863" y1="-38.853" x2="-697.918" y2="717.928"/>
		<line class="st1" x1="52.197" y1="-38.853" x2="-704.584" y2="717.928"/>
		<line class="st1" x1="45.532" y1="-38.853" x2="-711.249" y2="717.928"/>
		<line class="st1" x1="638.771" y1="-38.722" x2="-118.009" y2="718.059"/>
		<line class="st1" x1="998.775" y1="-38.853" x2="241.994" y2="717.928"/>
		<line class="st1" x1="985.442" y1="-38.853" x2="228.661" y2="717.928"/>
		<line class="st1" x1="972.108" y1="-38.853" x2="215.327" y2="717.928"/>
		<line class="st1" x1="958.775" y1="-38.853" x2="201.994" y2="717.928"/>
		<line class="st1" x1="945.442" y1="-38.853" x2="188.661" y2="717.928"/>
		<line class="st1" x1="932.108" y1="-38.853" x2="175.327" y2="717.928"/>
		<line class="st1" x1="918.775" y1="-38.853" x2="161.994" y2="717.928"/>
		<line class="st1" x1="905.441" y1="-38.853" x2="148.66" y2="717.928"/>
		<line class="st1" x1="892.108" y1="-38.853" x2="135.327" y2="717.928"/>
		<line class="st1" x1="878.774" y1="-38.853" x2="121.993" y2="717.928"/>
		<line class="st1" x1="865.441" y1="-38.853" x2="108.66" y2="717.928"/>
		<line class="st1" x1="852.107" y1="-38.853" x2="95.326" y2="717.928"/>
		<line class="st1" x1="838.774" y1="-38.853" x2="81.993" y2="717.928"/>
		<line class="st1" x1="825.44" y1="-38.853" x2="68.659" y2="717.928"/>
		<line class="st1" x1="812.107" y1="-38.853" x2="55.326" y2="717.928"/>
		<line class="st1" x1="798.773" y1="-38.853" x2="41.992" y2="717.928"/>
		<line class="st1" x1="785.44" y1="-38.853" x2="28.659" y2="717.928"/>
		<line class="st1" x1="772.106" y1="-38.853" x2="15.325" y2="717.928"/>
		<line class="st1" x1="758.773" y1="-38.853" x2="1.992" y2="717.928"/>
		<line class="st1" x1="745.439" y1="-38.853" x2="-11.342" y2="717.928"/>
		<line class="st1" x1="732.106" y1="-38.853" x2="-24.675" y2="717.928"/>
		<line class="st1" x1="718.772" y1="-38.853" x2="-38.009" y2="717.928"/>
		<line class="st1" x1="705.439" y1="-38.853" x2="-51.342" y2="717.928"/>
		<line class="st1" x1="692.105" y1="-38.853" x2="-64.676" y2="717.928"/>
		<line class="st1" x1="678.772" y1="-38.853" x2="-78.009" y2="717.928"/>
		<line class="st1" x1="665.438" y1="-38.853" x2="-91.343" y2="717.928"/>
		<line class="st1" x1="652.105" y1="-38.853" x2="-104.676" y2="717.928"/>
		<line class="st1" x1="625.44" y1="-38.853" x2="-131.341" y2="717.928"/>
		<line class="st1" x1="605.443" y1="-38.853" x2="-151.338" y2="717.928"/>
		<line class="st1" x1="585.447" y1="-38.853" x2="-171.334" y2="717.928"/>
		<line class="st1" x1="565.45" y1="-38.853" x2="-191.331" y2="717.928"/>
		<line class="st1" x1="545.453" y1="-38.853" x2="-211.328" y2="717.928"/>
		<line class="st1" x1="525.456" y1="-38.853" x2="-231.325" y2="717.928"/>
		<line class="st1" x1="512.125" y1="-38.853" x2="-244.656" y2="717.928"/>
		<line class="st1" x1="498.794" y1="-38.853" x2="-257.987" y2="717.928"/>
		<line class="st1" x1="485.462" y1="-38.853" x2="-271.319" y2="717.928"/>
		<line class="st1" x1="472.131" y1="-38.853" x2="-284.65" y2="717.928"/>
		<line class="st1" x1="458.8" y1="-38.853" x2="-297.981" y2="717.928"/>
		<line class="st1" x1="445.469" y1="-38.853" x2="-311.312" y2="717.928"/>
		<line class="st1" x1="432.137" y1="-38.853" x2="-324.644" y2="717.928"/>
		<line class="st1" x1="418.806" y1="-38.853" x2="-337.975" y2="717.928"/>
		<line class="st1" x1="405.475" y1="-38.853" x2="-351.306" y2="717.928"/>
		<line class="st1" x1="392.144" y1="-38.853" x2="-364.637" y2="717.928"/>
		<line class="st1" x1="378.812" y1="-38.853" x2="-377.969" y2="717.928"/>
		<line class="st1" x1="365.481" y1="-38.853" x2="-391.3" y2="717.928"/>
		<line class="st1" x1="352.15" y1="-38.853" x2="-404.631" y2="717.928"/>
		<line class="st1" x1="338.819" y1="-38.853" x2="-417.962" y2="717.928"/>
		<line class="st1" x1="325.487" y1="-38.853" x2="-431.294" y2="717.928"/>
		<line class="st1" x1="312.156" y1="-38.853" x2="-444.625" y2="717.928"/>
		<line class="st1" x1="298.825" y1="-38.853" x2="-457.956" y2="717.928"/>
		<line class="st1" x1="285.494" y1="-38.853" x2="-471.287" y2="717.928"/>
		<line class="st1" x1="272.163" y1="-38.853" x2="-484.618" y2="717.928"/>
		<line class="st1" x1="258.831" y1="-38.853" x2="-497.95" y2="717.928"/>
		<line class="st1" x1="245.5" y1="-38.853" x2="-511.281" y2="717.928"/>
		<line class="st1" x1="232.169" y1="-38.853" x2="-524.612" y2="717.928"/>
		<line class="st1" x1="1158.777" y1="-38.853" x2="401.996" y2="717.928"/>
		<line class="st1" x1="1152.11" y1="-38.853" x2="395.329" y2="717.928"/>
		<line class="st1" x1="1145.444" y1="-38.853" x2="388.663" y2="717.928"/>
		<line class="st1" x1="1138.777" y1="-38.853" x2="381.996" y2="717.928"/>
		<line class="st1" x1="1132.11" y1="-38.853" x2="375.329" y2="717.928"/>
		<line class="st1" x1="1125.443" y1="-38.853" x2="368.663" y2="717.928"/>
		<line class="st1" x1="1118.777" y1="-38.853" x2="361.996" y2="717.928"/>
		<line class="st1" x1="1112.11" y1="-38.853" x2="355.329" y2="717.928"/>
		<line class="st1" x1="1105.443" y1="-38.853" x2="348.662" y2="717.928"/>
		<line class="st1" x1="1098.776" y1="-38.853" x2="341.996" y2="717.928"/>
		<line class="st1" x1="1092.11" y1="-38.853" x2="335.329" y2="717.928"/>
		<line class="st1" x1="1085.443" y1="-38.853" x2="328.662" y2="717.928"/>
		<line class="st1" x1="1078.776" y1="-38.853" x2="321.995" y2="717.928"/>
		<line class="st1" x1="1072.11" y1="-38.853" x2="315.329" y2="717.928"/>
		<line class="st1" x1="1238.778" y1="-38.853" x2="481.997" y2="717.928"/>
		<line class="st1" x1="1232.111" y1="-38.853" x2="475.33" y2="717.928"/>
		<line class="st1" x1="1225.445" y1="-38.853" x2="468.664" y2="717.928"/>
		<line class="st1" x1="1218.778" y1="-38.853" x2="461.997" y2="717.928"/>
		<line class="st1" x1="1212.111" y1="-38.853" x2="455.33" y2="717.928"/>
		<line class="st1" x1="1205.444" y1="-38.853" x2="448.663" y2="717.928"/>
		<line class="st1" x1="1198.778" y1="-38.853" x2="441.997" y2="717.928"/>
		<line class="st1" x1="1192.111" y1="-38.853" x2="435.33" y2="717.928"/>
		<line class="st1" x1="1185.444" y1="-38.853" x2="428.663" y2="717.928"/>
		<line class="st1" x1="1178.777" y1="-38.853" x2="421.996" y2="717.928"/>
		<line class="st1" x1="1172.111" y1="-38.853" x2="415.33" y2="717.928"/>
		<line class="st1" x1="1165.444" y1="-38.853" x2="408.663" y2="717.928"/>
		<line class="st1" x1="1065.443" y1="-38.853" x2="308.662" y2="717.928"/>
		<line class="st1" x1="1058.776" y1="-38.853" x2="301.995" y2="717.928"/>
		<line class="st1" x1="1052.109" y1="-38.853" x2="295.328" y2="717.928"/>
		<line class="st1" x1="1045.443" y1="-38.853" x2="288.662" y2="717.928"/>
		<line class="st1" x1="1038.776" y1="-38.853" x2="281.995" y2="717.928"/>
		<line class="st1" x1="1032.109" y1="-38.853" x2="275.328" y2="717.928"/>
		<line class="st1" x1="1025.442" y1="-38.853" x2="268.661" y2="717.928"/>
		<line class="st1" x1="1018.776" y1="-38.853" x2="261.995" y2="717.928"/>
		<line class="st1" x1="1012.109" y1="-38.853" x2="255.328" y2="717.928"/>
		<line class="st1" x1="1005.442" y1="-38.853" x2="248.661" y2="717.928"/>
		<line class="st1" x1="992.109" y1="-38.853" x2="235.328" y2="717.928"/>
		<line class="st1" x1="978.775" y1="-38.853" x2="221.994" y2="717.928"/>
		<line class="st1" x1="965.442" y1="-38.853" x2="208.661" y2="717.928"/>
		<line class="st1" x1="952.108" y1="-38.853" x2="195.327" y2="717.928"/>
		<line class="st1" x1="938.775" y1="-38.853" x2="181.994" y2="717.928"/>
		<line class="st1" x1="925.441" y1="-38.853" x2="168.66" y2="717.928"/>
		<line class="st1" x1="912.108" y1="-38.853" x2="155.327" y2="717.928"/>
		<line class="st1" x1="898.774" y1="-38.853" x2="141.993" y2="717.928"/>
		<line class="st1" x1="885.441" y1="-38.853" x2="128.66" y2="717.928"/>
		<line class="st1" x1="872.107" y1="-38.853" x2="115.326" y2="717.928"/>
		<line class="st1" x1="858.774" y1="-38.853" x2="101.993" y2="717.928"/>
		<line class="st1" x1="845.44" y1="-38.853" x2="88.659" y2="717.928"/>
		<line class="st1" x1="832.107" y1="-38.853" x2="75.326" y2="717.928"/>
		<line class="st1" x1="818.773" y1="-38.853" x2="61.992" y2="717.928"/>
		<line class="st1" x1="805.44" y1="-38.853" x2="48.659" y2="717.928"/>
		<line class="st1" x1="792.107" y1="-38.853" x2="35.326" y2="717.928"/>
		<line class="st1" x1="778.773" y1="-38.853" x2="21.992" y2="717.928"/>
		<line class="st1" x1="765.44" y1="-38.853" x2="8.659" y2="717.928"/>
		<line class="st1" x1="752.106" y1="-38.853" x2="-4.675" y2="717.928"/>
		<line class="st1" x1="738.773" y1="-38.853" x2="-18.008" y2="717.928"/>
		<line class="st1" x1="725.439" y1="-38.853" x2="-31.342" y2="717.928"/>
		<line class="st1" x1="712.106" y1="-38.853" x2="-44.675" y2="717.928"/>
		<line class="st1" x1="698.772" y1="-38.853" x2="-58.009" y2="717.928"/>
		<line class="st1" x1="685.439" y1="-38.853" x2="-71.342" y2="717.928"/>
		<line class="st1" x1="672.105" y1="-38.853" x2="-84.676" y2="717.928"/>
		<line class="st1" x1="658.772" y1="-38.853" x2="-98.009" y2="717.928"/>
		<line class="st1" x1="645.438" y1="-38.853" x2="-111.343" y2="717.928"/>
		<line class="st1" x1="632.106" y1="-38.853" x2="-124.675" y2="717.928"/>
		<line class="st1" x1="612.109" y1="-38.853" x2="-144.672" y2="717.928"/>
		<line class="st1" x1="592.112" y1="-38.853" x2="-164.669" y2="717.928"/>
		<line class="st1" x1="572.115" y1="-38.853" x2="-184.666" y2="717.928"/>
		<line class="st1" x1="552.118" y1="-38.853" x2="-204.663" y2="717.928"/>
		<line class="st1" x1="532.122" y1="-38.853" x2="-224.659" y2="717.928"/>
	</g>
	<path class="st2" d="M255.424-235.274l-16.112-16.112L20.134-32.206c-5.204-2.591-11.068-4.056-17.276-4.056
		c-21.444,0-38.827,17.383-38.827,38.827c0,6.208,1.465,12.072,4.056,17.276l-242.221,242.222l16.112,16.111L-16.224,36.375
		c5.637,3.188,12.144,5.017,19.082,5.017c21.444,0,38.827-17.383,38.827-38.827c0-6.938-1.829-13.446-5.017-19.082L255.424-235.274z
		 M2.858,24.66c-12.203,0-22.095-9.892-22.095-22.095S-9.345-19.53,2.858-19.53S24.954-9.638,24.954,2.565S15.061,24.66,2.858,24.66
		z"/>
	<path class="st2" d="M855.424,364.726l-16.112-16.112L620.134,567.794c-5.204-2.591-11.068-4.056-17.276-4.056
		c-21.444,0-38.827,17.383-38.827,38.827c0,6.208,1.465,12.072,4.056,17.276L325.865,862.062l16.112,16.111l241.799-241.799
		c5.637,3.188,12.144,5.017,19.082,5.017c21.444,0,38.827-17.383,38.827-38.827c0-6.938-1.829-13.446-5.017-19.082L855.424,364.726z
		 M602.858,624.66c-12.203,0-22.095-9.892-22.095-22.095s9.892-22.095,22.095-22.095s22.095,9.892,22.095,22.095
		S615.061,624.66,602.858,624.66z"/>
	<path class="st2" d="M255.424,364.726l-16.112-16.112L20.134,567.794c-5.204-2.591-11.068-4.056-17.276-4.056
		c-21.444,0-38.827,17.383-38.827,38.827c0,6.208,1.465,12.072,4.056,17.276l-242.221,242.221l16.112,16.111l241.799-241.799
		c5.637,3.188,12.144,5.017,19.082,5.017c21.444,0,38.827-17.383,38.827-38.827c0-6.938-1.829-13.446-5.017-19.082L255.424,364.726z
		 M2.858,624.66c-12.203,0-22.095-9.892-22.095-22.095s9.892-22.095,22.095-22.095s22.095,9.892,22.095,22.095
		S15.061,624.66,2.858,624.66z"/>
	<path class="st2" d="M554.41,65.741l-16.112-16.112L319.12,268.808c-5.204-2.591-11.068-4.056-17.276-4.056
		c-21.444,0-38.827,17.383-38.827,38.827c0,6.208,1.465,12.072,4.056,17.276L24.851,563.077l16.112,16.111L282.761,337.39
		c5.637,3.188,12.144,5.017,19.082,5.017c21.444,0,38.827-17.383,38.827-38.827c0-6.938-1.829-13.446-5.017-19.082L554.41,65.741z
		 M301.844,325.675c-12.203,0-22.095-9.892-22.095-22.095s9.892-22.095,22.095-22.095s22.095,9.892,22.095,22.095
		S314.047,325.675,301.844,325.675z"/>
	<path class="st2" d="M855.424-235.274l-16.112-16.112L620.134-32.206c-5.204-2.591-11.068-4.056-17.276-4.056
		c-21.444,0-38.827,17.383-38.827,38.827c0,6.208,1.465,12.072,4.056,17.276L325.865,262.063l16.112,16.111L583.776,36.375
		c5.637,3.188,12.144,5.017,19.082,5.017c21.444,0,38.827-17.383,38.827-38.827c0-6.938-1.829-13.446-5.017-19.082L855.424-235.274z
		 M602.858,24.66c-12.203,0-22.095-9.892-22.095-22.095s9.892-22.095,22.095-22.095s22.095,9.892,22.095,22.095
		S615.061,24.66,602.858,24.66z"/>
</g>
<g>
	<defs>
		<rect id="SVGID_3_" x="941.393" y="250" width="113.164" height="113.164"/>
	</defs>
	<clipPath id="SVGID_4_">
		<use xlink:href="#SVGID_3_"  style="overflow:visible;"/>
	</clipPath>
	<g class="st3">
		<line class="st1" x1="1180.227" y1="211.147" x2="423.446" y2="967.928"/>
		<line class="st1" x1="1166.896" y1="211.147" x2="410.115" y2="967.928"/>
		<line class="st1" x1="1160.23" y1="211.147" x2="403.449" y2="967.928"/>
		<line class="st1" x1="1153.565" y1="211.147" x2="396.784" y2="967.928"/>
		<line class="st1" x1="1146.899" y1="211.147" x2="390.118" y2="967.928"/>
		<line class="st1" x1="1140.234" y1="211.147" x2="383.453" y2="967.928"/>
		<line class="st1" x1="1133.568" y1="211.147" x2="376.787" y2="967.928"/>
		<line class="st1" x1="1126.902" y1="211.147" x2="370.121" y2="967.928"/>
		<line class="st1" x1="1120.237" y1="211.147" x2="363.456" y2="967.928"/>
		<line class="st1" x1="1113.571" y1="211.147" x2="356.79" y2="967.928"/>
		<line class="st1" x1="1106.905" y1="211.147" x2="350.124" y2="967.928"/>
		<line class="st1" x1="1100.24" y1="211.147" x2="343.459" y2="967.928"/>
		<line class="st1" x1="1093.574" y1="211.147" x2="336.793" y2="967.928"/>
		<line class="st1" x1="1086.909" y1="211.147" x2="330.128" y2="967.928"/>
		<line class="st1" x1="1080.243" y1="211.147" x2="323.462" y2="967.928"/>
		<line class="st1" x1="1073.577" y1="211.147" x2="316.796" y2="967.928"/>
		<line class="st1" x1="1066.912" y1="211.147" x2="310.131" y2="967.928"/>
		<line class="st1" x1="1060.246" y1="211.147" x2="303.465" y2="967.928"/>
		<line class="st1" x1="1053.58" y1="211.147" x2="296.799" y2="967.928"/>
		<line class="st1" x1="1046.915" y1="211.147" x2="290.134" y2="967.928"/>
		<line class="st1" x1="1040.249" y1="211.147" x2="283.468" y2="967.928"/>
		<line class="st1" x1="1033.584" y1="211.147" x2="276.803" y2="967.928"/>
		<line class="st1" x1="1026.918" y1="211.147" x2="270.137" y2="967.928"/>
		<line class="st1" x1="1020.252" y1="211.147" x2="263.471" y2="967.928"/>
		<line class="st1" x1="1013.587" y1="211.147" x2="256.806" y2="967.928"/>
		<line class="st1" x1="1006.921" y1="211.147" x2="250.14" y2="967.928"/>
		<line class="st1" x1="1000.256" y1="211.147" x2="243.475" y2="967.928"/>
		<line class="st1" x1="993.59" y1="211.147" x2="236.809" y2="967.928"/>
		<line class="st1" x1="986.924" y1="211.147" x2="230.143" y2="967.928"/>
		<line class="st1" x1="1173.562" y1="211.147" x2="416.781" y2="967.928"/>
	</g>
</g>
<g>
	<defs>
		<rect id="SVGID_5_" x="1169.143" y="4.286" width="501.318" height="387.223"/>
	</defs>
	<clipPath id="SVGID_6_">
		<use xlink:href="#SVGID_5_"  style="overflow:visible;"/>
	</clipPath>
	<g class="st4">
		<defs>
			<path id="SVGID_7_" d="M2258.59-594.813l-51.562-51.562L1505.581,55.071c-16.656-8.292-35.42-12.979-55.289-12.979
				c-68.627,0-124.26,55.633-124.26,124.259c0,19.869,4.688,38.633,12.979,55.289L563.821,996.832l51.562,51.562l773.839-773.838
				c18.04,10.204,38.866,16.056,61.07,16.056c68.627,0,124.26-55.633,124.26-124.259c0-22.204-5.852-43.031-16.056-61.07
				L2258.59-594.813z M1450.292,237.064c-39.054,0-70.713-31.659-70.713-70.713s31.659-70.713,70.713-70.713
				s70.713,31.659,70.713,70.713S1489.346,237.064,1450.292,237.064z"/>
		</defs>
		<clipPath id="SVGID_8_">
			<use xlink:href="#SVGID_7_"  style="overflow:visible;"/>
		</clipPath>
		<g class="st5">
			<line class="st1" x1="1357.091" y1="-222.27" x2="600.31" y2="534.511"/>
			<line class="st1" x1="1350.425" y1="-222.27" x2="593.644" y2="534.511"/>
			<line class="st1" x1="1343.76" y1="-222.27" x2="586.979" y2="534.511"/>
			<line class="st1" x1="1337.094" y1="-222.27" x2="580.313" y2="534.511"/>
			<line class="st1" x1="1330.428" y1="-222.27" x2="573.647" y2="534.511"/>
			<line class="st1" x1="1323.763" y1="-222.27" x2="566.982" y2="534.511"/>
			<line class="st1" x1="1317.097" y1="-222.27" x2="560.316" y2="534.511"/>
			<line class="st1" x1="1310.432" y1="-222.27" x2="553.651" y2="534.511"/>
			<line class="st1" x1="1303.766" y1="-222.27" x2="546.985" y2="534.511"/>
			<line class="st1" x1="1297.1" y1="-222.27" x2="540.319" y2="534.511"/>
			<line class="st1" x1="1290.435" y1="-222.27" x2="533.654" y2="534.511"/>
			<line class="st1" x1="1283.769" y1="-222.27" x2="526.988" y2="534.511"/>
			<line class="st1" x1="1277.103" y1="-222.27" x2="520.322" y2="534.511"/>
			<line class="st1" x1="1270.438" y1="-222.27" x2="513.657" y2="534.511"/>
			<line class="st1" x1="1263.772" y1="-222.27" x2="506.991" y2="534.511"/>
			<line class="st1" x1="1257.107" y1="-222.27" x2="500.326" y2="534.511"/>
			<line class="st1" x1="1250.441" y1="-222.27" x2="493.66" y2="534.511"/>
			<line class="st1" x1="1243.775" y1="-222.27" x2="486.994" y2="534.511"/>
			<line class="st1" x1="1237.11" y1="-222.27" x2="480.329" y2="534.511"/>
		</g>
	</g>
</g>
<g>
	<defs>
		<polygon id="SVGID_9_" points="-384.985,-14.734 -621.973,528.238 -342.987,610.734 -85,42.263 		"/>
	</defs>
	<clipPath id="SVGID_10_">
		<use xlink:href="#SVGID_9_"  style="overflow:visible;"/>
	</clipPath>
	<g style="clip-path:url(#SVGID_10_);">
		
			<image style="overflow:visible;" width="1500" height="845" xlink:href="E8EA896235D26CF7.png"  transform="matrix(1 0 0 1 -1427.0023 -133.7821)">
		</image>
	</g>
</g>
</svg>
