<?xml version="1.0" encoding="utf-8"?>
<!-- Generator: Adobe Illustrator 20.1.0, SVG Export Plug-In . SVG Version: 6.00 Build 0)  -->
<svg version="1.1" id="Layer_1" xmlns="http://www.w3.org/2000/svg" xmlns:xlink="http://www.w3.org/1999/xlink" x="0px" y="0px"
	 viewBox="0 0 118 160" style="enable-background:new 0 0 118 160;" xml:space="preserve">
<style type="text/css">
	.st0{opacity:0.06;clip-path:url(#SVGID_2_);}
	.st1{fill:none;stroke:#2E517A;stroke-miterlimit:10;}
	.st2{clip-path:url(#SVGID_2_);fill:#FFFFFF;}
	.st3{opacity:0.06;clip-path:url(#SVGID_4_);}
	.st4{clip-path:url(#SVGID_6_);}
	.st5{opacity:0.06;clip-path:url(#SVGID_8_);}
	.st6{fill:#2E517A;}
	.st7{fill:#3E5B70;}
	.st8{fill:#EC6231;}
	.st9{fill:#DF2424;}
	.st10{fill:#DF7B72;}
	.st11{fill:#FFFFFF;}
	.st12{fill:#414750;}
	.st13{fill:#252629;}
	.st14{fill:#E7E8E8;}
	.st15{fill:#1F2121;}
	.st16{fill:#050708;}
	.st17{fill:#41474F;}
	.st18{fill:url(#SVGID_11_);}
	.st19{fill:url(#SVGID_12_);}
	.st20{fill:url(#SVGID_13_);}
</style>
<g>
	<defs>
		<rect id="SVGID_1_" x="-722.893" y="-185.688" width="600" height="600"/>
	</defs>
	<clipPath id="SVGID_2_">
		<use xlink:href="#SVGID_1_"  style="overflow:visible;"/>
	</clipPath>
	<g class="st0">
		<line class="st1" x1="275.883" y1="-224.541" x2="-480.898" y2="532.24"/>
		<line class="st1" x1="262.549" y1="-224.541" x2="-494.232" y2="532.24"/>
		<line class="st1" x1="249.216" y1="-224.541" x2="-507.565" y2="532.24"/>
		<line class="st1" x1="235.882" y1="-224.541" x2="-520.899" y2="532.24"/>
		<line class="st1" x1="222.549" y1="-224.541" x2="-534.232" y2="532.24"/>
		<line class="st1" x1="209.215" y1="-224.541" x2="-547.566" y2="532.24"/>
		<line class="st1" x1="195.882" y1="-224.541" x2="-560.899" y2="532.24"/>
		<line class="st1" x1="182.548" y1="-224.541" x2="-574.233" y2="532.24"/>
		<line class="st1" x1="169.215" y1="-224.541" x2="-587.566" y2="532.24"/>
		<line class="st1" x1="155.881" y1="-224.541" x2="-600.9" y2="532.24"/>
		<line class="st1" x1="142.548" y1="-224.541" x2="-614.233" y2="532.24"/>
		<line class="st1" x1="129.214" y1="-224.541" x2="-627.567" y2="532.24"/>
		<line class="st1" x1="115.881" y1="-224.541" x2="-640.9" y2="532.24"/>
		<line class="st1" x1="102.547" y1="-224.541" x2="-654.234" y2="532.24"/>
		<line class="st1" x1="89.214" y1="-224.541" x2="-667.567" y2="532.24"/>
		<line class="st1" x1="75.88" y1="-224.541" x2="-680.901" y2="532.24"/>
		<line class="st1" x1="62.547" y1="-224.541" x2="-694.234" y2="532.24"/>
		<line class="st1" x1="49.214" y1="-224.541" x2="-707.568" y2="532.24"/>
		<line class="st1" x1="35.88" y1="-224.541" x2="-720.901" y2="532.24"/>
		<line class="st1" x1="22.547" y1="-224.541" x2="-734.234" y2="532.24"/>
		<line class="st1" x1="9.213" y1="-224.541" x2="-747.568" y2="532.24"/>
		<line class="st1" x1="435.884" y1="-224.541" x2="-320.897" y2="532.24"/>
		<line class="st1" x1="429.218" y1="-224.541" x2="-327.563" y2="532.24"/>
		<line class="st1" x1="422.551" y1="-224.541" x2="-334.23" y2="532.24"/>
		<line class="st1" x1="415.884" y1="-224.541" x2="-340.897" y2="532.24"/>
		<line class="st1" x1="409.217" y1="-224.541" x2="-347.564" y2="532.24"/>
		<line class="st1" x1="402.551" y1="-224.541" x2="-354.23" y2="532.24"/>
		<line class="st1" x1="395.884" y1="-224.541" x2="-360.897" y2="532.24"/>
		<line class="st1" x1="389.217" y1="-224.541" x2="-367.564" y2="532.24"/>
		<line class="st1" x1="382.55" y1="-224.541" x2="-374.23" y2="532.24"/>
		<line class="st1" x1="375.884" y1="-224.541" x2="-380.897" y2="532.24"/>
		<line class="st1" x1="369.217" y1="-224.541" x2="-387.564" y2="532.24"/>
		<line class="st1" x1="362.55" y1="-224.541" x2="-394.231" y2="532.24"/>
		<line class="st1" x1="355.884" y1="-224.541" x2="-400.897" y2="532.24"/>
		<line class="st1" x1="349.217" y1="-224.541" x2="-407.564" y2="532.24"/>
		<line class="st1" x1="515.885" y1="-224.541" x2="-240.896" y2="532.24"/>
		<line class="st1" x1="509.219" y1="-224.541" x2="-247.562" y2="532.24"/>
		<line class="st1" x1="502.552" y1="-224.541" x2="-254.229" y2="532.24"/>
		<line class="st1" x1="495.885" y1="-224.541" x2="-260.896" y2="532.24"/>
		<line class="st1" x1="489.218" y1="-224.541" x2="-267.563" y2="532.24"/>
		<line class="st1" x1="482.552" y1="-224.541" x2="-274.229" y2="532.24"/>
		<line class="st1" x1="475.885" y1="-224.541" x2="-280.896" y2="532.24"/>
		<line class="st1" x1="469.218" y1="-224.541" x2="-287.563" y2="532.24"/>
		<line class="st1" x1="462.551" y1="-224.541" x2="-294.23" y2="532.24"/>
		<line class="st1" x1="455.885" y1="-224.541" x2="-300.896" y2="532.24"/>
		<line class="st1" x1="449.218" y1="-224.541" x2="-307.563" y2="532.24"/>
		<line class="st1" x1="442.551" y1="-224.541" x2="-314.23" y2="532.24"/>
		<line class="st1" x1="342.55" y1="-224.541" x2="-414.231" y2="532.24"/>
		<line class="st1" x1="335.883" y1="-224.541" x2="-420.898" y2="532.24"/>
		<line class="st1" x1="329.217" y1="-224.541" x2="-427.564" y2="532.24"/>
		<line class="st1" x1="322.55" y1="-224.541" x2="-434.231" y2="532.24"/>
		<line class="st1" x1="315.883" y1="-224.541" x2="-440.898" y2="532.24"/>
		<line class="st1" x1="309.216" y1="-224.541" x2="-447.565" y2="532.24"/>
		<line class="st1" x1="302.55" y1="-224.541" x2="-454.231" y2="532.24"/>
		<line class="st1" x1="295.883" y1="-224.541" x2="-460.898" y2="532.24"/>
		<line class="st1" x1="289.216" y1="-224.541" x2="-467.565" y2="532.24"/>
		<line class="st1" x1="282.549" y1="-224.541" x2="-474.232" y2="532.24"/>
		<line class="st1" x1="269.216" y1="-224.541" x2="-487.565" y2="532.24"/>
		<line class="st1" x1="255.882" y1="-224.541" x2="-500.899" y2="532.24"/>
		<line class="st1" x1="242.549" y1="-224.541" x2="-514.232" y2="532.24"/>
		<line class="st1" x1="229.215" y1="-224.541" x2="-527.565" y2="532.24"/>
		<line class="st1" x1="215.882" y1="-224.541" x2="-540.899" y2="532.24"/>
		<line class="st1" x1="202.549" y1="-224.541" x2="-554.232" y2="532.24"/>
		<line class="st1" x1="189.215" y1="-224.541" x2="-567.566" y2="532.24"/>
		<line class="st1" x1="175.882" y1="-224.541" x2="-580.899" y2="532.24"/>
		<line class="st1" x1="162.548" y1="-224.541" x2="-594.233" y2="532.24"/>
		<line class="st1" x1="149.215" y1="-224.541" x2="-607.566" y2="532.24"/>
		<line class="st1" x1="135.881" y1="-224.541" x2="-620.9" y2="532.24"/>
		<line class="st1" x1="122.548" y1="-224.541" x2="-634.233" y2="532.24"/>
		<line class="st1" x1="109.214" y1="-224.541" x2="-647.567" y2="532.24"/>
		<line class="st1" x1="95.881" y1="-224.541" x2="-660.9" y2="532.24"/>
		<line class="st1" x1="82.547" y1="-224.541" x2="-674.234" y2="532.24"/>
		<line class="st1" x1="69.214" y1="-224.541" x2="-687.567" y2="532.24"/>
		<line class="st1" x1="55.88" y1="-224.541" x2="-700.901" y2="532.24"/>
		<line class="st1" x1="42.547" y1="-224.541" x2="-714.234" y2="532.24"/>
		<line class="st1" x1="29.213" y1="-224.541" x2="-727.568" y2="532.24"/>
		<line class="st1" x1="15.88" y1="-224.541" x2="-740.901" y2="532.24"/>
		<line class="st1" x1="2.546" y1="-224.541" x2="-754.235" y2="532.24"/>
	</g>
	<path class="st2" d="M132.532-420.961l-16.112-16.112l-219.179,219.179c-5.204-2.591-11.068-4.056-17.276-4.056
		c-21.444,0-38.827,17.383-38.827,38.827c0,6.208,1.465,12.072,4.056,17.276L-397.027,76.375l16.112,16.111l241.799-241.799
		c5.637,3.188,12.144,5.017,19.082,5.017c21.444,0,38.827-17.383,38.827-38.827c0-6.938-1.829-13.446-5.017-19.082L132.532-420.961z
		 M-120.035-161.027c-12.203,0-22.095-9.892-22.095-22.095s9.892-22.095,22.095-22.095s22.095,9.892,22.095,22.095
		S-107.832-161.027-120.035-161.027z"/>
</g>
<g>
	<defs>
		<rect id="SVGID_3_" x="218.5" y="64.312" width="113.164" height="113.164"/>
	</defs>
	<clipPath id="SVGID_4_">
		<use xlink:href="#SVGID_3_"  style="overflow:visible;"/>
	</clipPath>
	<g class="st3">
		<line class="st1" x1="457.334" y1="25.459" x2="-299.447" y2="782.24"/>
		<line class="st1" x1="444.003" y1="25.459" x2="-312.778" y2="782.24"/>
		<line class="st1" x1="437.338" y1="25.459" x2="-319.443" y2="782.24"/>
		<line class="st1" x1="430.672" y1="25.459" x2="-326.109" y2="782.24"/>
		<line class="st1" x1="424.006" y1="25.459" x2="-332.775" y2="782.24"/>
		<line class="st1" x1="417.341" y1="25.459" x2="-339.44" y2="782.24"/>
		<line class="st1" x1="410.675" y1="25.459" x2="-346.106" y2="782.24"/>
		<line class="st1" x1="404.009" y1="25.459" x2="-352.772" y2="782.24"/>
		<line class="st1" x1="397.344" y1="25.459" x2="-359.437" y2="782.24"/>
		<line class="st1" x1="390.678" y1="25.459" x2="-366.103" y2="782.24"/>
		<line class="st1" x1="384.013" y1="25.459" x2="-372.768" y2="782.24"/>
		<line class="st1" x1="377.347" y1="25.459" x2="-379.434" y2="782.24"/>
		<line class="st1" x1="370.681" y1="25.459" x2="-386.1" y2="782.24"/>
		<line class="st1" x1="364.016" y1="25.459" x2="-392.765" y2="782.24"/>
		<line class="st1" x1="357.35" y1="25.459" x2="-399.431" y2="782.24"/>
		<line class="st1" x1="350.685" y1="25.459" x2="-406.096" y2="782.24"/>
		<line class="st1" x1="344.019" y1="25.459" x2="-412.762" y2="782.24"/>
		<line class="st1" x1="337.353" y1="25.459" x2="-419.428" y2="782.24"/>
		<line class="st1" x1="330.688" y1="25.459" x2="-426.093" y2="782.24"/>
		<line class="st1" x1="324.022" y1="25.459" x2="-432.759" y2="782.24"/>
		<line class="st1" x1="317.356" y1="25.459" x2="-439.425" y2="782.24"/>
		<line class="st1" x1="310.691" y1="25.459" x2="-446.09" y2="782.24"/>
		<line class="st1" x1="304.025" y1="25.459" x2="-452.756" y2="782.24"/>
		<line class="st1" x1="297.36" y1="25.459" x2="-459.421" y2="782.24"/>
		<line class="st1" x1="290.694" y1="25.459" x2="-466.087" y2="782.24"/>
		<line class="st1" x1="284.028" y1="25.459" x2="-472.753" y2="782.24"/>
		<line class="st1" x1="277.363" y1="25.459" x2="-479.418" y2="782.24"/>
		<line class="st1" x1="270.697" y1="25.459" x2="-486.084" y2="782.24"/>
		<line class="st1" x1="264.032" y1="25.459" x2="-492.749" y2="782.24"/>
		<line class="st1" x1="450.669" y1="25.459" x2="-306.112" y2="782.24"/>
	</g>
</g>
<g>
	<defs>
		<rect id="SVGID_5_" x="446.25" y="-181.401" width="501.318" height="387.223"/>
	</defs>
	<clipPath id="SVGID_6_">
		<use xlink:href="#SVGID_5_"  style="overflow:visible;"/>
	</clipPath>
	<g class="st4">
		<defs>
			<path id="SVGID_7_" d="M1535.697-780.5l-51.562-51.562L782.688-130.616c-16.655-8.292-35.42-12.979-55.289-12.979
				c-68.627,0-124.26,55.633-124.26,124.259c0,19.869,4.688,38.633,12.979,55.289l-775.191,775.191l51.562,51.562L666.329,88.868
				c18.04,10.204,38.866,16.056,61.07,16.056c68.627,0,124.26-55.633,124.26-124.259c0-22.205-5.852-43.031-16.056-61.07
				L1535.697-780.5z M727.399,51.377c-39.054,0-70.713-31.659-70.713-70.713s31.659-70.713,70.713-70.713
				s70.713,31.659,70.713,70.713S766.453,51.377,727.399,51.377z"/>
		</defs>
		<clipPath id="SVGID_8_">
			<use xlink:href="#SVGID_7_"  style="overflow:visible;"/>
		</clipPath>
		<g class="st5">
			<line class="st1" x1="867.495" y1="-407.957" x2="110.714" y2="348.824"/>
			<line class="st1" x1="854.163" y1="-407.957" x2="97.382" y2="348.824"/>
			<line class="st1" x1="840.832" y1="-407.957" x2="84.051" y2="348.824"/>
			<line class="st1" x1="827.501" y1="-407.957" x2="70.72" y2="348.824"/>
			<line class="st1" x1="814.17" y1="-407.957" x2="57.389" y2="348.824"/>
			<line class="st1" x1="800.839" y1="-407.957" x2="44.058" y2="348.824"/>
			<line class="st1" x1="787.507" y1="-407.957" x2="30.726" y2="348.824"/>
			<line class="st1" x1="774.176" y1="-407.957" x2="17.395" y2="348.824"/>
			<line class="st1" x1="760.845" y1="-407.957" x2="4.064" y2="348.824"/>
			<line class="st1" x1="747.514" y1="-407.957" x2="-9.267" y2="348.824"/>
			<line class="st1" x1="734.182" y1="-407.957" x2="-22.599" y2="348.824"/>
			<line class="st1" x1="720.851" y1="-407.957" x2="-35.93" y2="348.824"/>
			<line class="st1" x1="707.52" y1="-407.957" x2="-49.261" y2="348.824"/>
			<line class="st1" x1="694.189" y1="-407.957" x2="-62.592" y2="348.824"/>
			<line class="st1" x1="687.523" y1="-407.957" x2="-69.258" y2="348.824"/>
			<line class="st1" x1="680.857" y1="-407.957" x2="-75.924" y2="348.824"/>
			<line class="st1" x1="674.192" y1="-407.957" x2="-82.589" y2="348.824"/>
			<line class="st1" x1="667.526" y1="-407.957" x2="-89.255" y2="348.824"/>
			<line class="st1" x1="660.861" y1="-407.957" x2="-95.92" y2="348.824"/>
			<line class="st1" x1="654.195" y1="-407.957" x2="-102.586" y2="348.824"/>
			<line class="st1" x1="647.529" y1="-407.957" x2="-109.252" y2="348.824"/>
			<line class="st1" x1="640.864" y1="-407.957" x2="-115.917" y2="348.824"/>
			<line class="st1" x1="634.198" y1="-407.957" x2="-122.583" y2="348.824"/>
			<line class="st1" x1="627.532" y1="-407.957" x2="-129.249" y2="348.824"/>
			<line class="st1" x1="620.867" y1="-407.957" x2="-135.914" y2="348.824"/>
			<line class="st1" x1="614.201" y1="-407.957" x2="-142.58" y2="348.824"/>
			<line class="st1" x1="607.536" y1="-407.957" x2="-149.245" y2="348.824"/>
			<line class="st1" x1="600.87" y1="-407.957" x2="-155.911" y2="348.824"/>
			<line class="st1" x1="594.204" y1="-407.957" x2="-162.577" y2="348.824"/>
			<line class="st1" x1="587.539" y1="-407.957" x2="-169.242" y2="348.824"/>
			<line class="st1" x1="580.873" y1="-407.957" x2="-175.908" y2="348.824"/>
			<line class="st1" x1="574.208" y1="-407.957" x2="-182.573" y2="348.824"/>
			<line class="st1" x1="567.542" y1="-407.957" x2="-189.239" y2="348.824"/>
			<line class="st1" x1="560.876" y1="-407.957" x2="-195.905" y2="348.824"/>
			<line class="st1" x1="554.211" y1="-407.957" x2="-202.57" y2="348.824"/>
			<line class="st1" x1="547.545" y1="-407.957" x2="-209.236" y2="348.824"/>
			<line class="st1" x1="540.879" y1="-407.957" x2="-215.902" y2="348.824"/>
			<line class="st1" x1="534.214" y1="-407.957" x2="-222.567" y2="348.824"/>
			<line class="st1" x1="527.548" y1="-407.957" x2="-229.233" y2="348.824"/>
			<line class="st1" x1="520.883" y1="-407.957" x2="-235.898" y2="348.824"/>
			<line class="st1" x1="514.217" y1="-407.957" x2="-242.564" y2="348.824"/>
			<line class="st1" x1="874.16" y1="-407.957" x2="117.379" y2="348.824"/>
			<line class="st1" x1="860.829" y1="-407.957" x2="104.048" y2="348.824"/>
			<line class="st1" x1="847.498" y1="-407.957" x2="90.717" y2="348.824"/>
			<line class="st1" x1="834.167" y1="-407.957" x2="77.386" y2="348.824"/>
			<line class="st1" x1="820.835" y1="-407.957" x2="64.054" y2="348.824"/>
			<line class="st1" x1="807.504" y1="-407.957" x2="50.723" y2="348.824"/>
			<line class="st1" x1="794.173" y1="-407.957" x2="37.392" y2="348.824"/>
			<line class="st1" x1="780.842" y1="-407.957" x2="24.061" y2="348.824"/>
			<line class="st1" x1="767.51" y1="-407.957" x2="10.729" y2="348.824"/>
			<line class="st1" x1="754.179" y1="-407.957" x2="-2.602" y2="348.824"/>
			<line class="st1" x1="740.848" y1="-407.957" x2="-15.933" y2="348.824"/>
			<line class="st1" x1="727.517" y1="-407.957" x2="-29.264" y2="348.824"/>
			<line class="st1" x1="714.185" y1="-407.957" x2="-42.596" y2="348.824"/>
			<line class="st1" x1="700.854" y1="-407.957" x2="-55.927" y2="348.824"/>
		</g>
	</g>
</g>
<g>
	<rect x="14.34" y="7.21" class="st7" width="9.742" height="142.36"/>
	<g>
		<polygon class="st8" points="111.212,7.21 24.082,7.21 24.082,61.016 111.2,7.222 		"/>
		<polygon class="st9" points="24.082,61.016 111.055,61.016 84.23,34.192 111.2,7.222 		"/>
	</g>
	<polygon class="st7" points="33.138,153.201 5.284,153.201 19.211,139.274 	"/>
</g>
</svg>
