<?xml version="1.0" encoding="utf-8"?>
<!-- Generator: Adobe Illustrator 20.1.0, SVG Export Plug-In . SVG Version: 6.00 Build 0)  -->
<svg version="1.1" id="Layer_1" xmlns="http://www.w3.org/2000/svg" xmlns:xlink="http://www.w3.org/1999/xlink" x="0px" y="0px"
	 viewBox="0 0 100 100" style="enable-background:new 0 0 100 100;" xml:space="preserve">
<style type="text/css">
	.st0{opacity:0.06;clip-path:url(#SVGID_2_);}
	.st1{fill:none;stroke:#2E517A;stroke-miterlimit:10;}
	.st2{clip-path:url(#SVGID_2_);fill:#FFFFFF;}
	.st3{opacity:0.06;clip-path:url(#SVGID_4_);}
	.st4{clip-path:url(#SVGID_6_);}
	.st5{opacity:0.06;clip-path:url(#SVGID_8_);}
	.st6{fill:#2E517A;}
	.st7{fill:#3E5B70;}
	.st8{fill:#EC6231;}
	.st9{fill:#DF2424;}
	.st10{fill:#DF7B72;}
	.st11{fill:#FFFFFF;}
	.st12{fill:#414750;}
	.st13{fill:#252629;}
	.st14{fill:#E7E8E8;}
	.st15{fill:#1F2121;}
	.st16{fill:#050708;}
	.st17{fill:#41474F;}
	.st18{fill:url(#SVGID_11_);}
	.st19{fill:url(#SVGID_12_);}
	.st20{fill:url(#SVGID_13_);}
</style>
<g>
	<defs>
		<rect id="SVGID_1_" x="-941.393" y="-250" width="600" height="600"/>
	</defs>
	<clipPath id="SVGID_2_">
		<use xlink:href="#SVGID_1_"  style="overflow:visible;"/>
	</clipPath>
	<g class="st0">
		<line class="st1" x1="57.383" y1="-288.853" x2="-699.398" y2="467.928"/>
		<line class="st1" x1="44.049" y1="-288.853" x2="-712.732" y2="467.928"/>
		<line class="st1" x1="30.716" y1="-288.853" x2="-726.065" y2="467.928"/>
		<line class="st1" x1="17.382" y1="-288.853" x2="-739.399" y2="467.928"/>
		<line class="st1" x1="4.049" y1="-288.853" x2="-752.732" y2="467.928"/>
		<line class="st1" x1="217.384" y1="-288.853" x2="-539.397" y2="467.928"/>
		<line class="st1" x1="210.718" y1="-288.853" x2="-546.063" y2="467.928"/>
		<line class="st1" x1="204.051" y1="-288.853" x2="-552.73" y2="467.928"/>
		<line class="st1" x1="197.384" y1="-288.853" x2="-559.397" y2="467.928"/>
		<line class="st1" x1="190.717" y1="-288.853" x2="-566.064" y2="467.928"/>
		<line class="st1" x1="184.051" y1="-288.853" x2="-572.73" y2="467.928"/>
		<line class="st1" x1="177.384" y1="-288.853" x2="-579.397" y2="467.928"/>
		<line class="st1" x1="170.717" y1="-288.853" x2="-586.064" y2="467.928"/>
		<line class="st1" x1="164.05" y1="-288.853" x2="-592.731" y2="467.928"/>
		<line class="st1" x1="157.384" y1="-288.853" x2="-599.397" y2="467.928"/>
		<line class="st1" x1="150.717" y1="-288.853" x2="-606.064" y2="467.928"/>
		<line class="st1" x1="144.05" y1="-288.853" x2="-612.731" y2="467.928"/>
		<line class="st1" x1="137.384" y1="-288.853" x2="-619.397" y2="467.928"/>
		<line class="st1" x1="130.717" y1="-288.853" x2="-626.064" y2="467.928"/>
		<line class="st1" x1="297.385" y1="-288.853" x2="-459.396" y2="467.928"/>
		<line class="st1" x1="290.719" y1="-288.853" x2="-466.062" y2="467.928"/>
		<line class="st1" x1="284.052" y1="-288.853" x2="-472.729" y2="467.928"/>
		<line class="st1" x1="277.385" y1="-288.853" x2="-479.396" y2="467.928"/>
		<line class="st1" x1="270.718" y1="-288.853" x2="-486.063" y2="467.928"/>
		<line class="st1" x1="264.052" y1="-288.853" x2="-492.729" y2="467.928"/>
		<line class="st1" x1="257.385" y1="-288.853" x2="-499.396" y2="467.928"/>
		<line class="st1" x1="250.718" y1="-288.853" x2="-506.063" y2="467.928"/>
		<line class="st1" x1="244.051" y1="-288.853" x2="-512.73" y2="467.928"/>
		<line class="st1" x1="237.385" y1="-288.853" x2="-519.396" y2="467.928"/>
		<line class="st1" x1="230.718" y1="-288.853" x2="-526.063" y2="467.928"/>
		<line class="st1" x1="224.051" y1="-288.853" x2="-532.73" y2="467.928"/>
		<line class="st1" x1="124.05" y1="-288.853" x2="-632.731" y2="467.928"/>
		<line class="st1" x1="117.383" y1="-288.853" x2="-639.398" y2="467.928"/>
		<line class="st1" x1="110.717" y1="-288.853" x2="-646.064" y2="467.928"/>
		<line class="st1" x1="104.05" y1="-288.853" x2="-652.731" y2="467.928"/>
		<line class="st1" x1="97.383" y1="-288.853" x2="-659.398" y2="467.928"/>
		<line class="st1" x1="90.716" y1="-288.853" x2="-666.065" y2="467.928"/>
		<line class="st1" x1="84.05" y1="-288.853" x2="-672.731" y2="467.928"/>
		<line class="st1" x1="77.383" y1="-288.853" x2="-679.398" y2="467.928"/>
		<line class="st1" x1="70.716" y1="-288.853" x2="-686.065" y2="467.928"/>
		<line class="st1" x1="64.049" y1="-288.853" x2="-692.732" y2="467.928"/>
		<line class="st1" x1="50.716" y1="-288.853" x2="-706.065" y2="467.928"/>
		<line class="st1" x1="37.382" y1="-288.853" x2="-719.399" y2="467.928"/>
		<line class="st1" x1="24.049" y1="-288.853" x2="-732.732" y2="467.928"/>
		<line class="st1" x1="10.715" y1="-288.853" x2="-746.065" y2="467.928"/>
	</g>
</g>
<g>
	<defs>
		<rect id="SVGID_3_" width="113.164" height="113.164"/>
	</defs>
	<clipPath id="SVGID_4_">
		<use xlink:href="#SVGID_3_"  style="overflow:visible;"/>
	</clipPath>
	<g class="st3">
		<line class="st1" x1="238.834" y1="-38.853" x2="-517.947" y2="717.928"/>
		<line class="st1" x1="225.503" y1="-38.853" x2="-531.278" y2="717.928"/>
		<line class="st1" x1="218.838" y1="-38.853" x2="-537.943" y2="717.928"/>
		<line class="st1" x1="212.172" y1="-38.853" x2="-544.609" y2="717.928"/>
		<line class="st1" x1="205.506" y1="-38.853" x2="-551.275" y2="717.928"/>
		<line class="st1" x1="198.841" y1="-38.853" x2="-557.94" y2="717.928"/>
		<line class="st1" x1="192.175" y1="-38.853" x2="-564.606" y2="717.928"/>
		<line class="st1" x1="185.509" y1="-38.853" x2="-571.271" y2="717.928"/>
		<line class="st1" x1="178.844" y1="-38.853" x2="-577.937" y2="717.928"/>
		<line class="st1" x1="172.178" y1="-38.853" x2="-584.603" y2="717.928"/>
		<line class="st1" x1="165.513" y1="-38.853" x2="-591.268" y2="717.928"/>
		<line class="st1" x1="158.847" y1="-38.853" x2="-597.934" y2="717.928"/>
		<line class="st1" x1="152.181" y1="-38.853" x2="-604.6" y2="717.928"/>
		<line class="st1" x1="145.516" y1="-38.853" x2="-611.265" y2="717.928"/>
		<line class="st1" x1="138.85" y1="-38.853" x2="-617.931" y2="717.928"/>
		<line class="st1" x1="132.185" y1="-38.853" x2="-624.596" y2="717.928"/>
		<line class="st1" x1="125.519" y1="-38.853" x2="-631.262" y2="717.928"/>
		<line class="st1" x1="118.853" y1="-38.853" x2="-637.928" y2="717.928"/>
		<line class="st1" x1="112.188" y1="-38.853" x2="-644.593" y2="717.928"/>
		<line class="st1" x1="105.522" y1="-38.853" x2="-651.259" y2="717.928"/>
		<line class="st1" x1="98.856" y1="-38.853" x2="-657.925" y2="717.928"/>
		<line class="st1" x1="92.191" y1="-38.853" x2="-664.59" y2="717.928"/>
		<line class="st1" x1="85.525" y1="-38.853" x2="-671.256" y2="717.928"/>
		<line class="st1" x1="78.86" y1="-38.853" x2="-677.921" y2="717.928"/>
		<line class="st1" x1="72.194" y1="-38.853" x2="-684.587" y2="717.928"/>
		<line class="st1" x1="65.528" y1="-38.853" x2="-691.253" y2="717.928"/>
		<line class="st1" x1="58.863" y1="-38.853" x2="-697.918" y2="717.928"/>
		<line class="st1" x1="52.197" y1="-38.853" x2="-704.584" y2="717.928"/>
		<line class="st1" x1="45.532" y1="-38.853" x2="-711.249" y2="717.928"/>
		<line class="st1" x1="232.169" y1="-38.853" x2="-524.612" y2="717.928"/>
	</g>
</g>
<g>
	<defs>
		<rect id="SVGID_5_" x="227.75" y="-245.714" width="501.318" height="387.223"/>
	</defs>
	<clipPath id="SVGID_6_">
		<use xlink:href="#SVGID_5_"  style="overflow:visible;"/>
	</clipPath>
	<g class="st4">
		<defs>
			<path id="SVGID_7_" d="M1317.197-844.813l-51.562-51.562L564.188-194.929c-16.655-8.292-35.42-12.979-55.289-12.979
				c-68.627,0-124.259,55.633-124.259,124.259c0,19.869,4.688,38.633,12.979,55.289l-775.191,775.191l51.562,51.562L447.829,24.555
				c18.04,10.204,38.866,16.056,61.07,16.056c68.627,0,124.26-55.633,124.26-124.259c0-22.205-5.852-43.031-16.056-61.07
				L1317.197-844.813z M508.899-12.936c-39.054,0-70.713-31.659-70.713-70.713s31.659-70.713,70.713-70.713
				s70.713,31.659,70.713,70.713S547.953-12.936,508.899-12.936z"/>
		</defs>
		<clipPath id="SVGID_8_">
			<use xlink:href="#SVGID_7_"  style="overflow:visible;"/>
		</clipPath>
		<g class="st5">
			<line class="st1" x1="848.963" y1="-472.27" x2="92.182" y2="284.511"/>
			<line class="st1" x1="828.966" y1="-472.27" x2="72.185" y2="284.511"/>
			<line class="st1" x1="808.97" y1="-472.27" x2="52.189" y2="284.511"/>
			<line class="st1" x1="788.973" y1="-472.27" x2="32.192" y2="284.511"/>
			<line class="st1" x1="768.976" y1="-472.27" x2="12.195" y2="284.511"/>
			<line class="st1" x1="755.645" y1="-472.27" x2="-1.136" y2="284.511"/>
			<line class="st1" x1="742.313" y1="-472.27" x2="-14.468" y2="284.511"/>
			<line class="st1" x1="728.982" y1="-472.27" x2="-27.799" y2="284.511"/>
			<line class="st1" x1="715.651" y1="-472.27" x2="-41.13" y2="284.511"/>
			<line class="st1" x1="702.32" y1="-472.27" x2="-54.461" y2="284.511"/>
			<line class="st1" x1="688.988" y1="-472.27" x2="-67.793" y2="284.511"/>
			<line class="st1" x1="675.657" y1="-472.27" x2="-81.124" y2="284.511"/>
			<line class="st1" x1="662.326" y1="-472.27" x2="-94.455" y2="284.511"/>
			<line class="st1" x1="648.995" y1="-472.27" x2="-107.786" y2="284.511"/>
			<line class="st1" x1="635.663" y1="-472.27" x2="-121.118" y2="284.511"/>
			<line class="st1" x1="622.332" y1="-472.27" x2="-134.449" y2="284.511"/>
			<line class="st1" x1="609.001" y1="-472.27" x2="-147.78" y2="284.511"/>
			<line class="st1" x1="595.67" y1="-472.27" x2="-161.111" y2="284.511"/>
			<line class="st1" x1="582.339" y1="-472.27" x2="-174.442" y2="284.511"/>
			<line class="st1" x1="569.007" y1="-472.27" x2="-187.774" y2="284.511"/>
			<line class="st1" x1="555.676" y1="-472.27" x2="-201.105" y2="284.511"/>
			<line class="st1" x1="542.345" y1="-472.27" x2="-214.436" y2="284.511"/>
			<line class="st1" x1="529.014" y1="-472.27" x2="-227.767" y2="284.511"/>
			<line class="st1" x1="515.682" y1="-472.27" x2="-241.099" y2="284.511"/>
			<line class="st1" x1="502.351" y1="-472.27" x2="-254.43" y2="284.511"/>
			<line class="st1" x1="489.02" y1="-472.27" x2="-267.761" y2="284.511"/>
			<line class="st1" x1="475.689" y1="-472.27" x2="-281.092" y2="284.511"/>
			<line class="st1" x1="469.023" y1="-472.27" x2="-287.758" y2="284.511"/>
			<line class="st1" x1="462.357" y1="-472.27" x2="-294.424" y2="284.511"/>
			<line class="st1" x1="455.692" y1="-472.27" x2="-301.089" y2="284.511"/>
			<line class="st1" x1="449.026" y1="-472.27" x2="-307.755" y2="284.511"/>
			<line class="st1" x1="442.361" y1="-472.27" x2="-314.42" y2="284.511"/>
			<line class="st1" x1="435.695" y1="-472.27" x2="-321.086" y2="284.511"/>
			<line class="st1" x1="429.029" y1="-472.27" x2="-327.752" y2="284.511"/>
			<line class="st1" x1="422.364" y1="-472.27" x2="-334.417" y2="284.511"/>
			<line class="st1" x1="415.698" y1="-472.27" x2="-341.083" y2="284.511"/>
			<line class="st1" x1="409.032" y1="-472.27" x2="-347.749" y2="284.511"/>
			<line class="st1" x1="402.367" y1="-472.27" x2="-354.414" y2="284.511"/>
			<line class="st1" x1="395.701" y1="-472.27" x2="-361.08" y2="284.511"/>
			<line class="st1" x1="389.036" y1="-472.27" x2="-367.745" y2="284.511"/>
			<line class="st1" x1="382.37" y1="-472.27" x2="-374.411" y2="284.511"/>
			<line class="st1" x1="375.704" y1="-472.27" x2="-381.077" y2="284.511"/>
			<line class="st1" x1="369.039" y1="-472.27" x2="-387.742" y2="284.511"/>
			<line class="st1" x1="362.373" y1="-472.27" x2="-394.408" y2="284.511"/>
			<line class="st1" x1="355.708" y1="-472.27" x2="-401.073" y2="284.511"/>
			<line class="st1" x1="349.042" y1="-472.27" x2="-407.739" y2="284.511"/>
			<line class="st1" x1="342.376" y1="-472.27" x2="-414.405" y2="284.511"/>
			<line class="st1" x1="335.711" y1="-472.27" x2="-421.07" y2="284.511"/>
			<line class="st1" x1="329.045" y1="-472.27" x2="-427.736" y2="284.511"/>
			<line class="st1" x1="322.379" y1="-472.27" x2="-434.402" y2="284.511"/>
			<line class="st1" x1="315.714" y1="-472.27" x2="-441.067" y2="284.511"/>
			<line class="st1" x1="309.048" y1="-472.27" x2="-447.733" y2="284.511"/>
			<line class="st1" x1="302.383" y1="-472.27" x2="-454.398" y2="284.511"/>
			<line class="st1" x1="295.717" y1="-472.27" x2="-461.064" y2="284.511"/>
			<line class="st1" x1="855.629" y1="-472.27" x2="98.848" y2="284.511"/>
			<line class="st1" x1="835.632" y1="-472.27" x2="78.851" y2="284.511"/>
			<line class="st1" x1="815.635" y1="-472.27" x2="58.854" y2="284.511"/>
			<line class="st1" x1="795.638" y1="-472.27" x2="38.857" y2="284.511"/>
			<line class="st1" x1="775.641" y1="-472.27" x2="18.86" y2="284.511"/>
			<line class="st1" x1="762.31" y1="-472.27" x2="5.529" y2="284.511"/>
			<line class="st1" x1="748.979" y1="-472.27" x2="-7.802" y2="284.511"/>
			<line class="st1" x1="735.648" y1="-472.27" x2="-21.133" y2="284.511"/>
			<line class="st1" x1="722.316" y1="-472.27" x2="-34.464" y2="284.511"/>
			<line class="st1" x1="708.985" y1="-472.27" x2="-47.796" y2="284.511"/>
			<line class="st1" x1="695.654" y1="-472.27" x2="-61.127" y2="284.511"/>
			<line class="st1" x1="682.323" y1="-472.27" x2="-74.458" y2="284.511"/>
			<line class="st1" x1="668.992" y1="-472.27" x2="-87.789" y2="284.511"/>
			<line class="st1" x1="655.66" y1="-472.27" x2="-101.121" y2="284.511"/>
			<line class="st1" x1="642.329" y1="-472.27" x2="-114.452" y2="284.511"/>
			<line class="st1" x1="628.998" y1="-472.27" x2="-127.783" y2="284.511"/>
			<line class="st1" x1="615.667" y1="-472.27" x2="-141.114" y2="284.511"/>
			<line class="st1" x1="602.335" y1="-472.27" x2="-154.446" y2="284.511"/>
			<line class="st1" x1="589.004" y1="-472.27" x2="-167.777" y2="284.511"/>
			<line class="st1" x1="575.673" y1="-472.27" x2="-181.108" y2="284.511"/>
			<line class="st1" x1="562.342" y1="-472.27" x2="-194.439" y2="284.511"/>
			<line class="st1" x1="549.01" y1="-472.27" x2="-207.771" y2="284.511"/>
			<line class="st1" x1="535.679" y1="-472.27" x2="-221.102" y2="284.511"/>
			<line class="st1" x1="522.348" y1="-472.27" x2="-234.433" y2="284.511"/>
			<line class="st1" x1="509.017" y1="-472.27" x2="-247.764" y2="284.511"/>
			<line class="st1" x1="495.685" y1="-472.27" x2="-261.095" y2="284.511"/>
			<line class="st1" x1="482.354" y1="-472.27" x2="-274.427" y2="284.511"/>
			<line class="st1" x1="842.298" y1="-472.27" x2="85.517" y2="284.511"/>
			<line class="st1" x1="822.301" y1="-472.27" x2="65.52" y2="284.511"/>
			<line class="st1" x1="802.304" y1="-472.27" x2="45.523" y2="284.511"/>
			<line class="st1" x1="782.307" y1="-472.27" x2="25.526" y2="284.511"/>
		</g>
	</g>
</g>
</svg>
