<?xml version="1.0" encoding="utf-8"?>
<!-- Generator: Adobe Illustrator 20.1.0, SVG Export Plug-In . SVG Version: 6.00 Build 0)  -->
<svg version="1.1" id="Layer_1" xmlns="http://www.w3.org/2000/svg" xmlns:xlink="http://www.w3.org/1999/xlink" x="0px" y="0px"
	 viewBox="0 0 25 25" style="enable-background:new 0 0 25 25;" xml:space="preserve">
<style type="text/css">
	.st0{opacity:0.06;clip-path:url(#SVGID_2_);}
	.st1{fill:none;stroke:#2E517A;stroke-miterlimit:10;}
	.st2{clip-path:url(#SVGID_2_);fill:#FFFFFF;}
	.st3{opacity:0.06;clip-path:url(#SVGID_4_);}
	.st4{clip-path:url(#SVGID_6_);}
	.st5{opacity:0.06;clip-path:url(#SVGID_8_);}
	.st6{fill:#2E517A;}
	.st7{fill:#3E5B70;}
	.st8{fill:#EC6231;}
	.st9{fill:#DF2424;}
	.st10{fill:#DF7B72;}
	.st11{fill:#FFFFFF;}
	.st12{fill:#414750;}
	.st13{fill:#252629;}
	.st14{fill:#E7E8E8;}
	.st15{fill:#1F2121;}
	.st16{fill:#050708;}
	.st17{fill:#41474F;}
	.st18{fill:url(#SVGID_11_);}
	.st19{fill:url(#SVGID_12_);}
	.st20{fill:url(#SVGID_13_);}
</style>
<g>
	<defs>
		<rect id="SVGID_5_" x="-95.416" y="-730.568" width="501.318" height="387.223"/>
	</defs>
	<clipPath id="SVGID_2_">
		<use xlink:href="#SVGID_5_"  style="overflow:visible;"/>
	</clipPath>
	<g style="clip-path:url(#SVGID_2_);">
		<defs>
			<path id="SVGID_7_" d="M994.03-1329.667l-51.562-51.562L241.022-679.783c-16.655-8.292-35.42-12.979-55.289-12.979
				c-68.627,0-124.26,55.633-124.26,124.259c0,19.869,4.688,38.633,12.979,55.289l-775.191,775.191l51.562,51.562l773.839-773.838
				c18.04,10.204,38.866,16.056,61.07,16.056c68.627,0,124.259-55.633,124.259-124.26c0-22.204-5.852-43.031-16.056-61.07
				L994.03-1329.667z M185.733-497.79c-39.054,0-70.713-31.659-70.713-70.713c0-39.054,31.659-70.713,70.713-70.713
				s70.713,31.659,70.713,70.713C256.446-529.449,224.786-497.79,185.733-497.79z"/>
		</defs>
		<clipPath id="SVGID_4_">
			<use xlink:href="#SVGID_7_"  style="overflow:visible;"/>
		</clipPath>
	</g>
</g>
<path class="st6" d="M20.873,0.523c-0.11-0.02-0.21-0.02-0.32-0.02h-16c-0.13,0-0.26,0.01-0.39,0.02c-1.94,0.22-3.61,2.01-3.61,3.98
	v16c0,1.46,0.92,2.82,2.19,3.53c0.01-0.01,0.01-0.01,0.01,0c0.19,0.09,0.38,0.18,0.57,0.25c0.08,0.03,0.17,0.06,0.26,0.08
	s0.19,0.04,0.28,0.06c0.12,0.02,0.25,0.04,0.37,0.05c0.07,0.01,0.14,0.02,0.21,0.02v0.01h16.22v-0.01c0.15,0,0.29-0.02,0.43-0.04
	v-0.02c1.85-0.32,3.39-2.04,3.39-3.93v-16C24.483,2.533,22.813,0.743,20.873,0.523z"/>
<g>
	<g id="AAFe4s.tif">
		<g>
			<path class="st11" d="M12.499,3.923c1.157,0.02,2.315,0.03,3.472,0.063c1.01,0.029,1.989,0.209,2.865,0.749
				c1.14,0.703,1.807,1.739,2.069,3.041c0.2,0.993,0.186,2.001,0.191,3.007c0.007,1.498,0.008,2.995-0.014,4.493
				c-0.013,0.904-0.04,1.811-0.344,2.68c-0.584,1.673-1.768,2.659-3.484,3.017c-0.991,0.207-2.001,0.186-3.006,0.191
				c-1.491,0.007-2.983,0.008-4.474-0.014c-0.91-0.013-1.823-0.041-2.699-0.347c-1.666-0.583-2.646-1.765-3.007-3.472
				c-0.209-0.991-0.187-2.001-0.192-3.006c-0.007-1.498-0.008-2.995,0.014-4.493c0.013-0.904,0.04-1.811,0.344-2.68
				c0.584-1.673,1.768-2.658,3.484-3.017c0.997-0.208,2.014-0.178,3.025-0.192c0.585-0.008,1.17-0.002,1.756-0.002
				C12.498,3.935,12.499,3.929,12.499,3.923z M12.487,5.477c0,0.005,0,0.011,0,0.016c-0.277,0-0.554-0.007-0.83,0.001
				c-1.111,0.035-2.226,0.034-3.333,0.124C6.905,5.733,5.899,6.634,5.621,8.025C5.493,8.667,5.457,9.334,5.446,9.991
				c-0.027,1.572-0.03,3.145-0.01,4.717c0.009,0.746,0.035,1.5,0.154,2.234c0.207,1.274,0.951,2.113,2.223,2.453
				c0.695,0.186,1.407,0.191,2.114,0.2c1.566,0.021,3.133,0.028,4.698,0.008c0.752-0.009,1.513-0.034,2.253-0.155
				c1.273-0.208,2.112-0.953,2.45-2.226c0.183-0.689,0.19-1.394,0.199-2.096c0.02-1.585,0.027-3.17,0.008-4.755
				c-0.009-0.733-0.037-1.474-0.152-2.196c-0.203-1.276-0.942-2.133-2.217-2.453c-0.435-0.109-0.891-0.164-1.34-0.18
				C14.714,5.501,13.6,5.496,12.487,5.477z"/>
			<path class="st11" d="M16.907,12.566c0,2.457-1.973,4.41-4.453,4.41c-2.445-0.001-4.393-1.984-4.39-4.472
				c0.003-2.413,2.02-4.401,4.471-4.377C14.948,8.152,16.907,10.121,16.907,12.566z M12.493,15.424
				c1.578-0.005,2.866-1.3,2.862-2.878c-0.004-1.577-1.302-2.868-2.878-2.862c-1.579,0.006-2.866,1.3-2.862,2.878
				C9.62,14.139,10.916,15.428,12.493,15.424z"/>
			<path class="st11" d="M17.104,6.924c0.574,0.004,1.013,0.458,1.011,1.042c-0.002,0.568-0.471,1.035-1.033,1.03
				c-0.574-0.005-1.049-0.487-1.039-1.052C16.053,7.367,16.518,6.92,17.104,6.924z"/>
		</g>
	</g>
</g>
</svg>
