<?xml version="1.0" encoding="utf-8"?>
<!-- Generator: Adobe Illustrator 20.1.0, SVG Export Plug-In . SVG Version: 6.00 Build 0)  -->
<svg version="1.1" id="Layer_1" xmlns="http://www.w3.org/2000/svg" xmlns:xlink="http://www.w3.org/1999/xlink" x="0px" y="0px"
	 viewBox="0 0 30 30" style="enable-background:new 0 0 30 30;" xml:space="preserve">
<style type="text/css">
	.st0{opacity:0.06;clip-path:url(#SVGID_2_);}
	.st1{fill:none;stroke:#2E517A;stroke-miterlimit:10;}
	.st2{clip-path:url(#SVGID_2_);fill:#FFFFFF;}
	.st3{opacity:0.06;clip-path:url(#SVGID_4_);}
	.st4{clip-path:url(#SVGID_6_);}
	.st5{opacity:0.06;clip-path:url(#SVGID_8_);}
	.st6{fill:#2E517A;}
	.st7{fill:#3E5B70;}
	.st8{fill:#EC6231;}
	.st9{fill:#DF2424;}
	.st10{fill:#DF7B72;}
	.st11{fill:#FFFFFF;}
	.st12{fill:#414750;}
	.st13{fill:#252629;}
	.st14{fill:#E7E8E8;}
	.st15{fill:#1F2121;}
	.st16{fill:#050708;}
	.st17{fill:#41474F;}
	.st18{fill:url(#SVGID_11_);}
	.st19{fill:url(#SVGID_12_);}
	.st20{fill:url(#SVGID_13_);}
</style>
<g>
	<defs>
		<rect id="SVGID_1_" x="-766.393" y="-15.688" width="600" height="600"/>
	</defs>
	<clipPath id="SVGID_2_">
		<use xlink:href="#SVGID_1_"  style="overflow:visible;"/>
	</clipPath>
	<g class="st0">
		<line class="st1" x1="232.383" y1="-54.541" x2="-524.398" y2="702.24"/>
		<line class="st1" x1="219.049" y1="-54.541" x2="-537.732" y2="702.24"/>
		<line class="st1" x1="205.716" y1="-54.541" x2="-551.065" y2="702.24"/>
		<line class="st1" x1="192.382" y1="-54.541" x2="-564.399" y2="702.24"/>
		<line class="st1" x1="179.049" y1="-54.541" x2="-577.732" y2="702.24"/>
		<line class="st1" x1="165.715" y1="-54.541" x2="-591.066" y2="702.24"/>
		<line class="st1" x1="152.382" y1="-54.541" x2="-604.399" y2="702.24"/>
		<line class="st1" x1="139.048" y1="-54.541" x2="-617.733" y2="702.24"/>
		<line class="st1" x1="125.715" y1="-54.541" x2="-631.066" y2="702.24"/>
		<line class="st1" x1="112.381" y1="-54.541" x2="-644.4" y2="702.24"/>
		<line class="st1" x1="99.048" y1="-54.541" x2="-657.733" y2="702.24"/>
		<line class="st1" x1="85.714" y1="-54.541" x2="-671.067" y2="702.24"/>
		<line class="st1" x1="72.381" y1="-54.541" x2="-684.4" y2="702.24"/>
		<line class="st1" x1="59.047" y1="-54.541" x2="-697.734" y2="702.24"/>
		<line class="st1" x1="45.714" y1="-54.541" x2="-711.067" y2="702.24"/>
		<line class="st1" x1="32.38" y1="-54.541" x2="-724.401" y2="702.24"/>
		<line class="st1" x1="19.047" y1="-54.541" x2="-737.734" y2="702.24"/>
		<line class="st1" x1="5.714" y1="-54.541" x2="-751.068" y2="702.24"/>
		<line class="st1" x1="392.384" y1="-54.541" x2="-364.397" y2="702.24"/>
		<line class="st1" x1="385.718" y1="-54.541" x2="-371.063" y2="702.24"/>
		<line class="st1" x1="379.051" y1="-54.541" x2="-377.73" y2="702.24"/>
		<line class="st1" x1="372.384" y1="-54.541" x2="-384.397" y2="702.24"/>
		<line class="st1" x1="365.717" y1="-54.541" x2="-391.064" y2="702.24"/>
		<line class="st1" x1="359.051" y1="-54.541" x2="-397.73" y2="702.24"/>
		<line class="st1" x1="352.384" y1="-54.541" x2="-404.397" y2="702.24"/>
		<line class="st1" x1="345.717" y1="-54.541" x2="-411.064" y2="702.24"/>
		<line class="st1" x1="339.05" y1="-54.541" x2="-417.73" y2="702.24"/>
		<line class="st1" x1="332.384" y1="-54.541" x2="-424.397" y2="702.24"/>
		<line class="st1" x1="325.717" y1="-54.541" x2="-431.064" y2="702.24"/>
		<line class="st1" x1="319.05" y1="-54.541" x2="-437.731" y2="702.24"/>
		<line class="st1" x1="312.384" y1="-54.541" x2="-444.397" y2="702.24"/>
		<line class="st1" x1="305.717" y1="-54.541" x2="-451.064" y2="702.24"/>
		<line class="st1" x1="472.385" y1="-54.541" x2="-284.396" y2="702.24"/>
		<line class="st1" x1="465.719" y1="-54.541" x2="-291.062" y2="702.24"/>
		<line class="st1" x1="459.052" y1="-54.541" x2="-297.729" y2="702.24"/>
		<line class="st1" x1="452.385" y1="-54.541" x2="-304.396" y2="702.24"/>
		<line class="st1" x1="445.718" y1="-54.541" x2="-311.063" y2="702.24"/>
		<line class="st1" x1="439.052" y1="-54.541" x2="-317.729" y2="702.24"/>
		<line class="st1" x1="432.385" y1="-54.541" x2="-324.396" y2="702.24"/>
		<line class="st1" x1="425.718" y1="-54.541" x2="-331.063" y2="702.24"/>
		<line class="st1" x1="419.051" y1="-54.541" x2="-337.73" y2="702.24"/>
		<line class="st1" x1="412.385" y1="-54.541" x2="-344.396" y2="702.24"/>
		<line class="st1" x1="405.718" y1="-54.541" x2="-351.063" y2="702.24"/>
		<line class="st1" x1="399.051" y1="-54.541" x2="-357.73" y2="702.24"/>
		<line class="st1" x1="299.05" y1="-54.541" x2="-457.731" y2="702.24"/>
		<line class="st1" x1="292.383" y1="-54.541" x2="-464.398" y2="702.24"/>
		<line class="st1" x1="285.717" y1="-54.541" x2="-471.064" y2="702.24"/>
		<line class="st1" x1="279.05" y1="-54.541" x2="-477.731" y2="702.24"/>
		<line class="st1" x1="272.383" y1="-54.541" x2="-484.398" y2="702.24"/>
		<line class="st1" x1="265.716" y1="-54.541" x2="-491.065" y2="702.24"/>
		<line class="st1" x1="259.05" y1="-54.541" x2="-497.731" y2="702.24"/>
		<line class="st1" x1="252.383" y1="-54.541" x2="-504.398" y2="702.24"/>
		<line class="st1" x1="245.716" y1="-54.541" x2="-511.065" y2="702.24"/>
		<line class="st1" x1="239.049" y1="-54.541" x2="-517.732" y2="702.24"/>
		<line class="st1" x1="225.716" y1="-54.541" x2="-531.065" y2="702.24"/>
		<line class="st1" x1="212.382" y1="-54.541" x2="-544.399" y2="702.24"/>
		<line class="st1" x1="199.049" y1="-54.541" x2="-557.732" y2="702.24"/>
		<line class="st1" x1="185.715" y1="-54.541" x2="-571.065" y2="702.24"/>
		<line class="st1" x1="172.382" y1="-54.541" x2="-584.399" y2="702.24"/>
		<line class="st1" x1="159.049" y1="-54.541" x2="-597.732" y2="702.24"/>
		<line class="st1" x1="145.715" y1="-54.541" x2="-611.066" y2="702.24"/>
		<line class="st1" x1="132.382" y1="-54.541" x2="-624.399" y2="702.24"/>
		<line class="st1" x1="119.048" y1="-54.541" x2="-637.733" y2="702.24"/>
		<line class="st1" x1="105.715" y1="-54.541" x2="-651.066" y2="702.24"/>
		<line class="st1" x1="92.381" y1="-54.541" x2="-664.4" y2="702.24"/>
		<line class="st1" x1="79.048" y1="-54.541" x2="-677.733" y2="702.24"/>
		<line class="st1" x1="65.714" y1="-54.541" x2="-691.067" y2="702.24"/>
		<line class="st1" x1="52.381" y1="-54.541" x2="-704.4" y2="702.24"/>
		<line class="st1" x1="39.047" y1="-54.541" x2="-717.734" y2="702.24"/>
		<line class="st1" x1="25.714" y1="-54.541" x2="-731.067" y2="702.24"/>
		<line class="st1" x1="12.38" y1="-54.541" x2="-744.401" y2="702.24"/>
	</g>
	<path class="st2" d="M89.032-250.961L72.92-267.073L-146.259-47.894c-5.204-2.591-11.068-4.056-17.276-4.056
		c-21.444,0-38.827,17.383-38.827,38.827c0,6.208,1.465,12.072,4.056,17.276l-242.221,242.221l16.112,16.111l241.799-241.799
		c5.637,3.188,12.144,5.017,19.082,5.017c21.444,0,38.827-17.383,38.827-38.827c0-6.938-1.829-13.446-5.017-19.082L89.032-250.961z
		 M-163.535,8.973c-12.203,0-22.095-9.892-22.095-22.095s9.892-22.095,22.095-22.095s22.095,9.892,22.095,22.095
		S-151.332,8.973-163.535,8.973z"/>
</g>
<g>
	<defs>
		<rect id="SVGID_5_" x="402.75" y="-11.401" width="501.318" height="387.223"/>
	</defs>
	<clipPath id="SVGID_4_">
		<use xlink:href="#SVGID_5_"  style="overflow:visible;"/>
	</clipPath>
	<g style="clip-path:url(#SVGID_4_);">
		<defs>
			<path id="SVGID_7_" d="M1492.197-610.5l-51.562-51.562L739.188,39.384c-16.655-8.292-35.42-12.979-55.289-12.979
				c-68.627,0-124.26,55.633-124.26,124.259c0,19.869,4.688,38.633,12.979,55.289l-775.191,775.191l51.562,51.562l773.839-773.838
				c18.04,10.204,38.866,16.056,61.07,16.056c68.627,0,124.26-55.633,124.26-124.259c0-22.204-5.852-43.031-16.056-61.07
				L1492.197-610.5z M683.899,221.377c-39.054,0-70.713-31.659-70.713-70.713s31.659-70.713,70.713-70.713
				s70.713,31.659,70.713,70.713S722.953,221.377,683.899,221.377z"/>
		</defs>
		<clipPath id="SVGID_6_">
			<use xlink:href="#SVGID_7_"  style="overflow:visible;"/>
		</clipPath>
		<g style="opacity:0.06;clip-path:url(#SVGID_6_);">
			<line class="st1" x1="784.001" y1="-237.957" x2="27.22" y2="518.824"/>
			<line class="st1" x1="770.67" y1="-237.957" x2="13.889" y2="518.824"/>
			<line class="st1" x1="757.339" y1="-237.957" x2="0.558" y2="518.824"/>
			<line class="st1" x1="744.007" y1="-237.957" x2="-12.774" y2="518.824"/>
			<line class="st1" x1="730.676" y1="-237.957" x2="-26.105" y2="518.824"/>
			<line class="st1" x1="717.345" y1="-237.957" x2="-39.436" y2="518.824"/>
			<line class="st1" x1="704.014" y1="-237.957" x2="-52.767" y2="518.824"/>
			<line class="st1" x1="690.682" y1="-237.957" x2="-66.099" y2="518.824"/>
			<line class="st1" x1="677.351" y1="-237.957" x2="-79.43" y2="518.824"/>
			<line class="st1" x1="664.02" y1="-237.957" x2="-92.761" y2="518.824"/>
			<line class="st1" x1="650.689" y1="-237.957" x2="-106.092" y2="518.824"/>
			<line class="st1" x1="644.023" y1="-237.957" x2="-112.758" y2="518.824"/>
			<line class="st1" x1="637.357" y1="-237.957" x2="-119.424" y2="518.824"/>
			<line class="st1" x1="630.692" y1="-237.957" x2="-126.089" y2="518.824"/>
			<line class="st1" x1="624.026" y1="-237.957" x2="-132.755" y2="518.824"/>
			<line class="st1" x1="617.361" y1="-237.957" x2="-139.42" y2="518.824"/>
			<line class="st1" x1="610.695" y1="-237.957" x2="-146.086" y2="518.824"/>
			<line class="st1" x1="604.029" y1="-237.957" x2="-152.752" y2="518.824"/>
			<line class="st1" x1="597.364" y1="-237.957" x2="-159.417" y2="518.824"/>
			<line class="st1" x1="590.698" y1="-237.957" x2="-166.083" y2="518.824"/>
			<line class="st1" x1="584.032" y1="-237.957" x2="-172.749" y2="518.824"/>
			<line class="st1" x1="577.367" y1="-237.957" x2="-179.414" y2="518.824"/>
			<line class="st1" x1="570.701" y1="-237.957" x2="-186.08" y2="518.824"/>
			<line class="st1" x1="564.036" y1="-237.957" x2="-192.745" y2="518.824"/>
			<line class="st1" x1="557.37" y1="-237.957" x2="-199.411" y2="518.824"/>
			<line class="st1" x1="550.704" y1="-237.957" x2="-206.077" y2="518.824"/>
			<line class="st1" x1="544.039" y1="-237.957" x2="-212.742" y2="518.824"/>
			<line class="st1" x1="537.373" y1="-237.957" x2="-219.408" y2="518.824"/>
			<line class="st1" x1="530.708" y1="-237.957" x2="-226.073" y2="518.824"/>
			<line class="st1" x1="524.042" y1="-237.957" x2="-232.739" y2="518.824"/>
			<line class="st1" x1="517.376" y1="-237.957" x2="-239.405" y2="518.824"/>
			<line class="st1" x1="510.711" y1="-237.957" x2="-246.07" y2="518.824"/>
			<line class="st1" x1="504.045" y1="-237.957" x2="-252.736" y2="518.824"/>
			<line class="st1" x1="497.379" y1="-237.957" x2="-259.402" y2="518.824"/>
			<line class="st1" x1="490.714" y1="-237.957" x2="-266.067" y2="518.824"/>
			<line class="st1" x1="484.048" y1="-237.957" x2="-272.733" y2="518.824"/>
			<line class="st1" x1="477.383" y1="-237.957" x2="-279.398" y2="518.824"/>
			<line class="st1" x1="470.717" y1="-237.957" x2="-286.064" y2="518.824"/>
			<line class="st1" x1="777.335" y1="-237.957" x2="20.554" y2="518.824"/>
			<line class="st1" x1="764.004" y1="-237.957" x2="7.223" y2="518.824"/>
			<line class="st1" x1="750.673" y1="-237.957" x2="-6.108" y2="518.824"/>
			<line class="st1" x1="737.342" y1="-237.957" x2="-19.439" y2="518.824"/>
			<line class="st1" x1="724.01" y1="-237.957" x2="-32.771" y2="518.824"/>
			<line class="st1" x1="710.679" y1="-237.957" x2="-46.102" y2="518.824"/>
			<line class="st1" x1="697.348" y1="-237.957" x2="-59.433" y2="518.824"/>
			<line class="st1" x1="684.017" y1="-237.957" x2="-72.764" y2="518.824"/>
			<line class="st1" x1="670.685" y1="-237.957" x2="-86.095" y2="518.824"/>
			<line class="st1" x1="657.354" y1="-237.957" x2="-99.427" y2="518.824"/>
		</g>
	</g>
</g>
<path class="st6" d="M26.816,27.215c-0.015,1.011-0.854,1.827-1.866,1.813l-7.775-0.112c-1.011-0.015-2.416-0.62-3.121-1.346
	L2.848,16.035C2.144,15.31,2.16,14.14,2.886,13.435L14.42,2.228c0.726-0.705,2.147-1.27,3.158-1.255l7.775,0.112
	c1.011,0.015,1.827,0.854,1.813,1.866l-0.076,5.294c-0.015,1.011-0.62,2.416-1.346,3.121l-2.433,2.364
	c-0.726,0.705-0.742,1.875-0.037,2.601l2.364,2.433c0.705,0.726,1.27,2.147,1.255,3.158L26.816,27.215z"/>
</svg>
