<?xml version="1.0" encoding="utf-8"?>
<!-- Generator: Adobe Illustrator 20.1.0, SVG Export Plug-In . SVG Version: 6.00 Build 0)  -->
<svg version="1.1" id="Layer_1" xmlns="http://www.w3.org/2000/svg" xmlns:xlink="http://www.w3.org/1999/xlink" x="0px" y="0px"
	 viewBox="0 0 25 25" style="enable-background:new 0 0 25 25;" xml:space="preserve">
<style type="text/css">
	.st0{opacity:0.06;clip-path:url(#SVGID_2_);}
	.st1{fill:none;stroke:#2E517A;stroke-miterlimit:10;}
	.st2{clip-path:url(#SVGID_2_);fill:#FFFFFF;}
	.st3{opacity:0.06;clip-path:url(#SVGID_4_);}
	.st4{clip-path:url(#SVGID_6_);}
	.st5{opacity:0.06;clip-path:url(#SVGID_8_);}
	.st6{fill:#2E517A;}
	.st7{fill:#3E5B70;}
	.st8{fill:#EC6231;}
	.st9{fill:#DF2424;}
	.st10{fill:#DF7B72;}
	.st11{fill:#FFFFFF;}
	.st12{fill:#414750;}
	.st13{fill:#252629;}
	.st14{fill:#E7E8E8;}
	.st15{fill:#1F2121;}
	.st16{fill:#050708;}
	.st17{fill:#41474F;}
	.st18{fill:url(#SVGID_11_);}
	.st19{fill:url(#SVGID_12_);}
	.st20{fill:url(#SVGID_13_);}
</style>
<g>
	<defs>
		<rect id="SVGID_1_" x="-1234.893" y="-734.854" width="600" height="600"/>
	</defs>
	<clipPath id="SVGID_2_">
		<use xlink:href="#SVGID_1_"  style="overflow:visible;"/>
	</clipPath>
</g>
<g>
	<defs>
		<rect id="SVGID_5_" x="-65.75" y="-730.568" width="501.318" height="387.223"/>
	</defs>
	<clipPath id="SVGID_4_">
		<use xlink:href="#SVGID_5_"  style="overflow:visible;"/>
	</clipPath>
	<g style="clip-path:url(#SVGID_4_);">
		<defs>
			<path id="SVGID_7_" d="M1023.697-1329.667l-51.562-51.562L270.688-679.783c-16.655-8.292-35.42-12.979-55.289-12.979
				c-68.627,0-124.259,55.633-124.259,124.259c0,19.869,4.688,38.633,12.979,55.289l-775.191,775.191l51.562,51.562l773.839-773.838
				c18.04,10.204,38.866,16.056,61.07,16.056c68.627,0,124.259-55.633,124.259-124.26c0-22.204-5.852-43.031-16.056-61.07
				L1023.697-1329.667z M215.399-497.79c-39.054,0-70.713-31.659-70.713-70.713c0-39.054,31.659-70.713,70.713-70.713
				s70.713,31.659,70.713,70.713C286.112-529.449,254.453-497.79,215.399-497.79z"/>
		</defs>
		<clipPath id="SVGID_6_">
			<use xlink:href="#SVGID_7_"  style="overflow:visible;"/>
		</clipPath>
	</g>
</g>
<rect x="1.967" y="2.462" class="st11" width="19.904" height="19.904"/>
<g>
	<g>
		<path class="st6" d="M13.41,11.323h0.02v-0.03C13.42,11.303,13.42,11.313,13.41,11.323z M13.41,11.323h0.02v-0.03
			C13.42,11.303,13.42,11.313,13.41,11.323z M13.41,11.323h0.02v-0.03C13.42,11.303,13.42,11.313,13.41,11.323z M13.41,11.323h0.02
			v-0.03C13.42,11.303,13.42,11.313,13.41,11.323z M20.55,0.503h-16c-2.1,0-4,1.9-4,4v16c0,2.06,1.83,3.93,3.89,3.99v0.01h16.22
			v-0.01c1.93-0.05,3.66-1.7,3.87-3.6V4.113C24.31,2.173,22.53,0.503,20.55,0.503z M7.8,20.593H4.18V9.753H7.8V20.593z M5.99,8.273
			H5.97c-0.65,0-1.18-0.24-1.53-0.62c-0.31-0.33-0.48-0.77-0.48-1.25c0-0.48,0.17-0.91,0.48-1.24c0.25-0.28,0.61-0.49,1.05-0.57
			c0.16-0.04,0.34-0.06,0.52-0.06s0.36,0.02,0.52,0.06c0.93,0.19,1.49,0.91,1.51,1.81C8.04,7.443,7.25,8.273,5.99,8.273z
			 M20.88,20.593h-3.63v-5.8c0-1.46-0.53-2.45-1.84-2.45c-1,0-1.59,0.67-1.86,1.32c-0.09,0.23-0.12,0.55-0.12,0.87v6.06H9.81
			c0,0,0.01-2.53,0.01-5.16c0.01-1.44,0.01-2.9,0-4c0.01-0.84,0-1.46-0.01-1.68h3.62v1.54c0.46-0.69,1.24-1.65,2.9-1.78
			c0.12-0.01,0.24-0.01,0.37-0.01c1.52,0,2.79,0.62,3.52,1.93c0.03,0.04,0.05,0.09,0.07,0.14c0.16,0.29,0.28,0.62,0.37,0.98
			c0.14,0.53,0.22,1.14,0.22,1.82V20.593z M13.43,11.323v-0.03c-0.01,0.01-0.01,0.02-0.02,0.03H13.43z M13.41,11.323h0.02v-0.03
			C13.42,11.303,13.42,11.313,13.41,11.323z M13.41,11.323h0.02v-0.03C13.42,11.303,13.42,11.313,13.41,11.323z"/>
	</g>
</g>
</svg>
