<?xml version="1.0" encoding="utf-8"?>
<!-- Generator: Adobe Illustrator 20.1.0, SVG Export Plug-In . SVG Version: 6.00 Build 0)  -->
<svg version="1.1" id="Layer_1" xmlns="http://www.w3.org/2000/svg" xmlns:xlink="http://www.w3.org/1999/xlink" x="0px" y="0px"
	 viewBox="0 0 190 160" style="enable-background:new 0 0 190 160;" xml:space="preserve">
<style type="text/css">
	.st0{opacity:0.06;clip-path:url(#SVGID_2_);}
	.st1{fill:none;stroke:#2E517A;stroke-miterlimit:10;}
	.st2{clip-path:url(#SVGID_2_);fill:#FFFFFF;}
	.st3{opacity:0.06;clip-path:url(#SVGID_4_);}
	.st4{clip-path:url(#SVGID_6_);}
	.st5{opacity:0.06;clip-path:url(#SVGID_8_);}
	.st6{fill:#2E517A;}
	.st7{fill:#3E5B70;}
	.st8{fill:#EC6231;}
	.st9{fill:#DF2424;}
	.st10{fill:#DF7B72;}
	.st11{fill:#FFFFFF;}
	.st12{fill:#414750;}
	.st13{fill:#252629;}
	.st14{fill:#E7E8E8;}
	.st15{fill:#1F2121;}
	.st16{fill:#050708;}
	.st17{fill:#41474F;}
	.st18{fill:url(#SVGID_11_);}
	.st19{fill:url(#SVGID_12_);}
	.st20{fill:url(#SVGID_13_);}
</style>
<g>
	<defs>
		<rect id="SVGID_1_" x="-686.893" y="-504.745" width="600" height="600"/>
	</defs>
	<clipPath id="SVGID_2_">
		<use xlink:href="#SVGID_1_"  style="overflow:visible;"/>
	</clipPath>
	<g class="st0">
		<line class="st1" x1="311.883" y1="-543.598" x2="-444.898" y2="213.183"/>
		<line class="st1" x1="298.549" y1="-543.598" x2="-458.232" y2="213.183"/>
		<line class="st1" x1="285.216" y1="-543.598" x2="-471.565" y2="213.183"/>
		<line class="st1" x1="271.882" y1="-543.598" x2="-484.899" y2="213.183"/>
		<line class="st1" x1="258.549" y1="-543.598" x2="-498.232" y2="213.183"/>
		<line class="st1" x1="245.215" y1="-543.598" x2="-511.566" y2="213.183"/>
		<line class="st1" x1="231.882" y1="-543.598" x2="-524.899" y2="213.183"/>
		<line class="st1" x1="218.548" y1="-543.598" x2="-538.233" y2="213.183"/>
		<line class="st1" x1="205.215" y1="-543.598" x2="-551.566" y2="213.183"/>
		<line class="st1" x1="191.881" y1="-543.598" x2="-564.9" y2="213.183"/>
		<line class="st1" x1="178.548" y1="-543.598" x2="-578.233" y2="213.183"/>
		<line class="st1" x1="165.214" y1="-543.598" x2="-591.567" y2="213.183"/>
		<line class="st1" x1="151.881" y1="-543.598" x2="-604.9" y2="213.183"/>
		<line class="st1" x1="138.547" y1="-543.598" x2="-618.234" y2="213.183"/>
		<line class="st1" x1="125.214" y1="-543.598" x2="-631.567" y2="213.183"/>
		<line class="st1" x1="111.88" y1="-543.598" x2="-644.901" y2="213.183"/>
		<line class="st1" x1="98.547" y1="-543.598" x2="-658.234" y2="213.183"/>
		<line class="st1" x1="85.214" y1="-543.598" x2="-671.568" y2="213.183"/>
		<line class="st1" x1="71.88" y1="-543.598" x2="-684.901" y2="213.183"/>
		<line class="st1" x1="58.547" y1="-543.598" x2="-698.234" y2="213.183"/>
		<line class="st1" x1="45.213" y1="-543.598" x2="-711.568" y2="213.183"/>
		<line class="st1" x1="31.88" y1="-543.598" x2="-724.901" y2="213.183"/>
		<line class="st1" x1="18.546" y1="-543.598" x2="-738.235" y2="213.183"/>
		<line class="st1" x1="5.213" y1="-543.598" x2="-751.568" y2="213.183"/>
		<line class="st1" x1="471.884" y1="-543.598" x2="-284.897" y2="213.183"/>
		<line class="st1" x1="465.218" y1="-543.598" x2="-291.563" y2="213.183"/>
		<line class="st1" x1="458.551" y1="-543.598" x2="-298.23" y2="213.183"/>
		<line class="st1" x1="451.884" y1="-543.598" x2="-304.897" y2="213.183"/>
		<line class="st1" x1="445.217" y1="-543.598" x2="-311.564" y2="213.183"/>
		<line class="st1" x1="438.551" y1="-543.598" x2="-318.23" y2="213.183"/>
		<line class="st1" x1="431.884" y1="-543.598" x2="-324.897" y2="213.183"/>
		<line class="st1" x1="425.217" y1="-543.598" x2="-331.564" y2="213.183"/>
		<line class="st1" x1="418.55" y1="-543.598" x2="-338.23" y2="213.183"/>
		<line class="st1" x1="411.884" y1="-543.598" x2="-344.897" y2="213.183"/>
		<line class="st1" x1="405.217" y1="-543.598" x2="-351.564" y2="213.183"/>
		<line class="st1" x1="398.55" y1="-543.598" x2="-358.231" y2="213.183"/>
		<line class="st1" x1="391.884" y1="-543.598" x2="-364.897" y2="213.183"/>
		<line class="st1" x1="385.217" y1="-543.598" x2="-371.564" y2="213.183"/>
		<line class="st1" x1="551.885" y1="-543.598" x2="-204.896" y2="213.183"/>
		<line class="st1" x1="545.219" y1="-543.598" x2="-211.562" y2="213.183"/>
		<line class="st1" x1="538.552" y1="-543.598" x2="-218.229" y2="213.183"/>
		<line class="st1" x1="531.885" y1="-543.598" x2="-224.896" y2="213.183"/>
		<line class="st1" x1="525.218" y1="-543.598" x2="-231.563" y2="213.183"/>
		<line class="st1" x1="518.552" y1="-543.598" x2="-238.229" y2="213.183"/>
		<line class="st1" x1="511.885" y1="-543.598" x2="-244.896" y2="213.183"/>
		<line class="st1" x1="505.218" y1="-543.598" x2="-251.563" y2="213.183"/>
		<line class="st1" x1="498.551" y1="-543.598" x2="-258.23" y2="213.183"/>
		<line class="st1" x1="491.885" y1="-543.598" x2="-264.896" y2="213.183"/>
		<line class="st1" x1="485.218" y1="-543.598" x2="-271.563" y2="213.183"/>
		<line class="st1" x1="478.551" y1="-543.598" x2="-278.23" y2="213.183"/>
		<line class="st1" x1="378.55" y1="-543.598" x2="-378.231" y2="213.183"/>
		<line class="st1" x1="371.883" y1="-543.598" x2="-384.898" y2="213.183"/>
		<line class="st1" x1="365.217" y1="-543.598" x2="-391.564" y2="213.183"/>
		<line class="st1" x1="358.55" y1="-543.598" x2="-398.231" y2="213.183"/>
		<line class="st1" x1="351.883" y1="-543.598" x2="-404.898" y2="213.183"/>
		<line class="st1" x1="345.216" y1="-543.598" x2="-411.565" y2="213.183"/>
		<line class="st1" x1="338.55" y1="-543.598" x2="-418.231" y2="213.183"/>
		<line class="st1" x1="331.883" y1="-543.598" x2="-424.898" y2="213.183"/>
		<line class="st1" x1="325.216" y1="-543.598" x2="-431.565" y2="213.183"/>
		<line class="st1" x1="318.549" y1="-543.598" x2="-438.232" y2="213.183"/>
		<line class="st1" x1="305.216" y1="-543.598" x2="-451.565" y2="213.183"/>
		<line class="st1" x1="291.882" y1="-543.598" x2="-464.899" y2="213.183"/>
		<line class="st1" x1="278.549" y1="-543.598" x2="-478.232" y2="213.183"/>
		<line class="st1" x1="265.215" y1="-543.598" x2="-491.566" y2="213.183"/>
		<line class="st1" x1="251.882" y1="-543.598" x2="-504.899" y2="213.183"/>
		<line class="st1" x1="238.549" y1="-543.598" x2="-518.232" y2="213.183"/>
		<line class="st1" x1="225.215" y1="-543.598" x2="-531.566" y2="213.183"/>
		<line class="st1" x1="211.882" y1="-543.598" x2="-544.899" y2="213.183"/>
		<line class="st1" x1="198.548" y1="-543.598" x2="-558.233" y2="213.183"/>
		<line class="st1" x1="185.215" y1="-543.598" x2="-571.566" y2="213.183"/>
		<line class="st1" x1="171.881" y1="-543.598" x2="-584.9" y2="213.183"/>
		<line class="st1" x1="158.548" y1="-543.598" x2="-598.233" y2="213.183"/>
		<line class="st1" x1="145.214" y1="-543.598" x2="-611.567" y2="213.183"/>
		<line class="st1" x1="131.881" y1="-543.598" x2="-624.9" y2="213.183"/>
		<line class="st1" x1="118.547" y1="-543.598" x2="-638.234" y2="213.183"/>
		<line class="st1" x1="105.214" y1="-543.598" x2="-651.567" y2="213.183"/>
		<line class="st1" x1="91.88" y1="-543.598" x2="-664.901" y2="213.183"/>
		<line class="st1" x1="78.547" y1="-543.598" x2="-678.234" y2="213.183"/>
		<line class="st1" x1="65.213" y1="-543.598" x2="-691.568" y2="213.183"/>
		<line class="st1" x1="51.88" y1="-543.598" x2="-704.901" y2="213.183"/>
		<line class="st1" x1="38.546" y1="-543.598" x2="-718.235" y2="213.183"/>
		<line class="st1" x1="25.213" y1="-543.598" x2="-731.568" y2="213.183"/>
		<line class="st1" x1="11.879" y1="-543.598" x2="-744.902" y2="213.183"/>
	</g>
	<path class="st2" d="M168.532-140.018L152.42-156.13L-66.759,63.049c-5.204-2.591-11.068-4.056-17.276-4.056
		c-21.444,0-38.827,17.383-38.827,38.827c0,6.208,1.465,12.072,4.056,17.276l-242.221,242.221l16.112,16.111l241.799-241.799
		c5.637,3.188,12.144,5.017,19.082,5.017c21.444,0,38.827-17.383,38.827-38.827c0-6.938-1.829-13.446-5.017-19.082L168.532-140.018z
		 M-84.035,119.916c-12.203,0-22.095-9.892-22.095-22.095s9.892-22.095,22.095-22.095s22.095,9.892,22.095,22.095
		S-71.832,119.916-84.035,119.916z"/>
</g>
<g>
	<defs>
		<rect id="SVGID_3_" x="254.5" y="-254.745" width="113.164" height="113.164"/>
	</defs>
	<clipPath id="SVGID_4_">
		<use xlink:href="#SVGID_3_"  style="overflow:visible;"/>
	</clipPath>
	<g class="st3">
		<line class="st1" x1="493.334" y1="-293.598" x2="-263.447" y2="463.183"/>
		<line class="st1" x1="480.003" y1="-293.598" x2="-276.778" y2="463.183"/>
		<line class="st1" x1="473.338" y1="-293.598" x2="-283.443" y2="463.183"/>
		<line class="st1" x1="466.672" y1="-293.598" x2="-290.109" y2="463.183"/>
		<line class="st1" x1="460.006" y1="-293.598" x2="-296.775" y2="463.183"/>
		<line class="st1" x1="453.341" y1="-293.598" x2="-303.44" y2="463.183"/>
		<line class="st1" x1="446.675" y1="-293.598" x2="-310.106" y2="463.183"/>
		<line class="st1" x1="440.009" y1="-293.598" x2="-316.772" y2="463.183"/>
		<line class="st1" x1="433.344" y1="-293.598" x2="-323.437" y2="463.183"/>
		<line class="st1" x1="426.678" y1="-293.598" x2="-330.103" y2="463.183"/>
		<line class="st1" x1="420.013" y1="-293.598" x2="-336.768" y2="463.183"/>
		<line class="st1" x1="413.347" y1="-293.598" x2="-343.434" y2="463.183"/>
		<line class="st1" x1="406.681" y1="-293.598" x2="-350.1" y2="463.183"/>
		<line class="st1" x1="400.016" y1="-293.598" x2="-356.765" y2="463.183"/>
		<line class="st1" x1="393.35" y1="-293.598" x2="-363.431" y2="463.183"/>
		<line class="st1" x1="386.685" y1="-293.598" x2="-370.096" y2="463.183"/>
		<line class="st1" x1="380.019" y1="-293.598" x2="-376.762" y2="463.183"/>
		<line class="st1" x1="373.353" y1="-293.598" x2="-383.428" y2="463.183"/>
		<line class="st1" x1="366.688" y1="-293.598" x2="-390.093" y2="463.183"/>
		<line class="st1" x1="360.022" y1="-293.598" x2="-396.759" y2="463.183"/>
		<line class="st1" x1="353.356" y1="-293.598" x2="-403.425" y2="463.183"/>
		<line class="st1" x1="346.691" y1="-293.598" x2="-410.09" y2="463.183"/>
		<line class="st1" x1="340.025" y1="-293.598" x2="-416.756" y2="463.183"/>
		<line class="st1" x1="333.36" y1="-293.598" x2="-423.421" y2="463.183"/>
		<line class="st1" x1="326.694" y1="-293.598" x2="-430.087" y2="463.183"/>
		<line class="st1" x1="320.028" y1="-293.598" x2="-436.753" y2="463.183"/>
		<line class="st1" x1="313.363" y1="-293.598" x2="-443.418" y2="463.183"/>
		<line class="st1" x1="306.697" y1="-293.598" x2="-450.084" y2="463.183"/>
		<line class="st1" x1="300.032" y1="-293.598" x2="-456.749" y2="463.183"/>
		<line class="st1" x1="486.669" y1="-293.598" x2="-270.112" y2="463.183"/>
	</g>
</g>
<g>
	<defs>
		<rect id="SVGID_5_" x="482.25" y="-500.459" width="501.318" height="387.223"/>
	</defs>
	<clipPath id="SVGID_6_">
		<use xlink:href="#SVGID_5_"  style="overflow:visible;"/>
	</clipPath>
	<g class="st4">
		<defs>
			<path id="SVGID_7_" d="M1571.697-1099.558l-51.562-51.562L818.688-449.674c-16.655-8.292-35.42-12.979-55.289-12.979
				c-68.627,0-124.26,55.633-124.26,124.26c0,19.868,4.688,38.633,12.979,55.289l-775.191,775.191l51.562,51.562L702.329-230.19
				c18.04,10.204,38.866,16.056,61.07,16.056c68.627,0,124.26-55.633,124.26-124.259c0-22.205-5.852-43.031-16.056-61.07
				L1571.697-1099.558z M763.399-267.681c-39.054,0-70.713-31.659-70.713-70.713s31.659-70.713,70.713-70.713
				s70.713,31.659,70.713,70.713S802.453-267.681,763.399-267.681z"/>
		</defs>
		<clipPath id="SVGID_8_">
			<use xlink:href="#SVGID_7_"  style="overflow:visible;"/>
		</clipPath>
		<g class="st5">
			<line class="st1" x1="943.488" y1="-727.014" x2="186.707" y2="29.767"/>
			<line class="st1" x1="930.157" y1="-727.014" x2="173.376" y2="29.767"/>
			<line class="st1" x1="916.826" y1="-727.014" x2="160.045" y2="29.767"/>
			<line class="st1" x1="903.495" y1="-727.014" x2="146.714" y2="29.767"/>
			<line class="st1" x1="890.163" y1="-727.014" x2="133.382" y2="29.767"/>
			<line class="st1" x1="876.832" y1="-727.014" x2="120.051" y2="29.767"/>
			<line class="st1" x1="863.501" y1="-727.014" x2="106.72" y2="29.767"/>
			<line class="st1" x1="850.17" y1="-727.014" x2="93.389" y2="29.767"/>
			<line class="st1" x1="836.839" y1="-727.014" x2="80.058" y2="29.767"/>
			<line class="st1" x1="823.507" y1="-727.014" x2="66.726" y2="29.767"/>
			<line class="st1" x1="810.176" y1="-727.014" x2="53.395" y2="29.767"/>
			<line class="st1" x1="796.845" y1="-727.014" x2="40.064" y2="29.767"/>
			<line class="st1" x1="783.514" y1="-727.014" x2="26.733" y2="29.767"/>
			<line class="st1" x1="770.182" y1="-727.014" x2="13.401" y2="29.767"/>
			<line class="st1" x1="756.851" y1="-727.014" x2="0.07" y2="29.767"/>
			<line class="st1" x1="743.52" y1="-727.014" x2="-13.261" y2="29.767"/>
			<line class="st1" x1="730.189" y1="-727.014" x2="-26.592" y2="29.767"/>
			<line class="st1" x1="723.523" y1="-727.014" x2="-33.258" y2="29.767"/>
			<line class="st1" x1="716.857" y1="-727.014" x2="-39.924" y2="29.767"/>
			<line class="st1" x1="710.192" y1="-727.014" x2="-46.589" y2="29.767"/>
			<line class="st1" x1="703.526" y1="-727.014" x2="-53.255" y2="29.767"/>
			<line class="st1" x1="696.861" y1="-727.014" x2="-59.92" y2="29.767"/>
			<line class="st1" x1="690.195" y1="-727.014" x2="-66.586" y2="29.767"/>
			<line class="st1" x1="683.529" y1="-727.014" x2="-73.252" y2="29.767"/>
			<line class="st1" x1="676.864" y1="-727.014" x2="-79.917" y2="29.767"/>
			<line class="st1" x1="670.198" y1="-727.014" x2="-86.583" y2="29.767"/>
			<line class="st1" x1="663.532" y1="-727.014" x2="-93.249" y2="29.767"/>
			<line class="st1" x1="656.867" y1="-727.014" x2="-99.914" y2="29.767"/>
			<line class="st1" x1="650.201" y1="-727.014" x2="-106.58" y2="29.767"/>
			<line class="st1" x1="643.536" y1="-727.014" x2="-113.245" y2="29.767"/>
			<line class="st1" x1="636.87" y1="-727.014" x2="-119.911" y2="29.767"/>
			<line class="st1" x1="630.204" y1="-727.014" x2="-126.577" y2="29.767"/>
			<line class="st1" x1="623.539" y1="-727.014" x2="-133.242" y2="29.767"/>
			<line class="st1" x1="616.873" y1="-727.014" x2="-139.908" y2="29.767"/>
			<line class="st1" x1="610.208" y1="-727.014" x2="-146.573" y2="29.767"/>
			<line class="st1" x1="603.542" y1="-727.014" x2="-153.239" y2="29.767"/>
			<line class="st1" x1="596.876" y1="-727.014" x2="-159.905" y2="29.767"/>
			<line class="st1" x1="590.211" y1="-727.014" x2="-166.57" y2="29.767"/>
			<line class="st1" x1="583.545" y1="-727.014" x2="-173.236" y2="29.767"/>
			<line class="st1" x1="576.879" y1="-727.014" x2="-179.902" y2="29.767"/>
			<line class="st1" x1="570.214" y1="-727.014" x2="-186.567" y2="29.767"/>
			<line class="st1" x1="563.548" y1="-727.014" x2="-193.233" y2="29.767"/>
			<line class="st1" x1="556.883" y1="-727.014" x2="-199.898" y2="29.767"/>
			<line class="st1" x1="550.217" y1="-727.014" x2="-206.564" y2="29.767"/>
			<line class="st1" x1="936.823" y1="-727.014" x2="180.042" y2="29.767"/>
			<line class="st1" x1="923.492" y1="-727.014" x2="166.711" y2="29.767"/>
			<line class="st1" x1="910.16" y1="-727.014" x2="153.379" y2="29.767"/>
			<line class="st1" x1="896.829" y1="-727.014" x2="140.048" y2="29.767"/>
			<line class="st1" x1="883.498" y1="-727.014" x2="126.717" y2="29.767"/>
			<line class="st1" x1="870.167" y1="-727.014" x2="113.386" y2="29.767"/>
			<line class="st1" x1="856.835" y1="-727.014" x2="100.054" y2="29.767"/>
			<line class="st1" x1="843.504" y1="-727.014" x2="86.723" y2="29.767"/>
			<line class="st1" x1="830.173" y1="-727.014" x2="73.392" y2="29.767"/>
			<line class="st1" x1="816.842" y1="-727.014" x2="60.061" y2="29.767"/>
			<line class="st1" x1="803.51" y1="-727.014" x2="46.729" y2="29.767"/>
			<line class="st1" x1="790.179" y1="-727.014" x2="33.398" y2="29.767"/>
			<line class="st1" x1="776.848" y1="-727.014" x2="20.067" y2="29.767"/>
			<line class="st1" x1="763.517" y1="-727.014" x2="6.736" y2="29.767"/>
			<line class="st1" x1="750.185" y1="-727.014" x2="-6.595" y2="29.767"/>
			<line class="st1" x1="736.854" y1="-727.014" x2="-19.927" y2="29.767"/>
		</g>
	</g>
</g>
<g>
	
		<ellipse transform="matrix(0.7974 -0.6034 0.6034 0.7974 -57.2327 63.0547)" class="st10" cx="65.293" cy="116.766" rx="10.273" ry="12.526"/>
	<path class="st11" d="M178.33,100.613c-32.27,2.83-64.55,5.66-96.83,8.5c-2.36-7.47-4.72-14.93-7.07-22.4
		c-3.15-9.98-6.3-19.96-9.45-29.94c28.32-15.97,56.65-31.95,84.97-47.92c3.93,12.72,7.87,25.44,11.8,38.16
		C167.28,64.883,172.8,82.743,178.33,100.613z"/>
	<g>
		<path class="st12" d="M36.785,108.004c0.982,3.151-0.793,6.531-3.944,7.512l-10.253,3.192c-3.151,0.981-6.136,0.474-6.634-1.126
			s-1.265-4.06-1.705-5.465s-1.063-3.401-1.385-4.435s-0.943-3.03-1.38-4.435s-1.07-3.439-1.405-4.52s-0.97-3.115-1.41-4.52
			s-1.288-4.126-1.885-6.045s1.493-4.293,4.644-5.274l10.253-3.192c3.151-0.981,6.532,0.794,7.513,3.945L36.785,108.004z"/>
	</g>
	<g>
		<path class="st13" d="M83.919,144.491c1.518,2.93,0.363,6.569-2.566,8.088l-2.642,1.369c-2.93,1.518-6.569,0.363-8.088-2.566
			l-18.427-35.558c-1.518-2.93-0.363-6.569,2.566-8.088l2.642-1.369c2.93-1.518,6.569-0.363,8.088,2.566L83.919,144.491z"/>
	</g>
	<path class="st14" d="M178.33,100.613c-32.27,2.83-64.55,5.66-96.83,8.5c-2.36-7.47-4.72-14.93-7.07-22.4
		c29.11-13.24,58.21-26.47,87.32-39.7c0.02-0.01,0.05-0.02,0.07-0.03C167.33,64.853,172.83,82.733,178.33,100.613z"/>
	<g>
		<path class="st12" d="M184.195,94.363c0.981,3.151-0.794,6.531-3.945,7.512l-1.591,0.495c-3.151,0.981-6.531-0.794-7.512-3.945
			l-26.675-85.672c-0.981-3.151,0.794-6.531,3.945-7.512l1.591-0.495c3.151-0.981,6.531,0.794,7.512,3.945L184.195,94.363z"/>
	</g>
	<polygon class="st15" points="32.355,118.055 45.154,120.325 28.939,68.248 19.691,77.383 	"/>
	<polygon class="st16" points="55.65,122.49 69.302,116.286 61.75,102.443 49.625,111.318 	"/>
	
		<rect x="36.187" y="61.382" transform="matrix(0.9548 -0.2973 0.2973 0.9548 -23.8627 20.3986)" class="st17" width="37.893" height="54.543"/>
	<path class="st15" d="M16.33,94.623l-6.86,2.14l-1.6-5.11l6.86-2.14c1.58-0.49,3.23,0.26,3.66,1.66
		C18.83,92.583,17.9,94.133,16.33,94.623z"/>
	<path class="st15" d="M19.14,103.663l-6.86,2.14l-1.59-5.11l6.86-2.14c1.57-0.49,3.22,0.26,3.66,1.66
		C21.65,101.623,20.72,103.173,19.14,103.663z"/>
	<path class="st15" d="M21.9,112.533l-6.85,2.14l-1.6-5.11l6.86-2.14c1.58-0.49,3.22,0.26,3.66,1.66
		C24.41,110.493,23.48,112.043,21.9,112.533z"/>
	<polygon class="st13" points="32.355,118.055 45.154,120.325 40.632,105.802 28.998,107.276 	"/>
</g>
</svg>
