<?xml version="1.0" encoding="utf-8"?>
<!-- Generator: Adobe Illustrator 20.1.0, SVG Export Plug-In . SVG Version: 6.00 Build 0)  -->
<svg version="1.1" id="Layer_1" xmlns="http://www.w3.org/2000/svg" xmlns:xlink="http://www.w3.org/1999/xlink" x="0px" y="0px"
	 viewBox="0 0 160 34" style="enable-background:new 0 0 160 34;" xml:space="preserve">
<style type="text/css">
	.st0{opacity:0.06;clip-path:url(#SVGID_2_);}
	.st1{fill:none;stroke:#2E517A;stroke-miterlimit:10;}
	.st2{clip-path:url(#SVGID_2_);fill:#FFFFFF;}
	.st3{opacity:0.06;clip-path:url(#SVGID_4_);}
	.st4{clip-path:url(#SVGID_6_);}
	.st5{opacity:0.06;clip-path:url(#SVGID_8_);}
	.st6{fill:#2E517A;}
	.st7{fill:#3E5B70;}
	.st8{fill:#EC6231;}
	.st9{fill:#DF2424;}
	.st10{fill:#DF7B72;}
	.st11{fill:#FFFFFF;}
	.st12{fill:#414750;}
	.st13{fill:#252629;}
	.st14{fill:#E7E8E8;}
	.st15{fill:#1F2121;}
	.st16{fill:#050708;}
	.st17{fill:#41474F;}
	.st18{font-family:'NeoSans-Bold';}
	.st19{font-size:25.7207px;}
	.st20{fill:url(#SVGID_11_);}
	.st21{fill:url(#SVGID_12_);}
	.st22{fill:url(#SVGID_13_);}
	.st23{font-size:8.2424px;}
</style>
<g>
	<defs>
		<rect id="SVGID_1_" x="-1137.742" y="-663.59" width="600" height="600"/>
	</defs>
	<clipPath id="SVGID_2_">
		<use xlink:href="#SVGID_1_"  style="overflow:visible;"/>
	</clipPath>
	<g class="st0">
		<line class="st1" x1="21.035" y1="-702.443" x2="-735.746" y2="54.338"/>
		<line class="st1" x1="14.369" y1="-702.443" x2="-742.412" y2="54.338"/>
		<line class="st1" x1="7.702" y1="-702.443" x2="-749.079" y2="54.338"/>
		<line class="st1" x1="1.035" y1="-702.443" x2="-755.746" y2="54.338"/>
		<line class="st1" x1="101.036" y1="-702.443" x2="-655.745" y2="54.338"/>
		<line class="st1" x1="94.37" y1="-702.443" x2="-662.411" y2="54.338"/>
		<line class="st1" x1="87.703" y1="-702.443" x2="-669.078" y2="54.338"/>
		<line class="st1" x1="81.036" y1="-702.443" x2="-675.745" y2="54.338"/>
		<line class="st1" x1="74.369" y1="-702.443" x2="-682.412" y2="54.338"/>
		<line class="st1" x1="67.703" y1="-702.443" x2="-689.078" y2="54.338"/>
		<line class="st1" x1="61.036" y1="-702.443" x2="-695.745" y2="54.338"/>
		<line class="st1" x1="54.369" y1="-702.443" x2="-702.412" y2="54.338"/>
		<line class="st1" x1="47.702" y1="-702.443" x2="-709.079" y2="54.338"/>
		<line class="st1" x1="41.036" y1="-702.443" x2="-715.745" y2="54.338"/>
		<line class="st1" x1="34.369" y1="-702.443" x2="-722.412" y2="54.338"/>
		<line class="st1" x1="27.702" y1="-702.443" x2="-729.079" y2="54.338"/>
	</g>
</g>
<g>
	<defs>
		<rect id="SVGID_3_" x="-196.349" y="-413.59" width="113.164" height="113.164"/>
	</defs>
	<clipPath id="SVGID_4_">
		<use xlink:href="#SVGID_3_"  style="overflow:visible;"/>
	</clipPath>
	<g class="st3">
		<line class="st1" x1="42.485" y1="-452.443" x2="-714.296" y2="304.338"/>
		<line class="st1" x1="29.154" y1="-452.443" x2="-727.627" y2="304.338"/>
		<line class="st1" x1="22.489" y1="-452.443" x2="-734.292" y2="304.338"/>
		<line class="st1" x1="15.823" y1="-452.443" x2="-740.958" y2="304.338"/>
		<line class="st1" x1="9.157" y1="-452.443" x2="-747.624" y2="304.338"/>
		<line class="st1" x1="2.492" y1="-452.443" x2="-754.289" y2="304.338"/>
		<line class="st1" x1="35.82" y1="-452.443" x2="-720.961" y2="304.338"/>
	</g>
</g>
<g>
	<defs>
		<rect id="SVGID_5_" x="31.401" y="-659.304" width="501.318" height="387.223"/>
	</defs>
	<clipPath id="SVGID_6_">
		<use xlink:href="#SVGID_5_"  style="overflow:visible;"/>
	</clipPath>
	<g class="st4">
		<defs>
			<path id="SVGID_7_" d="M1120.848-1258.403l-51.562-51.562L367.839-608.519c-16.655-8.292-35.42-12.979-55.289-12.979
				c-68.627,0-124.259,55.633-124.259,124.26c0,19.868,4.688,38.633,12.979,55.289l-775.191,775.191l51.562,51.562L251.48-389.035
				c18.04,10.204,38.866,16.056,61.07,16.056c68.627,0,124.259-55.633,124.259-124.259c0-22.205-5.852-43.031-16.056-61.07
				L1120.848-1258.403z M312.55-426.525c-39.054,0-70.713-31.659-70.713-70.713s31.659-70.713,70.713-70.713
				s70.713,31.659,70.713,70.713S351.604-426.525,312.55-426.525z"/>
		</defs>
		<clipPath id="SVGID_8_">
			<use xlink:href="#SVGID_7_"  style="overflow:visible;"/>
		</clipPath>
	</g>
</g>
<g>
	<g>
		<g>
			<g>
				<text transform="matrix(1 0 0 1 51.9208 20.8082)" class="st6 st18 st19">memoria</text>
			</g>
			<g>
				<linearGradient id="SVGID_10_" gradientUnits="userSpaceOnUse" x1="17.8925" y1="17.8319" x2="43.8234" y2="17.8319">
					<stop  offset="0" style="stop-color:#29235C"/>
					<stop  offset="1" style="stop-color:#1D71B8"/>
				</linearGradient>
				<path style="fill:url(#SVGID_10_);" d="M43.463,25.29L36.551,6.297c-0.864-2.374-3.084-3.856-5.504-3.909l-0.015-0.001
					c-0.023,0-0.059,0.001-0.112,0.001h-0.092c-0.076,0-0.122-0.002-0.139-0.001l-0.017,0.001l-0.036,0.001
					c-2.386,0.052-4.604,1.534-5.468,3.908l-1.932,5.308c1.276,0.947,2.107,2.46,2.107,4.171c0,2.87-2.326,5.196-5.196,5.196
					c-0.106,0-0.21-0.01-0.314-0.016l-1.578,4.334c-0.245,0.675-0.362,1.359-0.362,2.033c0.002,2.428,1.5,4.712,3.918,5.593
					c0.674,0.244,1.359,0.359,2.036,0.359c2.237,0,4.353-1.278,5.357-3.371l3.435-9.303l-0.222,9.088
					c0.959,2.221,3.139,3.586,5.456,3.587c0.674,0,1.359-0.116,2.035-0.36c2.418-0.879,3.915-3.162,3.917-5.591
					C43.823,26.65,43.708,25.964,43.463,25.29z"/>
				<linearGradient id="SVGID_11_" gradientUnits="userSpaceOnUse" x1="1.9895" y1="17.8279" x2="20.8068" y2="17.8279">
					<stop  offset="0" style="stop-color:#29235C"/>
					<stop  offset="1" style="stop-color:#1D71B8"/>
				</linearGradient>
				<path class="st20" d="M14.949,15.777c0-2.87,2.326-5.196,5.196-5.196c0.074,0,0.146,0.008,0.219,0.011l0.082-0.223
					c0.245-0.677,0.36-1.365,0.36-2.037c-0.002-2.428-1.499-4.713-3.917-5.591c-0.674-0.246-1.36-0.359-2.035-0.362
					c-2.429,0.003-4.714,1.5-5.591,3.918L2.35,25.294c-0.245,0.67-0.36,1.356-0.36,2.031c0.002,2.429,1.501,4.714,3.916,5.591
					c0.675,0.244,1.362,0.36,2.037,0.36c2.429-0.001,4.714-1.499,5.592-3.917l3.446-9.469
					C15.747,18.941,14.949,17.454,14.949,15.777z"/>
				<linearGradient id="SVGID_12_" gradientUnits="userSpaceOnUse" x1="17.4602" y1="15.7768" x2="22.8311" y2="15.7768">
					<stop  offset="0" style="stop-color:#29235C"/>
					<stop  offset="1" style="stop-color:#1D71B8"/>
				</linearGradient>
				<circle class="st21" cx="20.146" cy="15.777" r="2.686"/>
			</g>
		</g>
	</g>
	<g>
		<g>
			<g>
				<text transform="matrix(1 0 0 1 140.8954 29.7989)" class="st6 st18 st23">data</text>
			</g>
			<g>
				<text transform="matrix(1 0 0 1 87.5888 29.7989)" class="st6 st18 st23">technology</text>
			</g>
			<g>
				<text transform="matrix(1 0 0 1 52.9208 29.7989)" class="st6 st18 st23">people</text>
			</g>
			<path class="st6" d="M82.592,26.224c0.002-0.113,0.096-0.205,0.209-0.203l0.871,0.013c0.113,0.002,0.271,0.069,0.35,0.151
				l1.256,1.292c0.079,0.081,0.077,0.212-0.004,0.291l-1.292,1.256c-0.081,0.079-0.241,0.142-0.354,0.141l-0.871-0.013
				c-0.113-0.002-0.205-0.096-0.203-0.209l0.009-0.593c0.002-0.113,0.069-0.271,0.151-0.35l0.273-0.265
				c0.081-0.079,0.083-0.21,0.004-0.291l-0.265-0.273c-0.079-0.081-0.142-0.241-0.141-0.354L82.592,26.224z"/>
			<path class="st6" d="M135.241,26.224c0.002-0.113,0.096-0.205,0.209-0.203l0.871,0.013c0.113,0.002,0.271,0.069,0.35,0.151
				l1.256,1.292c0.079,0.081,0.077,0.212-0.004,0.291l-1.292,1.256c-0.081,0.079-0.241,0.142-0.354,0.141l-0.871-0.013
				c-0.113-0.002-0.205-0.096-0.203-0.209l0.009-0.593c0.002-0.113,0.069-0.271,0.151-0.35l0.273-0.265
				c0.081-0.079,0.083-0.21,0.004-0.291l-0.265-0.273c-0.079-0.081-0.142-0.241-0.141-0.354L135.241,26.224z"/>
		</g>
	</g>
</g>
</svg>
