<?xml version="1.0" encoding="utf-8"?>
<!-- Generator: Adobe Illustrator 20.1.0, SVG Export Plug-In . SVG Version: 6.00 Build 0)  -->
<svg version="1.1" id="Layer_1" xmlns="http://www.w3.org/2000/svg" xmlns:xlink="http://www.w3.org/1999/xlink" x="0px" y="0px"
	 viewBox="0 0 160 34" style="enable-background:new 0 0 160 34;" xml:space="preserve">
<style type="text/css">
	.st0{opacity:0.06;clip-path:url(#SVGID_2_);}
	.st1{fill:none;stroke:#2E517A;stroke-miterlimit:10;}
	.st2{clip-path:url(#SVGID_2_);fill:#FFFFFF;}
	.st3{opacity:0.06;clip-path:url(#SVGID_4_);}
	.st4{clip-path:url(#SVGID_6_);}
	.st5{opacity:0.06;clip-path:url(#SVGID_8_);}
	.st6{fill:#2E517A;}
	.st7{fill:#3E5B70;}
	.st8{fill:#EC6231;}
	.st9{fill:#DF2424;}
	.st10{fill:#DF7B72;}
	.st11{fill:#FFFFFF;}
	.st12{fill:#414750;}
	.st13{fill:#252629;}
	.st14{fill:#E7E8E8;}
	.st15{fill:#1F2121;}
	.st16{fill:#050708;}
	.st17{fill:#41474F;}
	.st18{fill:url(#SVGID_11_);}
	.st19{fill:url(#SVGID_12_);}
	.st20{fill:url(#SVGID_13_);}
</style>
<g>
	<defs>
		<rect id="SVGID_1_" x="-1137.742" y="-663.59" width="600" height="600"/>
	</defs>
	<clipPath id="SVGID_2_">
		<use xlink:href="#SVGID_1_"  style="overflow:visible;"/>
	</clipPath>
	<g class="st0">
		<line class="st1" x1="21.035" y1="-702.443" x2="-735.746" y2="54.338"/>
		<line class="st1" x1="14.369" y1="-702.443" x2="-742.412" y2="54.338"/>
		<line class="st1" x1="7.702" y1="-702.443" x2="-749.079" y2="54.338"/>
		<line class="st1" x1="1.035" y1="-702.443" x2="-755.746" y2="54.338"/>
		<line class="st1" x1="101.036" y1="-702.443" x2="-655.745" y2="54.338"/>
		<line class="st1" x1="94.37" y1="-702.443" x2="-662.411" y2="54.338"/>
		<line class="st1" x1="87.703" y1="-702.443" x2="-669.078" y2="54.338"/>
		<line class="st1" x1="81.036" y1="-702.443" x2="-675.745" y2="54.338"/>
		<line class="st1" x1="74.369" y1="-702.443" x2="-682.412" y2="54.338"/>
		<line class="st1" x1="67.703" y1="-702.443" x2="-689.078" y2="54.338"/>
		<line class="st1" x1="61.036" y1="-702.443" x2="-695.745" y2="54.338"/>
		<line class="st1" x1="54.369" y1="-702.443" x2="-702.412" y2="54.338"/>
		<line class="st1" x1="47.702" y1="-702.443" x2="-709.079" y2="54.338"/>
		<line class="st1" x1="41.036" y1="-702.443" x2="-715.745" y2="54.338"/>
		<line class="st1" x1="34.369" y1="-702.443" x2="-722.412" y2="54.338"/>
		<line class="st1" x1="27.702" y1="-702.443" x2="-729.079" y2="54.338"/>
	</g>
</g>
<g>
	<defs>
		<rect id="SVGID_3_" x="-196.349" y="-413.59" width="113.164" height="113.164"/>
	</defs>
	<clipPath id="SVGID_4_">
		<use xlink:href="#SVGID_3_"  style="overflow:visible;"/>
	</clipPath>
	<g class="st3">
		<line class="st1" x1="42.485" y1="-452.443" x2="-714.296" y2="304.338"/>
		<line class="st1" x1="29.154" y1="-452.443" x2="-727.627" y2="304.338"/>
		<line class="st1" x1="22.489" y1="-452.443" x2="-734.292" y2="304.338"/>
		<line class="st1" x1="15.823" y1="-452.443" x2="-740.958" y2="304.338"/>
		<line class="st1" x1="9.157" y1="-452.443" x2="-747.624" y2="304.338"/>
		<line class="st1" x1="2.492" y1="-452.443" x2="-754.289" y2="304.338"/>
		<line class="st1" x1="35.82" y1="-452.443" x2="-720.961" y2="304.338"/>
	</g>
</g>
<g>
	<defs>
		<rect id="SVGID_5_" x="31.401" y="-659.304" width="501.318" height="387.223"/>
	</defs>
	<clipPath id="SVGID_6_">
		<use xlink:href="#SVGID_5_"  style="overflow:visible;"/>
	</clipPath>
	<g class="st4">
		<defs>
			<path id="SVGID_7_" d="M1120.848-1258.403l-51.562-51.562L367.839-608.519c-16.655-8.292-35.42-12.979-55.289-12.979
				c-68.627,0-124.259,55.633-124.259,124.26c0,19.868,4.688,38.633,12.979,55.289l-775.191,775.191l51.562,51.562L251.48-389.035
				c18.04,10.204,38.866,16.056,61.07,16.056c68.627,0,124.259-55.633,124.259-124.259c0-22.205-5.852-43.031-16.056-61.07
				L1120.848-1258.403z M312.55-426.525c-39.054,0-70.713-31.659-70.713-70.713s31.659-70.713,70.713-70.713
				s70.713,31.659,70.713,70.713S351.604-426.525,312.55-426.525z"/>
		</defs>
		<clipPath id="SVGID_8_">
			<use xlink:href="#SVGID_7_"  style="overflow:visible;"/>
		</clipPath>
	</g>
</g>
<g>
	<g>
		<g>
			<g>
				<g>
					<path class="st6" d="M72.716,20.641c-0.111,0.111-0.236,0.167-0.373,0.167h-3.112c-0.138,0-0.257-0.056-0.36-0.167
						c-0.103-0.112-0.154-0.236-0.154-0.374v-8.79c0-0.825-0.111-1.389-0.334-1.688c-0.223-0.301-0.635-0.451-1.235-0.451
						c-0.223,0-0.51,0.029-0.862,0.09s-0.724,0.185-1.119,0.374c0.051,0.516,0.077,1.074,0.077,1.676v8.79
						c0,0.138-0.051,0.262-0.154,0.374c-0.103,0.111-0.223,0.167-0.36,0.167h-3.112c-0.138,0-0.262-0.056-0.373-0.167
						c-0.112-0.112-0.167-0.236-0.167-0.374v-8.79c0-0.825-0.099-1.389-0.296-1.688c-0.197-0.301-0.596-0.451-1.196-0.451
						c-0.24,0-0.527,0.06-0.861,0.18c-0.334,0.121-0.699,0.284-1.093,0.49v10.26c0,0.138-0.051,0.262-0.154,0.374
						c-0.103,0.111-0.223,0.167-0.36,0.167h-3.112c-0.138,0-0.262-0.056-0.373-0.167c-0.112-0.111-0.167-0.235-0.167-0.373V6.584
						c0-0.137,0.051-0.257,0.154-0.359c0.103-0.104,0.223-0.154,0.36-0.154h2.932c0.137,0,0.257,0.051,0.36,0.152
						c0.103,0.103,0.154,0.222,0.154,0.357v0.561c0.548-0.357,1.131-0.659,1.749-0.906c0.617-0.247,1.303-0.37,2.058-0.37
						c0.686,0,1.273,0.099,1.762,0.296s0.913,0.519,1.273,0.964c0.377-0.205,0.729-0.39,1.055-0.553
						c0.326-0.162,0.651-0.296,0.978-0.398c0.326-0.103,0.664-0.18,1.016-0.231c0.351-0.052,0.733-0.077,1.145-0.077
						c0.857,0,1.569,0.138,2.135,0.411c0.566,0.274,1.016,0.656,1.35,1.145c0.334,0.489,0.574,1.081,0.72,1.775
						c0.146,0.694,0.219,1.462,0.219,2.302v8.771C72.883,20.405,72.827,20.529,72.716,20.641z"/>
					<path class="st6" d="M87.904,14.737h-8.205v0.052c0,0.356,0.042,0.705,0.128,1.045c0.085,0.34,0.231,0.637,0.437,0.892
						c0.206,0.255,0.476,0.459,0.811,0.612c0.334,0.152,0.759,0.229,1.273,0.229c0.412,0,0.849-0.009,1.312-0.026
						c0.463-0.017,0.921-0.034,1.376-0.051c0.454-0.018,0.878-0.043,1.273-0.077s0.72-0.061,0.978-0.077h0.077
						c0.326,0,0.489,0.138,0.489,0.412v1.97c0,0.208-0.035,0.362-0.103,0.467c-0.069,0.104-0.214,0.182-0.437,0.233
						c-0.823,0.207-1.629,0.362-2.418,0.466c-0.789,0.104-1.741,0.155-2.855,0.155c-0.771,0-1.543-0.111-2.315-0.334
						c-0.771-0.223-1.466-0.592-2.083-1.106c-0.617-0.514-1.115-1.195-1.492-2.045c-0.377-0.849-0.566-1.89-0.566-3.125v-1.8
						c0-1.029,0.146-1.964,0.438-2.804c0.292-0.84,0.716-1.552,1.273-2.135s1.239-1.033,2.045-1.351
						c0.806-0.317,1.723-0.476,2.752-0.476c1.063,0,1.989,0.172,2.778,0.515s1.449,0.814,1.98,1.414
						c0.532,0.601,0.93,1.312,1.196,2.135c0.266,0.823,0.398,1.724,0.398,2.701v1.491C88.444,14.532,88.264,14.737,87.904,14.737z
						 M84.38,12.063c0-0.96-0.206-1.676-0.618-2.147c-0.411-0.472-0.977-0.707-1.697-0.707s-1.295,0.24-1.724,0.72
						c-0.429,0.48-0.643,1.192-0.643,2.135v0.104h4.681V12.063z"/>
					<path class="st6" d="M110.397,20.641c-0.111,0.111-0.236,0.167-0.373,0.167h-3.112c-0.138,0-0.257-0.056-0.36-0.167
						c-0.103-0.112-0.154-0.236-0.154-0.374v-8.79c0-0.825-0.111-1.389-0.334-1.688c-0.223-0.301-0.635-0.451-1.235-0.451
						c-0.223,0-0.51,0.029-0.862,0.09s-0.724,0.185-1.119,0.374c0.051,0.516,0.077,1.074,0.077,1.676v8.79
						c0,0.138-0.051,0.262-0.154,0.374c-0.103,0.111-0.223,0.167-0.36,0.167h-3.112c-0.138,0-0.262-0.056-0.373-0.167
						c-0.112-0.112-0.167-0.236-0.167-0.374v-8.79c0-0.825-0.099-1.389-0.296-1.688c-0.197-0.301-0.596-0.451-1.196-0.451
						c-0.24,0-0.527,0.06-0.861,0.18c-0.334,0.121-0.699,0.284-1.093,0.49v10.26c0,0.138-0.051,0.262-0.154,0.374
						c-0.103,0.111-0.223,0.167-0.36,0.167h-3.112c-0.138,0-0.262-0.056-0.373-0.167c-0.112-0.111-0.167-0.235-0.167-0.373V6.584
						c0-0.137,0.051-0.257,0.154-0.359c0.103-0.104,0.223-0.154,0.36-0.154h2.932c0.137,0,0.257,0.051,0.36,0.152
						c0.103,0.103,0.154,0.222,0.154,0.357v0.561c0.548-0.357,1.131-0.659,1.749-0.906c0.617-0.247,1.303-0.37,2.058-0.37
						c0.686,0,1.273,0.099,1.762,0.296s0.913,0.519,1.273,0.964c0.377-0.205,0.729-0.39,1.055-0.553
						c0.326-0.162,0.651-0.296,0.978-0.398c0.326-0.103,0.664-0.18,1.016-0.231c0.351-0.052,0.733-0.077,1.145-0.077
						c0.857,0,1.569,0.138,2.135,0.411c0.566,0.274,1.016,0.656,1.35,1.145c0.334,0.489,0.574,1.081,0.72,1.775
						c0.146,0.694,0.219,1.462,0.219,2.302v8.771C110.564,20.405,110.508,20.529,110.397,20.641z"/>
					<path class="st6" d="M125.7,17.13c-0.283,0.823-0.694,1.521-1.234,2.096c-0.54,0.575-1.209,1.021-2.006,1.338
						s-1.719,0.476-2.765,0.476s-1.967-0.158-2.765-0.476s-1.471-0.763-2.019-1.338c-0.549-0.574-0.965-1.272-1.248-2.096
						c-0.283-0.823-0.424-1.749-0.424-2.778v-1.8c0-1.029,0.141-1.955,0.424-2.778c0.283-0.823,0.698-1.521,1.248-2.096
						c0.548-0.574,1.222-1.021,2.019-1.338s1.719-0.476,2.765-0.476s1.968,0.158,2.765,0.476s1.466,0.764,2.006,1.338
						s0.952,1.272,1.234,2.096c0.283,0.823,0.424,1.749,0.424,2.778v1.8C126.125,15.381,125.983,16.307,125.7,17.13z
						 M121.958,12.552c0-2.092-0.755-3.138-2.264-3.138c-0.746,0-1.314,0.261-1.704,0.784c-0.39,0.523-0.585,1.308-0.585,2.354v1.8
						c0,1.047,0.195,1.835,0.585,2.367c0.39,0.531,0.958,0.797,1.704,0.797c1.509,0,2.264-1.055,2.264-3.164V12.552z"/>
					<path class="st6" d="M136.773,9.181c-0.069,0.104-0.163,0.156-0.283,0.156h-0.206c-0.634,0-1.226,0.085-1.774,0.256
						c-0.549,0.172-1.063,0.386-1.543,0.642v10.034c0,0.138-0.051,0.262-0.154,0.372c-0.103,0.111-0.223,0.167-0.36,0.167h-3.112
						c-0.138,0-0.262-0.056-0.373-0.167c-0.112-0.111-0.167-0.235-0.167-0.373V6.584c0-0.137,0.051-0.257,0.154-0.359
						c0.103-0.104,0.223-0.154,0.36-0.154h3.061c0.137,0,0.257,0.052,0.36,0.155s0.154,0.225,0.154,0.363v0.52
						c0.48-0.397,1.024-0.704,1.633-0.92c0.608-0.216,1.222-0.324,1.839-0.324c0.137,0,0.257,0.052,0.36,0.155
						c0.103,0.104,0.154,0.225,0.154,0.363v2.461C136.876,8.965,136.841,9.077,136.773,9.181z"/>
					<path class="st6" d="M143.203,4.244c-0.103,0.103-0.223,0.154-0.36,0.154h-3.344c-0.137,0-0.257-0.052-0.36-0.154
						c-0.103-0.104-0.154-0.223-0.154-0.36V1.491c0-0.137,0.051-0.257,0.154-0.359c0.103-0.104,0.223-0.154,0.36-0.154h3.344
						c0.137,0,0.257,0.051,0.36,0.154c0.103,0.103,0.154,0.223,0.154,0.359v2.393C143.357,4.022,143.306,4.141,143.203,4.244z
						 M143.1,20.653c-0.103,0.104-0.223,0.154-0.36,0.154h-3.138c-0.138,0-0.257-0.051-0.36-0.154
						c-0.103-0.103-0.154-0.223-0.154-0.36V6.584c0-0.137,0.052-0.257,0.154-0.359c0.103-0.104,0.223-0.154,0.36-0.154h3.138
						c0.137,0,0.257,0.051,0.36,0.154c0.103,0.103,0.154,0.223,0.154,0.359v13.709C143.254,20.431,143.203,20.551,143.1,20.653z"/>
					<path class="st6" d="M157.658,20.653c-0.103,0.104-0.223,0.154-0.36,0.154h-2.881c-0.137,0-0.257-0.051-0.36-0.154
						c-0.103-0.103-0.154-0.223-0.154-0.36v-0.411c-0.498,0.36-1.025,0.644-1.582,0.849c-0.558,0.206-1.222,0.309-1.993,0.309
						c-0.566,0-1.111-0.073-1.633-0.219c-0.523-0.146-0.99-0.39-1.402-0.732s-0.742-0.798-0.99-1.363
						c-0.249-0.566-0.373-1.269-0.373-2.109v-0.231c0-1.509,0.501-2.61,1.505-3.305c1.003-0.694,2.61-1.042,4.822-1.042h1.389
						v-0.926c0-0.737-0.172-1.218-0.515-1.44c-0.343-0.223-0.814-0.334-1.415-0.334c-0.412,0-0.828,0.004-1.248,0.013
						c-0.42,0.009-0.823,0.021-1.208,0.038c-0.386,0.018-0.733,0.039-1.042,0.064s-0.566,0.048-0.771,0.064h-0.128
						c-0.138,0-0.249-0.034-0.334-0.103c-0.086-0.068-0.129-0.188-0.129-0.36V6.97c0-0.291,0.163-0.479,0.489-0.565
						c0.48-0.12,1.127-0.24,1.942-0.36c0.814-0.119,1.65-0.18,2.508-0.18c0.926,0,1.762,0.099,2.508,0.296s1.376,0.506,1.891,0.926
						c0.514,0.42,0.913,0.961,1.196,1.62c0.283,0.66,0.424,1.462,0.424,2.405v9.182C157.812,20.431,157.761,20.551,157.658,20.653z
						 M153.723,14.506h-1.466c-0.892,0-1.492,0.154-1.8,0.464c-0.309,0.309-0.463,0.78-0.463,1.414v0.231
						c0,0.549,0.132,0.9,0.398,1.055c0.266,0.154,0.673,0.231,1.222,0.231c0.395,0,0.768-0.056,1.119-0.167
						c0.351-0.111,0.682-0.244,0.99-0.398V14.506z"/>
				</g>
			</g>
			<g>
				<linearGradient id="SVGID_10_" gradientUnits="userSpaceOnUse" x1="17.8925" y1="17.8319" x2="43.8234" y2="17.8319">
					<stop  offset="0" style="stop-color:#29235C"/>
					<stop  offset="1" style="stop-color:#1D71B8"/>
				</linearGradient>
				<path style="fill:url(#SVGID_10_);" d="M43.463,25.29L36.551,6.297c-0.864-2.374-3.084-3.856-5.504-3.909l-0.015-0.001
					c-0.023,0-0.059,0.001-0.112,0.001h-0.092c-0.076,0-0.122-0.002-0.139-0.001l-0.017,0.001l-0.036,0.001
					c-2.386,0.052-4.604,1.534-5.468,3.908l-1.932,5.308c1.276,0.947,2.107,2.46,2.107,4.171c0,2.87-2.326,5.196-5.196,5.196
					c-0.106,0-0.21-0.01-0.314-0.016l-1.578,4.334c-0.245,0.675-0.362,1.359-0.362,2.033c0.002,2.428,1.5,4.712,3.918,5.593
					c0.674,0.244,1.359,0.359,2.036,0.359c2.237,0,4.353-1.278,5.357-3.371l3.435-9.303l-0.222,9.088
					c0.959,2.221,3.139,3.586,5.456,3.587c0.674,0,1.359-0.116,2.035-0.36c2.418-0.879,3.915-3.162,3.917-5.591
					C43.823,26.65,43.708,25.964,43.463,25.29z"/>
				<linearGradient id="SVGID_11_" gradientUnits="userSpaceOnUse" x1="1.9895" y1="17.8279" x2="20.8068" y2="17.8279">
					<stop  offset="0" style="stop-color:#29235C"/>
					<stop  offset="1" style="stop-color:#1D71B8"/>
				</linearGradient>
				<path class="st18" d="M14.949,15.777c0-2.87,2.326-5.196,5.196-5.196c0.074,0,0.146,0.008,0.219,0.011l0.082-0.223
					c0.245-0.677,0.36-1.365,0.36-2.037c-0.002-2.428-1.499-4.713-3.917-5.591c-0.674-0.246-1.36-0.359-2.035-0.362
					c-2.429,0.003-4.714,1.5-5.591,3.918L2.35,25.294c-0.245,0.67-0.36,1.356-0.36,2.031c0.002,2.429,1.501,4.714,3.916,5.591
					c0.675,0.244,1.362,0.36,2.037,0.36c2.429-0.001,4.714-1.499,5.592-3.917l3.446-9.469
					C15.747,18.941,14.949,17.454,14.949,15.777z"/>
				<linearGradient id="SVGID_12_" gradientUnits="userSpaceOnUse" x1="17.4602" y1="15.7768" x2="22.8311" y2="15.7768">
					<stop  offset="0" style="stop-color:#29235C"/>
					<stop  offset="1" style="stop-color:#1D71B8"/>
				</linearGradient>
				<circle class="st19" cx="20.146" cy="15.777" r="2.686"/>
			</g>
		</g>
	</g>
	<g>
		<g>
			<g>
				<g>
					<path class="st6" d="M145.276,29.568c-0.03,0.033-0.101,0.063-0.21,0.091c-0.236,0.061-0.509,0.111-0.816,0.152
						c-0.308,0.042-0.621,0.062-0.939,0.062c-0.67,0-1.183-0.185-1.537-0.553s-0.532-0.887-0.532-1.558V27.12
						c0-0.648,0.17-1.162,0.511-1.542c0.34-0.379,0.86-0.568,1.558-0.568c0.083,0,0.186,0.006,0.309,0.017s0.246,0.024,0.367,0.041
						v-1.426c0-0.044,0.017-0.082,0.049-0.115c0.033-0.033,0.072-0.05,0.116-0.05h0.997c0.044,0,0.084,0.017,0.12,0.05
						s0.054,0.071,0.054,0.115v5.777C145.322,29.486,145.307,29.535,145.276,29.568z M143.986,26.155
						c-0.099-0.011-0.211-0.021-0.338-0.028c-0.126-0.009-0.239-0.013-0.338-0.013c-0.148,0-0.27,0.024-0.363,0.074
						s-0.167,0.119-0.223,0.21c-0.055,0.091-0.093,0.198-0.115,0.321c-0.022,0.124-0.033,0.257-0.033,0.4v0.643
						c0,0.148,0.011,0.284,0.033,0.408c0.022,0.123,0.061,0.23,0.115,0.321c0.055,0.091,0.129,0.161,0.223,0.21
						c0.093,0.05,0.214,0.074,0.363,0.074c0.137,0,0.265-0.005,0.383-0.017c0.118-0.011,0.215-0.021,0.292-0.032V26.155z"/>
					<path class="st6" d="M149.904,29.749c-0.033,0.033-0.072,0.05-0.116,0.05h-0.923c-0.044,0-0.083-0.017-0.116-0.05
						c-0.033-0.033-0.049-0.071-0.049-0.115v-0.132c-0.159,0.115-0.328,0.206-0.507,0.271c-0.179,0.066-0.392,0.1-0.639,0.1
						c-0.182,0-0.356-0.023-0.523-0.07c-0.168-0.047-0.317-0.125-0.449-0.235c-0.132-0.109-0.238-0.255-0.317-0.437
						s-0.12-0.406-0.12-0.676v-0.074c0-0.483,0.161-0.837,0.482-1.06c0.321-0.222,0.836-0.333,1.545-0.333h0.445v-0.297
						c0-0.236-0.055-0.391-0.165-0.462c-0.11-0.071-0.261-0.107-0.454-0.107c-0.132,0-0.265,0.002-0.399,0.005
						c-0.135,0.003-0.264,0.007-0.388,0.012c-0.124,0.006-0.235,0.013-0.333,0.021c-0.099,0.009-0.182,0.016-0.248,0.021h-0.041
						c-0.044,0-0.08-0.011-0.107-0.032c-0.027-0.022-0.041-0.061-0.041-0.115v-0.668c0-0.094,0.052-0.154,0.157-0.182
						c0.154-0.038,0.361-0.077,0.622-0.115c0.261-0.038,0.529-0.058,0.804-0.058c0.297,0,0.564,0.031,0.804,0.095
						c0.239,0.063,0.441,0.162,0.606,0.297c0.165,0.135,0.292,0.308,0.383,0.52c0.091,0.211,0.136,0.468,0.136,0.771v2.942
						C149.954,29.678,149.937,29.716,149.904,29.749z M148.643,27.779h-0.47c-0.286,0-0.478,0.05-0.577,0.148
						c-0.099,0.099-0.148,0.25-0.148,0.453v0.074c0,0.176,0.042,0.288,0.128,0.338c0.085,0.05,0.216,0.074,0.392,0.074
						c0.126,0,0.246-0.018,0.358-0.054c0.113-0.035,0.218-0.078,0.317-0.128V27.779z"/>
					<path class="st6" d="M153.498,29.808c-0.126,0.021-0.236,0.038-0.33,0.049c-0.094,0.011-0.201,0.017-0.322,0.017
						c-0.224,0-0.422-0.02-0.594-0.058c-0.172-0.039-0.315-0.108-0.43-0.211c-0.115-0.102-0.203-0.244-0.262-0.428
						c-0.06-0.185-0.09-0.422-0.09-0.714v-2.39l-0.659-0.107c-0.044-0.011-0.084-0.031-0.12-0.062s-0.054-0.067-0.054-0.111v-0.544
						c0-0.044,0.018-0.084,0.054-0.12c0.036-0.035,0.076-0.053,0.12-0.053h0.659V24.4c0-0.044,0.017-0.079,0.049-0.106
						s0.071-0.047,0.115-0.058l0.999-0.174h0.025c0.043,0,0.079,0.013,0.106,0.037c0.027,0.025,0.041,0.06,0.041,0.104v0.874h0.676
						c0.044,0,0.083,0.017,0.115,0.05c0.033,0.033,0.05,0.071,0.05,0.116v0.673c0,0.044-0.017,0.083-0.05,0.116
						c-0.033,0.033-0.071,0.05-0.115,0.05h-0.676v2.398c0,0.165,0.014,0.271,0.041,0.317c0.027,0.047,0.104,0.07,0.231,0.07h0.404
						c0.115,0,0.173,0.046,0.173,0.139v0.638C153.654,29.736,153.602,29.791,153.498,29.808z"/>
					<path class="st6" d="M158.007,29.749c-0.033,0.033-0.072,0.05-0.116,0.05h-0.923c-0.044,0-0.083-0.017-0.116-0.05
						c-0.033-0.033-0.049-0.071-0.049-0.115v-0.132c-0.159,0.115-0.328,0.206-0.507,0.271c-0.179,0.066-0.392,0.1-0.639,0.1
						c-0.182,0-0.356-0.023-0.523-0.07c-0.168-0.047-0.317-0.125-0.449-0.235c-0.132-0.109-0.238-0.255-0.317-0.437
						s-0.12-0.406-0.12-0.676v-0.074c0-0.483,0.161-0.837,0.482-1.06c0.321-0.222,0.836-0.333,1.545-0.333h0.445v-0.297
						c0-0.236-0.055-0.391-0.165-0.462c-0.11-0.071-0.261-0.107-0.454-0.107c-0.132,0-0.265,0.002-0.399,0.005
						c-0.135,0.003-0.264,0.007-0.388,0.012c-0.124,0.006-0.235,0.013-0.333,0.021c-0.099,0.009-0.182,0.016-0.248,0.021h-0.041
						c-0.044,0-0.08-0.011-0.107-0.032c-0.027-0.022-0.041-0.061-0.041-0.115v-0.668c0-0.094,0.052-0.154,0.157-0.182
						c0.154-0.038,0.361-0.077,0.622-0.115c0.261-0.038,0.529-0.058,0.804-0.058c0.297,0,0.564,0.031,0.804,0.095
						c0.239,0.063,0.441,0.162,0.606,0.297c0.165,0.135,0.292,0.308,0.383,0.52c0.091,0.211,0.136,0.468,0.136,0.771v2.942
						C158.056,29.678,158.04,29.716,158.007,29.749z M156.746,27.779h-0.47c-0.286,0-0.478,0.05-0.577,0.148
						c-0.099,0.099-0.148,0.25-0.148,0.453v0.074c0,0.176,0.042,0.288,0.128,0.338c0.085,0.05,0.216,0.074,0.392,0.074
						c0.126,0,0.246-0.018,0.358-0.054c0.113-0.035,0.218-0.078,0.317-0.128V27.779z"/>
				</g>
			</g>
			<g>
				<g>
					<path class="st6" d="M90.639,29.808c-0.126,0.021-0.236,0.038-0.33,0.049c-0.094,0.011-0.201,0.017-0.322,0.017
						c-0.224,0-0.422-0.02-0.594-0.058c-0.172-0.039-0.315-0.108-0.43-0.211c-0.115-0.102-0.203-0.244-0.262-0.428
						c-0.06-0.185-0.09-0.422-0.09-0.714v-2.39l-0.659-0.107c-0.044-0.011-0.084-0.031-0.12-0.062s-0.054-0.067-0.054-0.111v-0.544
						c0-0.044,0.018-0.084,0.054-0.12c0.036-0.035,0.076-0.053,0.12-0.053h0.659V24.4c0-0.044,0.017-0.079,0.049-0.106
						s0.071-0.047,0.115-0.058l0.999-0.174h0.025c0.043,0,0.079,0.013,0.106,0.037c0.027,0.025,0.041,0.06,0.041,0.104v0.874h0.676
						c0.044,0,0.083,0.017,0.115,0.05c0.033,0.033,0.05,0.071,0.05,0.116v0.673c0,0.044-0.017,0.083-0.05,0.116
						c-0.033,0.033-0.071,0.05-0.115,0.05h-0.676v2.398c0,0.165,0.014,0.271,0.041,0.317c0.027,0.047,0.104,0.07,0.231,0.07h0.404
						c0.115,0,0.173,0.046,0.173,0.139v0.638C90.795,29.736,90.743,29.791,90.639,29.808z"/>
					<path class="st6" d="M95.378,27.854h-2.629v0.017c0,0.114,0.014,0.226,0.042,0.335c0.027,0.108,0.074,0.204,0.14,0.285
						c0.066,0.082,0.152,0.147,0.26,0.196c0.107,0.049,0.243,0.073,0.408,0.073c0.132,0,0.272-0.002,0.42-0.008
						s0.295-0.011,0.441-0.017s0.282-0.014,0.408-0.024c0.126-0.012,0.23-0.02,0.313-0.025h0.025c0.104,0,0.157,0.045,0.157,0.133
						v0.631c0,0.066-0.011,0.116-0.033,0.149s-0.069,0.059-0.14,0.075c-0.264,0.066-0.522,0.116-0.775,0.149
						c-0.252,0.033-0.558,0.05-0.915,0.05c-0.248,0-0.495-0.036-0.742-0.107c-0.247-0.071-0.47-0.189-0.667-0.354
						s-0.357-0.383-0.478-0.655c-0.121-0.271-0.181-0.605-0.181-1.001v-0.577c0-0.33,0.046-0.629,0.14-0.898
						c0.093-0.27,0.229-0.497,0.408-0.685c0.179-0.187,0.397-0.331,0.655-0.433s0.552-0.152,0.882-0.152
						c0.341,0,0.638,0.055,0.89,0.165c0.253,0.109,0.464,0.261,0.635,0.453s0.298,0.42,0.383,0.685
						c0.085,0.264,0.128,0.552,0.128,0.865v0.478C95.551,27.787,95.493,27.854,95.378,27.854z M94.249,26.996
						c0-0.308-0.066-0.537-0.198-0.688c-0.132-0.15-0.313-0.227-0.544-0.227c-0.23,0-0.415,0.077-0.552,0.231
						c-0.138,0.153-0.207,0.382-0.207,0.684v0.033h1.5V26.996z"/>
					<path class="st6" d="M99.441,29.688c-0.027,0.024-0.071,0.045-0.132,0.062c-0.115,0.027-0.265,0.055-0.449,0.083
						c-0.184,0.027-0.4,0.041-0.647,0.041c-0.583,0-1.048-0.179-1.397-0.536c-0.349-0.357-0.523-0.874-0.523-1.55v-0.692
						c0-0.676,0.174-1.192,0.523-1.549c0.349-0.357,0.814-0.536,1.397-0.536c0.247,0,0.463,0.014,0.647,0.041
						s0.334,0.055,0.449,0.083c0.061,0.016,0.104,0.037,0.132,0.062s0.041,0.067,0.041,0.128v0.733c0,0.044-0.015,0.078-0.045,0.103
						c-0.03,0.025-0.067,0.037-0.111,0.037H99.31c-0.154-0.017-0.301-0.029-0.441-0.041c-0.14-0.011-0.329-0.017-0.565-0.017
						c-0.093,0-0.181,0.016-0.264,0.046s-0.154,0.082-0.214,0.156s-0.108,0.173-0.144,0.297s-0.054,0.276-0.054,0.457v0.692
						c0,0.182,0.018,0.334,0.054,0.458c0.036,0.123,0.083,0.223,0.144,0.297s0.132,0.126,0.214,0.156s0.17,0.045,0.264,0.045
						c0.236,0,0.425-0.005,0.565-0.016c0.14-0.012,0.287-0.025,0.441-0.042h0.017c0.044,0,0.081,0.013,0.111,0.037
						c0.03,0.025,0.045,0.06,0.045,0.104v0.733C99.483,29.62,99.469,29.662,99.441,29.688z"/>
					<path class="st6" d="M104.325,29.745c-0.036,0.036-0.076,0.054-0.119,0.054h-0.998c-0.044,0-0.083-0.018-0.115-0.054
						c-0.033-0.035-0.05-0.075-0.05-0.119v-2.738c0-0.143-0.008-0.264-0.024-0.362c-0.017-0.099-0.047-0.178-0.091-0.238
						s-0.106-0.103-0.186-0.128c-0.08-0.024-0.183-0.037-0.309-0.037c-0.121,0-0.245,0.025-0.371,0.074
						c-0.126,0.05-0.261,0.112-0.404,0.189v3.24c0,0.044-0.016,0.084-0.049,0.119c-0.033,0.036-0.071,0.054-0.115,0.054h-0.998
						c-0.044,0-0.083-0.018-0.119-0.054c-0.036-0.036-0.054-0.075-0.054-0.119v-5.984c0-0.044,0.017-0.082,0.049-0.115
						c0.033-0.033,0.071-0.05,0.115-0.05h1.006c0.044,0,0.083,0.017,0.115,0.05c0.033,0.033,0.049,0.071,0.049,0.115v1.742
						c0.209-0.139,0.41-0.235,0.602-0.291s0.412-0.083,0.659-0.083c0.297,0,0.54,0.048,0.729,0.145
						c0.189,0.096,0.338,0.229,0.445,0.399c0.107,0.171,0.181,0.37,0.222,0.598c0.042,0.229,0.062,0.471,0.062,0.729v2.745
						C104.379,29.67,104.36,29.709,104.325,29.745z"/>
					<path class="st6" d="M109.369,29.745c-0.036,0.036-0.076,0.054-0.119,0.054h-0.998c-0.044,0-0.083-0.018-0.115-0.054
						c-0.033-0.035-0.05-0.075-0.05-0.119v-2.738c0-0.143-0.008-0.264-0.024-0.362c-0.017-0.099-0.047-0.178-0.091-0.238
						s-0.106-0.103-0.186-0.128c-0.08-0.024-0.183-0.037-0.309-0.037c-0.121,0-0.245,0.025-0.371,0.074
						c-0.126,0.05-0.261,0.112-0.404,0.189v3.24c0,0.044-0.016,0.084-0.049,0.119c-0.033,0.036-0.071,0.054-0.115,0.054h-0.998
						c-0.044,0-0.083-0.018-0.119-0.054c-0.036-0.036-0.054-0.075-0.054-0.119V25.24c0-0.044,0.017-0.082,0.049-0.115
						c0.033-0.033,0.071-0.049,0.115-0.049h0.923c0.044,0,0.083,0.017,0.115,0.05c0.033,0.033,0.05,0.071,0.05,0.116v0.199
						c0.225-0.16,0.439-0.272,0.643-0.336c0.204-0.063,0.437-0.096,0.701-0.096c0.297,0,0.54,0.048,0.729,0.145
						c0.189,0.096,0.338,0.229,0.445,0.399c0.107,0.171,0.181,0.37,0.222,0.598c0.042,0.229,0.062,0.471,0.062,0.729v2.745
						C109.423,29.67,109.405,29.709,109.369,29.745z"/>
					<path class="st6" d="M114.274,28.62c-0.09,0.264-0.222,0.487-0.396,0.672c-0.173,0.184-0.387,0.327-0.643,0.429
						c-0.255,0.102-0.551,0.152-0.886,0.152c-0.335,0-0.631-0.051-0.886-0.152s-0.471-0.245-0.647-0.429
						c-0.176-0.185-0.309-0.408-0.4-0.672c-0.09-0.264-0.136-0.561-0.136-0.891v-0.577c0-0.329,0.045-0.626,0.136-0.89
						c0.091-0.264,0.224-0.487,0.4-0.672c0.176-0.184,0.392-0.327,0.647-0.429s0.551-0.152,0.886-0.152
						c0.335,0,0.63,0.051,0.886,0.152c0.256,0.102,0.47,0.245,0.643,0.429c0.173,0.185,0.305,0.408,0.396,0.672
						c0.091,0.264,0.136,0.561,0.136,0.89v0.577C114.41,28.06,114.364,28.357,114.274,28.62z M113.074,27.153
						c0-0.67-0.242-1.005-0.725-1.005c-0.239,0-0.421,0.084-0.546,0.251c-0.125,0.168-0.188,0.419-0.188,0.754v0.577
						c0,0.336,0.062,0.588,0.188,0.759c0.125,0.17,0.307,0.255,0.546,0.255c0.483,0,0.725-0.338,0.725-1.014V27.153z"/>
					<path class="st6" d="M116.557,29.745c-0.03,0.036-0.067,0.054-0.111,0.054h-1.006c-0.044,0-0.083-0.018-0.119-0.054
						c-0.036-0.036-0.054-0.075-0.054-0.119v-5.984c0-0.044,0.018-0.082,0.054-0.115c0.036-0.033,0.075-0.05,0.119-0.05h1.006
						c0.044,0,0.081,0.017,0.111,0.05c0.03,0.033,0.045,0.071,0.045,0.115v5.984C116.602,29.67,116.587,29.709,116.557,29.745z"/>
					<path class="st6" d="M121.452,28.62c-0.09,0.264-0.222,0.487-0.396,0.672c-0.173,0.184-0.387,0.327-0.643,0.429
						c-0.255,0.102-0.551,0.152-0.886,0.152c-0.335,0-0.631-0.051-0.886-0.152s-0.471-0.245-0.647-0.429
						c-0.176-0.185-0.309-0.408-0.4-0.672c-0.09-0.264-0.136-0.561-0.136-0.891v-0.577c0-0.329,0.045-0.626,0.136-0.89
						c0.091-0.264,0.224-0.487,0.4-0.672c0.176-0.184,0.392-0.327,0.647-0.429s0.551-0.152,0.886-0.152
						c0.335,0,0.63,0.051,0.886,0.152c0.256,0.102,0.47,0.245,0.643,0.429c0.173,0.185,0.305,0.408,0.396,0.672
						c0.091,0.264,0.136,0.561,0.136,0.89v0.577C121.588,28.06,121.543,28.357,121.452,28.62z M120.253,27.153
						c0-0.67-0.242-1.005-0.725-1.005c-0.239,0-0.421,0.084-0.546,0.251c-0.125,0.168-0.188,0.419-0.188,0.754v0.577
						c0,0.336,0.062,0.588,0.188,0.759c0.125,0.17,0.307,0.255,0.546,0.255c0.483,0,0.725-0.338,0.725-1.014V27.153z"/>
					<path class="st6" d="M126.67,25.884c-0.025,0.021-0.062,0.041-0.111,0.058l-0.255,0.082c0.049,0.077,0.092,0.173,0.128,0.289
						c0.036,0.115,0.053,0.222,0.053,0.321v0.065c0,0.539-0.177,0.931-0.532,1.175c-0.354,0.244-0.855,0.367-1.504,0.367
						c-0.192,0-0.363-0.013-0.511-0.037c-0.148-0.025-0.264-0.054-0.346-0.087c-0.044,0.027-0.074,0.057-0.09,0.087
						c-0.017,0.03-0.025,0.064-0.025,0.103c0,0.066,0.017,0.115,0.049,0.148c0.033,0.033,0.099,0.061,0.198,0.082l0.932,0.206
						c0.357,0.077,0.659,0.153,0.907,0.228c0.247,0.073,0.446,0.159,0.597,0.255c0.151,0.097,0.26,0.212,0.326,0.347
						s0.099,0.301,0.099,0.498v0.066c0,0.896-0.72,1.344-2.16,1.344c-0.687,0-1.208-0.116-1.562-0.347s-0.531-0.563-0.531-0.997
						V30.07c0-0.17,0.038-0.332,0.115-0.486c0.077-0.153,0.203-0.299,0.379-0.437c-0.148-0.082-0.255-0.196-0.321-0.342
						s-0.099-0.287-0.099-0.425c0-0.153,0.035-0.288,0.103-0.404c0.069-0.115,0.155-0.214,0.26-0.296
						c-0.132-0.116-0.228-0.267-0.289-0.454c-0.061-0.187-0.09-0.362-0.09-0.527v-0.065c0-0.467,0.163-0.844,0.49-1.13
						c0.327-0.285,0.85-0.428,1.57-0.428h2.052c0.061,0,0.11,0.021,0.148,0.062c0.038,0.041,0.058,0.092,0.058,0.152v0.47
						C126.707,25.82,126.695,25.861,126.67,25.884z M125.224,30.07c0-0.038-0.01-0.075-0.029-0.111
						c-0.019-0.035-0.059-0.069-0.119-0.103c-0.061-0.033-0.146-0.067-0.256-0.104c-0.11-0.035-0.258-0.072-0.445-0.111l-0.61-0.132
						c-0.05,0.072-0.089,0.147-0.12,0.227c-0.03,0.08-0.045,0.191-0.045,0.334v0.066c0,0.143,0.058,0.248,0.173,0.317
						c0.115,0.068,0.332,0.103,0.651,0.103c0.17,0,0.308-0.01,0.412-0.028c0.104-0.02,0.186-0.049,0.243-0.087
						s0.096-0.084,0.115-0.136c0.02-0.053,0.029-0.108,0.029-0.169V30.07z M125.182,26.634c0-0.171-0.049-0.312-0.148-0.425
						c-0.099-0.112-0.294-0.169-0.585-0.169c-0.292,0-0.489,0.057-0.594,0.169s-0.156,0.254-0.156,0.425v0.065
						c0,0.071,0.009,0.142,0.029,0.21c0.019,0.069,0.056,0.131,0.111,0.186c0.055,0.056,0.132,0.1,0.23,0.132
						c0.099,0.033,0.226,0.05,0.379,0.05c0.291,0,0.486-0.052,0.585-0.156c0.099-0.104,0.148-0.245,0.148-0.421V26.634z"/>
					<path class="st6" d="M131.587,25.224c0,0.012-0.001,0.019-0.004,0.021c-0.002,0.002-0.004,0.009-0.004,0.021l-1.385,4.854
						c-0.066,0.226-0.14,0.422-0.223,0.589c-0.083,0.168-0.189,0.307-0.321,0.417c-0.132,0.109-0.3,0.193-0.503,0.251
						s-0.456,0.087-0.758,0.087c-0.077,0-0.162-0.005-0.255-0.013c-0.094-0.008-0.187-0.018-0.28-0.029
						c-0.093-0.011-0.181-0.024-0.264-0.041s-0.148-0.032-0.198-0.049c-0.044-0.017-0.084-0.035-0.12-0.054
						c-0.036-0.02-0.054-0.051-0.054-0.095v-0.668c0-0.044,0.017-0.081,0.05-0.111c0.033-0.03,0.071-0.045,0.115-0.045h0.017
						c0.066,0.005,0.144,0.011,0.235,0.017c0.09,0.005,0.184,0.012,0.28,0.021c0.096,0.008,0.189,0.015,0.28,0.021
						c0.09,0.005,0.169,0.008,0.235,0.008c0.148,0,0.264-0.03,0.346-0.091c0.082-0.061,0.148-0.173,0.198-0.338l0.074-0.255h-0.124
						c-0.077,0-0.149-0.007-0.218-0.021s-0.136-0.046-0.202-0.095c-0.066-0.05-0.128-0.125-0.186-0.228
						c-0.058-0.102-0.111-0.243-0.161-0.424l-1.088-3.709c-0.005-0.017-0.008-0.036-0.008-0.058c0-0.088,0.055-0.132,0.165-0.132
						h1.096c0.044,0,0.079,0.015,0.103,0.045c0.025,0.03,0.042,0.067,0.054,0.111l0.742,3.099c0.022,0.104,0.055,0.157,0.099,0.157
						h0.008h0.033h0.033l0.767-3.256c0.011-0.044,0.031-0.081,0.062-0.111s0.067-0.045,0.111-0.045h1.096
						c0.044,0,0.081,0.014,0.111,0.041S131.587,25.18,131.587,25.224z"/>
				</g>
			</g>
			<g>
				<g>
					<path class="st6" d="M56.984,29.304c-0.341,0.38-0.86,0.569-1.558,0.569c-0.083,0-0.186-0.006-0.309-0.017
						c-0.124-0.012-0.246-0.024-0.367-0.041v1.426c0,0.044-0.016,0.082-0.049,0.115c-0.033,0.033-0.071,0.05-0.115,0.05h-0.998
						c-0.044,0-0.083-0.017-0.119-0.05c-0.036-0.033-0.054-0.071-0.054-0.115v-5.778c0-0.065,0.015-0.115,0.045-0.148
						c0.03-0.032,0.1-0.062,0.21-0.091c0.236-0.06,0.508-0.111,0.816-0.152s0.621-0.062,0.94-0.062c0.67,0,1.183,0.185,1.537,0.552
						c0.354,0.369,0.532,0.888,0.532,1.559v0.643C57.496,28.411,57.325,28.925,56.984,29.304z M56.16,27.125
						c0-0.147-0.011-0.282-0.033-0.402c-0.022-0.121-0.06-0.227-0.115-0.316c-0.055-0.091-0.129-0.16-0.223-0.21
						c-0.093-0.049-0.214-0.074-0.362-0.074c-0.138,0-0.265,0.005-0.383,0.013c-0.118,0.009-0.216,0.018-0.293,0.029v2.563
						c0.099,0.011,0.212,0.021,0.338,0.032c0.126,0.012,0.239,0.017,0.338,0.017c0.148,0,0.269-0.025,0.362-0.078
						c0.094-0.052,0.168-0.123,0.223-0.214c0.055-0.09,0.093-0.196,0.115-0.32c0.022-0.123,0.033-0.256,0.033-0.398V27.125z"/>
					<path class="st6" d="M62.16,27.854h-2.629v0.017c0,0.114,0.014,0.226,0.042,0.335c0.027,0.108,0.074,0.204,0.14,0.285
						c0.066,0.082,0.152,0.147,0.26,0.196c0.107,0.049,0.243,0.073,0.408,0.073c0.132,0,0.272-0.002,0.42-0.008
						s0.295-0.011,0.441-0.017s0.282-0.014,0.408-0.024c0.126-0.012,0.23-0.02,0.313-0.025h0.025c0.104,0,0.157,0.045,0.157,0.133
						v0.631c0,0.066-0.011,0.116-0.033,0.149s-0.069,0.059-0.14,0.075c-0.264,0.066-0.522,0.116-0.775,0.149
						c-0.252,0.033-0.558,0.05-0.915,0.05c-0.248,0-0.495-0.036-0.742-0.107c-0.247-0.071-0.47-0.189-0.667-0.354
						s-0.357-0.383-0.478-0.655c-0.121-0.271-0.181-0.605-0.181-1.001v-0.577c0-0.33,0.046-0.629,0.14-0.898
						c0.093-0.27,0.229-0.497,0.408-0.685c0.179-0.187,0.397-0.331,0.655-0.433s0.552-0.152,0.882-0.152
						c0.341,0,0.638,0.055,0.89,0.165c0.253,0.109,0.464,0.261,0.635,0.453s0.298,0.42,0.383,0.685
						c0.085,0.264,0.128,0.552,0.128,0.865v0.478C62.334,27.787,62.276,27.854,62.16,27.854z M61.031,26.996
						c0-0.308-0.066-0.537-0.198-0.688c-0.132-0.15-0.313-0.227-0.544-0.227c-0.23,0-0.415,0.077-0.552,0.231
						c-0.138,0.153-0.207,0.382-0.207,0.684v0.033h1.5V26.996z"/>
					<path class="st6" d="M67.061,28.62c-0.09,0.264-0.222,0.487-0.396,0.672c-0.173,0.184-0.387,0.327-0.643,0.429
						c-0.255,0.102-0.551,0.152-0.886,0.152c-0.335,0-0.631-0.051-0.886-0.152c-0.255-0.102-0.471-0.245-0.647-0.429
						c-0.176-0.185-0.309-0.408-0.4-0.672c-0.09-0.264-0.136-0.561-0.136-0.891v-0.577c0-0.329,0.045-0.626,0.136-0.89
						c0.091-0.264,0.224-0.487,0.4-0.672c0.176-0.184,0.392-0.327,0.647-0.429c0.255-0.102,0.551-0.152,0.886-0.152
						c0.335,0,0.63,0.051,0.886,0.152c0.256,0.102,0.47,0.245,0.643,0.429c0.173,0.185,0.305,0.408,0.396,0.672
						c0.091,0.264,0.136,0.561,0.136,0.89v0.577C67.197,28.06,67.151,28.357,67.061,28.62z M65.861,27.153
						c0-0.67-0.242-1.005-0.725-1.005c-0.239,0-0.421,0.084-0.546,0.251c-0.125,0.168-0.188,0.419-0.188,0.754v0.577
						c0,0.336,0.062,0.588,0.188,0.759c0.125,0.17,0.307,0.255,0.546,0.255c0.483,0,0.725-0.338,0.725-1.014V27.153z"/>
					<path class="st6" d="M71.623,29.304c-0.341,0.38-0.86,0.569-1.558,0.569c-0.083,0-0.186-0.006-0.309-0.017
						c-0.124-0.012-0.246-0.024-0.367-0.041v1.426c0,0.044-0.016,0.082-0.049,0.115c-0.033,0.033-0.071,0.05-0.115,0.05h-0.998
						c-0.044,0-0.083-0.017-0.119-0.05c-0.036-0.033-0.054-0.071-0.054-0.115v-5.778c0-0.065,0.015-0.115,0.045-0.148
						c0.03-0.032,0.1-0.062,0.21-0.091c0.236-0.06,0.508-0.111,0.816-0.152s0.621-0.062,0.94-0.062c0.67,0,1.183,0.185,1.537,0.552
						c0.354,0.369,0.532,0.888,0.532,1.559v0.643C72.134,28.411,71.963,28.925,71.623,29.304z M70.798,27.125
						c0-0.147-0.011-0.282-0.033-0.402c-0.022-0.121-0.06-0.227-0.115-0.316c-0.055-0.091-0.129-0.16-0.223-0.21
						c-0.093-0.049-0.214-0.074-0.362-0.074c-0.138,0-0.265,0.005-0.383,0.013c-0.118,0.009-0.216,0.018-0.293,0.029v2.563
						c0.099,0.011,0.212,0.021,0.338,0.032c0.126,0.012,0.239,0.017,0.338,0.017c0.148,0,0.269-0.025,0.362-0.078
						c0.094-0.052,0.168-0.123,0.223-0.214c0.055-0.09,0.093-0.196,0.115-0.32c0.022-0.123,0.033-0.256,0.033-0.398V27.125z"/>
					<path class="st6" d="M74.264,29.745c-0.03,0.036-0.067,0.054-0.111,0.054h-1.006c-0.044,0-0.083-0.018-0.119-0.054
						c-0.036-0.036-0.054-0.075-0.054-0.119v-5.984c0-0.044,0.018-0.082,0.054-0.115c0.036-0.033,0.075-0.05,0.119-0.05h1.006
						c0.044,0,0.081,0.017,0.111,0.05c0.03,0.033,0.045,0.071,0.045,0.115v5.984C74.309,29.67,74.294,29.709,74.264,29.745z"/>
					<path class="st6" d="M79.123,27.854h-2.629v0.017c0,0.114,0.014,0.226,0.042,0.335c0.027,0.108,0.074,0.204,0.14,0.285
						c0.066,0.082,0.152,0.147,0.26,0.196c0.107,0.049,0.243,0.073,0.408,0.073c0.132,0,0.272-0.002,0.42-0.008
						s0.295-0.011,0.441-0.017s0.282-0.014,0.408-0.024c0.126-0.012,0.23-0.02,0.313-0.025h0.025c0.104,0,0.157,0.045,0.157,0.133
						v0.631c0,0.066-0.011,0.116-0.033,0.149s-0.069,0.059-0.14,0.075c-0.264,0.066-0.522,0.116-0.775,0.149
						c-0.252,0.033-0.558,0.05-0.915,0.05c-0.248,0-0.495-0.036-0.742-0.107c-0.247-0.071-0.47-0.189-0.667-0.354
						s-0.357-0.383-0.478-0.655c-0.121-0.271-0.181-0.605-0.181-1.001v-0.577c0-0.33,0.046-0.629,0.14-0.898
						c0.093-0.27,0.229-0.497,0.408-0.685c0.179-0.187,0.397-0.331,0.655-0.433s0.552-0.152,0.882-0.152
						c0.341,0,0.638,0.055,0.89,0.165c0.253,0.109,0.464,0.261,0.635,0.453s0.298,0.42,0.383,0.685
						c0.085,0.264,0.128,0.552,0.128,0.865v0.478C79.296,27.787,79.239,27.854,79.123,27.854z M77.994,26.996
						c0-0.308-0.066-0.537-0.198-0.688c-0.132-0.15-0.313-0.227-0.544-0.227c-0.23,0-0.415,0.077-0.552,0.231
						c-0.138,0.153-0.207,0.382-0.207,0.684v0.033h1.5V26.996z"/>
				</g>
			</g>
			<path class="st6" d="M82.592,26.224c0.002-0.113,0.096-0.205,0.209-0.203l0.871,0.013c0.113,0.002,0.271,0.069,0.35,0.151
				l1.256,1.292c0.079,0.081,0.077,0.212-0.004,0.291l-1.292,1.256c-0.081,0.079-0.241,0.142-0.354,0.141l-0.871-0.013
				c-0.113-0.002-0.205-0.096-0.203-0.209l0.009-0.593c0.002-0.113,0.069-0.271,0.151-0.35l0.273-0.265
				c0.081-0.079,0.083-0.21,0.004-0.291l-0.265-0.273c-0.079-0.081-0.142-0.241-0.141-0.354L82.592,26.224z"/>
			<path class="st6" d="M135.241,26.224c0.002-0.113,0.096-0.205,0.209-0.203l0.871,0.013c0.113,0.002,0.271,0.069,0.35,0.151
				l1.256,1.292c0.079,0.081,0.077,0.212-0.004,0.291l-1.292,1.256c-0.081,0.079-0.241,0.142-0.354,0.141l-0.871-0.013
				c-0.113-0.002-0.205-0.096-0.203-0.209l0.009-0.593c0.002-0.113,0.069-0.271,0.151-0.35l0.273-0.265
				c0.081-0.079,0.083-0.21,0.004-0.291l-0.265-0.273c-0.079-0.081-0.142-0.241-0.141-0.354L135.241,26.224z"/>
		</g>
	</g>
</g>
</svg>
