<?xml version="1.0" encoding="utf-8"?>
<!-- Generator: Adobe Illustrator 20.1.0, SVG Export Plug-In . SVG Version: 6.00 Build 0)  -->
<svg version="1.1" id="Layer_1" xmlns="http://www.w3.org/2000/svg" xmlns:xlink="http://www.w3.org/1999/xlink" x="0px" y="0px"
	 viewBox="0 0 30 30" style="enable-background:new 0 0 30 30;" xml:space="preserve">
<style type="text/css">
	.st0{opacity:0.06;clip-path:url(#SVGID_2_);}
	.st1{fill:none;stroke:#2E517A;stroke-miterlimit:10;}
	.st2{clip-path:url(#SVGID_2_);fill:#FFFFFF;}
	.st3{opacity:0.06;clip-path:url(#SVGID_4_);}
	.st4{clip-path:url(#SVGID_6_);}
	.st5{opacity:0.06;clip-path:url(#SVGID_8_);}
	.st6{fill:#2E517A;}
	.st7{fill:#3E5B70;}
	.st8{fill:#EC6231;}
	.st9{fill:#DF2424;}
	.st10{fill:#DF7B72;}
	.st11{fill:#FFFFFF;}
	.st12{fill:#414750;}
	.st13{fill:#252629;}
	.st14{fill:#E7E8E8;}
	.st15{fill:#1F2121;}
	.st16{fill:#050708;}
	.st17{fill:#41474F;}
	.st18{fill:url(#SVGID_11_);}
	.st19{fill:url(#SVGID_12_);}
	.st20{fill:url(#SVGID_13_);}
</style>
<g>
	<defs>
		<rect id="SVGID_1_" x="-801.393" y="-15.688" width="600" height="600"/>
	</defs>
	<clipPath id="SVGID_2_">
		<use xlink:href="#SVGID_1_"  style="overflow:visible;"/>
	</clipPath>
	<g class="st0">
		<line class="st1" x1="197.383" y1="-54.541" x2="-559.398" y2="702.24"/>
		<line class="st1" x1="184.049" y1="-54.541" x2="-572.732" y2="702.24"/>
		<line class="st1" x1="170.716" y1="-54.541" x2="-586.065" y2="702.24"/>
		<line class="st1" x1="157.382" y1="-54.541" x2="-599.399" y2="702.24"/>
		<line class="st1" x1="144.049" y1="-54.541" x2="-612.732" y2="702.24"/>
		<line class="st1" x1="130.715" y1="-54.541" x2="-626.066" y2="702.24"/>
		<line class="st1" x1="117.382" y1="-54.541" x2="-639.399" y2="702.24"/>
		<line class="st1" x1="104.048" y1="-54.541" x2="-652.733" y2="702.24"/>
		<line class="st1" x1="90.715" y1="-54.541" x2="-666.066" y2="702.24"/>
		<line class="st1" x1="77.381" y1="-54.541" x2="-679.4" y2="702.24"/>
		<line class="st1" x1="64.048" y1="-54.541" x2="-692.733" y2="702.24"/>
		<line class="st1" x1="50.714" y1="-54.541" x2="-706.067" y2="702.24"/>
		<line class="st1" x1="37.381" y1="-54.541" x2="-719.4" y2="702.24"/>
		<line class="st1" x1="24.047" y1="-54.541" x2="-732.734" y2="702.24"/>
		<line class="st1" x1="10.714" y1="-54.541" x2="-746.067" y2="702.24"/>
		<line class="st1" x1="357.384" y1="-54.541" x2="-399.397" y2="702.24"/>
		<line class="st1" x1="350.718" y1="-54.541" x2="-406.063" y2="702.24"/>
		<line class="st1" x1="344.051" y1="-54.541" x2="-412.73" y2="702.24"/>
		<line class="st1" x1="337.384" y1="-54.541" x2="-419.397" y2="702.24"/>
		<line class="st1" x1="330.717" y1="-54.541" x2="-426.064" y2="702.24"/>
		<line class="st1" x1="324.051" y1="-54.541" x2="-432.73" y2="702.24"/>
		<line class="st1" x1="317.384" y1="-54.541" x2="-439.397" y2="702.24"/>
		<line class="st1" x1="310.717" y1="-54.541" x2="-446.064" y2="702.24"/>
		<line class="st1" x1="304.05" y1="-54.541" x2="-452.73" y2="702.24"/>
		<line class="st1" x1="297.384" y1="-54.541" x2="-459.397" y2="702.24"/>
		<line class="st1" x1="290.717" y1="-54.541" x2="-466.064" y2="702.24"/>
		<line class="st1" x1="284.05" y1="-54.541" x2="-472.731" y2="702.24"/>
		<line class="st1" x1="277.384" y1="-54.541" x2="-479.397" y2="702.24"/>
		<line class="st1" x1="270.717" y1="-54.541" x2="-486.064" y2="702.24"/>
		<line class="st1" x1="437.385" y1="-54.541" x2="-319.396" y2="702.24"/>
		<line class="st1" x1="430.719" y1="-54.541" x2="-326.062" y2="702.24"/>
		<line class="st1" x1="424.052" y1="-54.541" x2="-332.729" y2="702.24"/>
		<line class="st1" x1="417.385" y1="-54.541" x2="-339.396" y2="702.24"/>
		<line class="st1" x1="410.718" y1="-54.541" x2="-346.063" y2="702.24"/>
		<line class="st1" x1="404.052" y1="-54.541" x2="-352.729" y2="702.24"/>
		<line class="st1" x1="397.385" y1="-54.541" x2="-359.396" y2="702.24"/>
		<line class="st1" x1="390.718" y1="-54.541" x2="-366.063" y2="702.24"/>
		<line class="st1" x1="384.051" y1="-54.541" x2="-372.73" y2="702.24"/>
		<line class="st1" x1="377.385" y1="-54.541" x2="-379.396" y2="702.24"/>
		<line class="st1" x1="370.718" y1="-54.541" x2="-386.063" y2="702.24"/>
		<line class="st1" x1="364.051" y1="-54.541" x2="-392.73" y2="702.24"/>
		<line class="st1" x1="264.05" y1="-54.541" x2="-492.731" y2="702.24"/>
		<line class="st1" x1="257.383" y1="-54.541" x2="-499.398" y2="702.24"/>
		<line class="st1" x1="250.717" y1="-54.541" x2="-506.064" y2="702.24"/>
		<line class="st1" x1="244.05" y1="-54.541" x2="-512.731" y2="702.24"/>
		<line class="st1" x1="237.383" y1="-54.541" x2="-519.398" y2="702.24"/>
		<line class="st1" x1="230.716" y1="-54.541" x2="-526.065" y2="702.24"/>
		<line class="st1" x1="224.05" y1="-54.541" x2="-532.731" y2="702.24"/>
		<line class="st1" x1="217.383" y1="-54.541" x2="-539.398" y2="702.24"/>
		<line class="st1" x1="210.716" y1="-54.541" x2="-546.065" y2="702.24"/>
		<line class="st1" x1="204.049" y1="-54.541" x2="-552.732" y2="702.24"/>
		<line class="st1" x1="190.716" y1="-54.541" x2="-566.065" y2="702.24"/>
		<line class="st1" x1="177.382" y1="-54.541" x2="-579.399" y2="702.24"/>
		<line class="st1" x1="164.049" y1="-54.541" x2="-592.732" y2="702.24"/>
		<line class="st1" x1="150.715" y1="-54.541" x2="-606.065" y2="702.24"/>
		<line class="st1" x1="137.382" y1="-54.541" x2="-619.399" y2="702.24"/>
		<line class="st1" x1="124.049" y1="-54.541" x2="-632.732" y2="702.24"/>
		<line class="st1" x1="110.715" y1="-54.541" x2="-646.066" y2="702.24"/>
		<line class="st1" x1="97.382" y1="-54.541" x2="-659.399" y2="702.24"/>
		<line class="st1" x1="84.048" y1="-54.541" x2="-672.733" y2="702.24"/>
		<line class="st1" x1="70.715" y1="-54.541" x2="-686.066" y2="702.24"/>
		<line class="st1" x1="57.381" y1="-54.541" x2="-699.4" y2="702.24"/>
		<line class="st1" x1="44.048" y1="-54.541" x2="-712.733" y2="702.24"/>
		<line class="st1" x1="30.714" y1="-54.541" x2="-726.067" y2="702.24"/>
		<line class="st1" x1="17.381" y1="-54.541" x2="-739.4" y2="702.24"/>
		<line class="st1" x1="4.047" y1="-54.541" x2="-752.734" y2="702.24"/>
	</g>
	<path class="st2" d="M54.032-250.961L37.92-267.073L-181.259-47.894c-5.204-2.591-11.068-4.056-17.276-4.056
		c-21.444,0-38.827,17.383-38.827,38.827c0,6.208,1.465,12.072,4.056,17.276l-242.221,242.221l16.112,16.111l241.799-241.799
		c5.637,3.188,12.144,5.017,19.082,5.017c21.444,0,38.827-17.383,38.827-38.827c0-6.938-1.829-13.446-5.017-19.082L54.032-250.961z
		 M-198.535,8.973c-12.203,0-22.095-9.892-22.095-22.095s9.892-22.095,22.095-22.095s22.095,9.892,22.095,22.095
		S-186.332,8.973-198.535,8.973z"/>
</g>
<g>
	<defs>
		<rect id="SVGID_5_" x="367.75" y="-11.401" width="501.318" height="387.223"/>
	</defs>
	<clipPath id="SVGID_4_">
		<use xlink:href="#SVGID_5_"  style="overflow:visible;"/>
	</clipPath>
	<g style="clip-path:url(#SVGID_4_);">
		<defs>
			<path id="SVGID_7_" d="M1457.197-610.5l-51.562-51.562L704.188,39.384c-16.655-8.292-35.42-12.979-55.289-12.979
				c-68.627,0-124.26,55.633-124.26,124.259c0,19.869,4.688,38.633,12.979,55.289l-775.191,775.191l51.562,51.562l773.839-773.838
				c18.04,10.204,38.866,16.056,61.07,16.056c68.627,0,124.26-55.633,124.26-124.259c0-22.204-5.852-43.031-16.056-61.07
				L1457.197-610.5z M648.899,221.377c-39.054,0-70.713-31.659-70.713-70.713s31.659-70.713,70.713-70.713
				s70.713,31.659,70.713,70.713S687.953,221.377,648.899,221.377z"/>
		</defs>
		<clipPath id="SVGID_6_">
			<use xlink:href="#SVGID_7_"  style="overflow:visible;"/>
		</clipPath>
		<g style="opacity:0.06;clip-path:url(#SVGID_6_);">
			<line class="st1" x1="775.663" y1="-237.957" x2="18.882" y2="518.824"/>
			<line class="st1" x1="762.332" y1="-237.957" x2="5.551" y2="518.824"/>
			<line class="st1" x1="749.001" y1="-237.957" x2="-7.78" y2="518.824"/>
			<line class="st1" x1="735.67" y1="-237.957" x2="-21.111" y2="518.824"/>
			<line class="st1" x1="722.339" y1="-237.957" x2="-34.442" y2="518.824"/>
			<line class="st1" x1="709.007" y1="-237.957" x2="-47.774" y2="518.824"/>
			<line class="st1" x1="695.676" y1="-237.957" x2="-61.105" y2="518.824"/>
			<line class="st1" x1="682.345" y1="-237.957" x2="-74.436" y2="518.824"/>
			<line class="st1" x1="669.014" y1="-237.957" x2="-87.767" y2="518.824"/>
			<line class="st1" x1="655.682" y1="-237.957" x2="-101.099" y2="518.824"/>
			<line class="st1" x1="642.351" y1="-237.957" x2="-114.43" y2="518.824"/>
			<line class="st1" x1="629.02" y1="-237.957" x2="-127.761" y2="518.824"/>
			<line class="st1" x1="615.689" y1="-237.957" x2="-141.092" y2="518.824"/>
			<line class="st1" x1="609.023" y1="-237.957" x2="-147.758" y2="518.824"/>
			<line class="st1" x1="602.357" y1="-237.957" x2="-154.424" y2="518.824"/>
			<line class="st1" x1="595.692" y1="-237.957" x2="-161.089" y2="518.824"/>
			<line class="st1" x1="589.026" y1="-237.957" x2="-167.755" y2="518.824"/>
			<line class="st1" x1="582.361" y1="-237.957" x2="-174.42" y2="518.824"/>
			<line class="st1" x1="575.695" y1="-237.957" x2="-181.086" y2="518.824"/>
			<line class="st1" x1="569.029" y1="-237.957" x2="-187.752" y2="518.824"/>
			<line class="st1" x1="562.364" y1="-237.957" x2="-194.417" y2="518.824"/>
			<line class="st1" x1="555.698" y1="-237.957" x2="-201.083" y2="518.824"/>
			<line class="st1" x1="549.032" y1="-237.957" x2="-207.749" y2="518.824"/>
			<line class="st1" x1="542.367" y1="-237.957" x2="-214.414" y2="518.824"/>
			<line class="st1" x1="535.701" y1="-237.957" x2="-221.08" y2="518.824"/>
			<line class="st1" x1="529.036" y1="-237.957" x2="-227.745" y2="518.824"/>
			<line class="st1" x1="522.37" y1="-237.957" x2="-234.411" y2="518.824"/>
			<line class="st1" x1="515.704" y1="-237.957" x2="-241.077" y2="518.824"/>
			<line class="st1" x1="509.039" y1="-237.957" x2="-247.742" y2="518.824"/>
			<line class="st1" x1="502.373" y1="-237.957" x2="-254.408" y2="518.824"/>
			<line class="st1" x1="495.708" y1="-237.957" x2="-261.073" y2="518.824"/>
			<line class="st1" x1="489.042" y1="-237.957" x2="-267.739" y2="518.824"/>
			<line class="st1" x1="482.376" y1="-237.957" x2="-274.405" y2="518.824"/>
			<line class="st1" x1="475.711" y1="-237.957" x2="-281.07" y2="518.824"/>
			<line class="st1" x1="469.045" y1="-237.957" x2="-287.736" y2="518.824"/>
			<line class="st1" x1="462.379" y1="-237.957" x2="-294.402" y2="518.824"/>
			<line class="st1" x1="455.714" y1="-237.957" x2="-301.067" y2="518.824"/>
			<line class="st1" x1="449.048" y1="-237.957" x2="-307.733" y2="518.824"/>
			<line class="st1" x1="442.383" y1="-237.957" x2="-314.398" y2="518.824"/>
			<line class="st1" x1="435.717" y1="-237.957" x2="-321.064" y2="518.824"/>
			<line class="st1" x1="782.329" y1="-237.957" x2="25.548" y2="518.824"/>
			<line class="st1" x1="768.998" y1="-237.957" x2="12.217" y2="518.824"/>
			<line class="st1" x1="755.667" y1="-237.957" x2="-1.114" y2="518.824"/>
			<line class="st1" x1="742.335" y1="-237.957" x2="-14.446" y2="518.824"/>
			<line class="st1" x1="729.004" y1="-237.957" x2="-27.777" y2="518.824"/>
			<line class="st1" x1="715.673" y1="-237.957" x2="-41.108" y2="518.824"/>
			<line class="st1" x1="702.342" y1="-237.957" x2="-54.439" y2="518.824"/>
			<line class="st1" x1="689.01" y1="-237.957" x2="-67.771" y2="518.824"/>
			<line class="st1" x1="675.679" y1="-237.957" x2="-81.102" y2="518.824"/>
			<line class="st1" x1="662.348" y1="-237.957" x2="-94.433" y2="518.824"/>
			<line class="st1" x1="649.017" y1="-237.957" x2="-107.764" y2="518.824"/>
			<line class="st1" x1="635.685" y1="-237.957" x2="-121.095" y2="518.824"/>
			<line class="st1" x1="622.354" y1="-237.957" x2="-134.427" y2="518.824"/>
		</g>
	</g>
</g>
<path class="st6" d="M3.006,2.785C3.021,1.774,3.86,0.958,4.872,0.973l7.775,0.112c1.011,0.015,2.416,0.62,3.121,1.346
	l11.207,11.534c0.705,0.726,0.688,1.896-0.037,2.601L15.402,27.772c-0.726,0.705-2.147,1.27-3.158,1.255l-7.775-0.112
	c-1.011-0.015-1.827-0.854-1.813-1.866l0.076-5.294c0.015-1.011,0.62-2.416,1.346-3.121l2.433-2.364
	c0.726-0.705,0.742-1.875,0.037-2.601l-2.364-2.433C3.48,10.512,2.915,9.09,2.93,8.079L3.006,2.785z"/>
</svg>
