<?xml version="1.0" encoding="utf-8"?>
<!-- Generator: Adobe Illustrator 20.1.0, SVG Export Plug-In . SVG Version: 6.00 Build 0)  -->
<svg version="1.1" id="Layer_1" xmlns="http://www.w3.org/2000/svg" xmlns:xlink="http://www.w3.org/1999/xlink" x="0px" y="0px"
	 viewBox="0 0 511.474 396.688" style="enable-background:new 0 0 511.474 396.688;" xml:space="preserve">
<style type="text/css">
	.st0{opacity:0.06;clip-path:url(#SVGID_2_);}
	.st1{fill:none;stroke:#2E517A;stroke-miterlimit:10;}
	.st2{clip-path:url(#SVGID_2_);fill:#FFFFFF;}
	.st3{opacity:0.06;clip-path:url(#SVGID_4_);}
	.st4{clip-path:url(#SVGID_6_);}
	.st5{opacity:0.06;clip-path:url(#SVGID_8_);}
	.st6{fill:#2E517A;}
	.st7{fill:#3E5B70;}
	.st8{fill:#EC6231;}
	.st9{fill:#DF2424;}
	.st10{fill:#DF7B72;}
	.st11{fill:#FFFFFF;}
	.st12{fill:#414750;}
	.st13{fill:#252629;}
	.st14{fill:#E7E8E8;}
	.st15{fill:#1F2121;}
	.st16{fill:#050708;}
	.st17{fill:#41474F;}
	.st18{fill:url(#SVGID_11_);}
	.st19{fill:url(#SVGID_12_);}
	.st20{fill:url(#SVGID_13_);}
</style>
<g>
	<defs>
		<rect id="SVGID_1_" x="-1162.995" width="600" height="600"/>
	</defs>
	<clipPath id="SVGID_2_">
		<use xlink:href="#SVGID_1_"  style="overflow:visible;"/>
	</clipPath>
	<g class="st0">
		<line class="st1" x1="75.784" y1="-38.853" x2="-680.997" y2="717.928"/>
		<line class="st1" x1="69.117" y1="-38.853" x2="-687.664" y2="717.928"/>
		<line class="st1" x1="62.45" y1="-38.853" x2="-694.331" y2="717.928"/>
		<line class="st1" x1="55.783" y1="-38.853" x2="-700.998" y2="717.928"/>
		<line class="st1" x1="49.117" y1="-38.853" x2="-707.664" y2="717.928"/>
		<line class="st1" x1="42.45" y1="-38.853" x2="-714.331" y2="717.928"/>
		<line class="st1" x1="35.783" y1="-38.853" x2="-720.998" y2="717.928"/>
		<line class="st1" x1="29.116" y1="-38.853" x2="-727.665" y2="717.928"/>
		<line class="st1" x1="22.45" y1="-38.853" x2="-734.331" y2="717.928"/>
		<line class="st1" x1="15.783" y1="-38.853" x2="-740.998" y2="717.928"/>
		<line class="st1" x1="9.116" y1="-38.853" x2="-747.665" y2="717.928"/>
		<line class="st1" x1="2.449" y1="-38.853" x2="-754.332" y2="717.928"/>
	</g>
</g>
<g>
	<defs>
		<rect id="SVGID_3_" x="-221.602" y="250" width="113.164" height="113.164"/>
	</defs>
	<clipPath id="SVGID_4_">
		<use xlink:href="#SVGID_3_"  style="overflow:visible;"/>
	</clipPath>
	<g class="st3">
		<line class="st1" x1="17.233" y1="211.147" x2="-739.548" y2="967.928"/>
		<line class="st1" x1="3.901" y1="211.147" x2="-752.88" y2="967.928"/>
		<line class="st1" x1="10.567" y1="211.147" x2="-746.214" y2="967.928"/>
	</g>
</g>
<g>
	<defs>
		<rect id="SVGID_5_" x="6.149" y="4.286" width="501.318" height="387.223"/>
	</defs>
	<clipPath id="SVGID_6_">
		<use xlink:href="#SVGID_5_"  style="overflow:visible;"/>
	</clipPath>
	<g class="st4">
		<defs>
			<path id="SVGID_7_" d="M1095.595-594.813l-51.562-51.562L342.587,55.071c-16.655-8.292-35.42-12.979-55.289-12.979
				c-68.627,0-124.259,55.633-124.259,124.259c0,19.869,4.688,38.633,12.979,55.289l-775.191,775.191l51.562,51.562l773.839-773.838
				c18.04,10.204,38.866,16.056,61.07,16.056c68.627,0,124.26-55.633,124.26-124.259c0-22.204-5.852-43.031-16.056-61.07
				L1095.595-594.813z M287.298,237.064c-39.054,0-70.713-31.659-70.713-70.713s31.659-70.713,70.713-70.713
				s70.713,31.659,70.713,70.713S326.351,237.064,287.298,237.064z"/>
		</defs>
		<clipPath id="SVGID_8_">
			<use xlink:href="#SVGID_7_"  style="overflow:visible;"/>
		</clipPath>
		<g class="st5">
			<line class="st1" x1="647.358" y1="-222.27" x2="-109.423" y2="534.511"/>
			<line class="st1" x1="627.361" y1="-222.27" x2="-129.42" y2="534.511"/>
			<line class="st1" x1="607.365" y1="-222.27" x2="-149.416" y2="534.511"/>
			<line class="st1" x1="587.368" y1="-222.27" x2="-169.413" y2="534.511"/>
			<line class="st1" x1="567.371" y1="-222.27" x2="-189.41" y2="534.511"/>
			<line class="st1" x1="547.374" y1="-222.27" x2="-209.407" y2="534.511"/>
			<line class="st1" x1="534.043" y1="-222.27" x2="-222.738" y2="534.511"/>
			<line class="st1" x1="520.712" y1="-222.27" x2="-236.069" y2="534.511"/>
			<line class="st1" x1="507.38" y1="-222.27" x2="-249.401" y2="534.511"/>
			<line class="st1" x1="494.049" y1="-222.27" x2="-262.732" y2="534.511"/>
			<line class="st1" x1="480.718" y1="-222.27" x2="-276.063" y2="534.511"/>
			<line class="st1" x1="467.387" y1="-222.27" x2="-289.394" y2="534.511"/>
			<line class="st1" x1="454.055" y1="-222.27" x2="-302.726" y2="534.511"/>
			<line class="st1" x1="440.724" y1="-222.27" x2="-316.057" y2="534.511"/>
			<line class="st1" x1="427.393" y1="-222.27" x2="-329.388" y2="534.511"/>
			<line class="st1" x1="414.062" y1="-222.27" x2="-342.719" y2="534.511"/>
			<line class="st1" x1="400.73" y1="-222.27" x2="-356.051" y2="534.511"/>
			<line class="st1" x1="387.399" y1="-222.27" x2="-369.382" y2="534.511"/>
			<line class="st1" x1="374.068" y1="-222.27" x2="-382.713" y2="534.511"/>
			<line class="st1" x1="360.737" y1="-222.27" x2="-396.044" y2="534.511"/>
			<line class="st1" x1="347.406" y1="-222.27" x2="-409.375" y2="534.511"/>
			<line class="st1" x1="334.074" y1="-222.27" x2="-422.707" y2="534.511"/>
			<line class="st1" x1="320.743" y1="-222.27" x2="-436.038" y2="534.511"/>
			<line class="st1" x1="307.412" y1="-222.27" x2="-449.369" y2="534.511"/>
			<line class="st1" x1="294.081" y1="-222.27" x2="-462.7" y2="534.511"/>
			<line class="st1" x1="280.749" y1="-222.27" x2="-476.032" y2="534.511"/>
			<line class="st1" x1="267.418" y1="-222.27" x2="-489.363" y2="534.511"/>
			<line class="st1" x1="254.087" y1="-222.27" x2="-502.694" y2="534.511"/>
			<line class="st1" x1="247.421" y1="-222.27" x2="-509.36" y2="534.511"/>
			<line class="st1" x1="240.756" y1="-222.27" x2="-516.025" y2="534.511"/>
			<line class="st1" x1="234.09" y1="-222.27" x2="-522.691" y2="534.511"/>
			<line class="st1" x1="227.424" y1="-222.27" x2="-529.357" y2="534.511"/>
			<line class="st1" x1="220.759" y1="-222.27" x2="-536.022" y2="534.511"/>
			<line class="st1" x1="214.093" y1="-222.27" x2="-542.688" y2="534.511"/>
			<line class="st1" x1="207.428" y1="-222.27" x2="-549.353" y2="534.511"/>
			<line class="st1" x1="200.762" y1="-222.27" x2="-556.019" y2="534.511"/>
			<line class="st1" x1="194.096" y1="-222.27" x2="-562.685" y2="534.511"/>
			<line class="st1" x1="187.431" y1="-222.27" x2="-569.35" y2="534.511"/>
			<line class="st1" x1="180.765" y1="-222.27" x2="-576.016" y2="534.511"/>
			<line class="st1" x1="174.099" y1="-222.27" x2="-582.682" y2="534.511"/>
			<line class="st1" x1="167.434" y1="-222.27" x2="-589.347" y2="534.511"/>
			<line class="st1" x1="160.768" y1="-222.27" x2="-596.013" y2="534.511"/>
			<line class="st1" x1="154.103" y1="-222.27" x2="-602.678" y2="534.511"/>
			<line class="st1" x1="147.437" y1="-222.27" x2="-609.344" y2="534.511"/>
			<line class="st1" x1="140.771" y1="-222.27" x2="-616.01" y2="534.511"/>
			<line class="st1" x1="134.106" y1="-222.27" x2="-622.675" y2="534.511"/>
			<line class="st1" x1="127.44" y1="-222.27" x2="-629.341" y2="534.511"/>
			<line class="st1" x1="120.775" y1="-222.27" x2="-636.006" y2="534.511"/>
			<line class="st1" x1="114.109" y1="-222.27" x2="-642.672" y2="534.511"/>
			<line class="st1" x1="107.443" y1="-222.27" x2="-649.338" y2="534.511"/>
			<line class="st1" x1="100.778" y1="-222.27" x2="-656.003" y2="534.511"/>
			<line class="st1" x1="94.112" y1="-222.27" x2="-662.669" y2="534.511"/>
			<line class="st1" x1="87.446" y1="-222.27" x2="-669.335" y2="534.511"/>
			<line class="st1" x1="80.781" y1="-222.27" x2="-676" y2="534.511"/>
			<line class="st1" x1="74.115" y1="-222.27" x2="-682.666" y2="534.511"/>
			<line class="st1" x1="667.355" y1="-222.139" x2="-89.426" y2="534.642"/>
			<line class="st1" x1="1027.359" y1="-222.27" x2="270.578" y2="534.511"/>
			<line class="st1" x1="1014.026" y1="-222.27" x2="257.245" y2="534.511"/>
			<line class="st1" x1="1000.692" y1="-222.27" x2="243.911" y2="534.511"/>
			<line class="st1" x1="987.359" y1="-222.27" x2="230.578" y2="534.511"/>
			<line class="st1" x1="974.025" y1="-222.27" x2="217.244" y2="534.511"/>
			<line class="st1" x1="960.692" y1="-222.27" x2="203.911" y2="534.511"/>
			<line class="st1" x1="947.358" y1="-222.27" x2="190.577" y2="534.511"/>
			<line class="st1" x1="934.025" y1="-222.27" x2="177.244" y2="534.511"/>
			<line class="st1" x1="920.691" y1="-222.27" x2="163.91" y2="534.511"/>
			<line class="st1" x1="907.358" y1="-222.27" x2="150.577" y2="534.511"/>
			<line class="st1" x1="894.024" y1="-222.27" x2="137.243" y2="534.511"/>
			<line class="st1" x1="880.691" y1="-222.27" x2="123.91" y2="534.511"/>
			<line class="st1" x1="867.357" y1="-222.27" x2="110.576" y2="534.511"/>
			<line class="st1" x1="854.024" y1="-222.27" x2="97.243" y2="534.511"/>
			<line class="st1" x1="840.69" y1="-222.27" x2="83.909" y2="534.511"/>
			<line class="st1" x1="827.357" y1="-222.27" x2="70.576" y2="534.511"/>
			<line class="st1" x1="814.023" y1="-222.27" x2="57.242" y2="534.511"/>
			<line class="st1" x1="800.69" y1="-222.27" x2="43.909" y2="534.511"/>
			<line class="st1" x1="787.357" y1="-222.27" x2="30.575" y2="534.511"/>
			<line class="st1" x1="774.023" y1="-222.27" x2="17.242" y2="534.511"/>
			<line class="st1" x1="760.69" y1="-222.27" x2="3.909" y2="534.511"/>
			<line class="st1" x1="747.356" y1="-222.27" x2="-9.425" y2="534.511"/>
			<line class="st1" x1="734.023" y1="-222.27" x2="-22.758" y2="534.511"/>
			<line class="st1" x1="720.689" y1="-222.27" x2="-36.092" y2="534.511"/>
			<line class="st1" x1="707.356" y1="-222.27" x2="-49.425" y2="534.511"/>
			<line class="st1" x1="694.022" y1="-222.27" x2="-62.759" y2="534.511"/>
			<line class="st1" x1="680.689" y1="-222.27" x2="-76.092" y2="534.511"/>
			<line class="st1" x1="654.024" y1="-222.27" x2="-102.757" y2="534.511"/>
			<line class="st1" x1="634.027" y1="-222.27" x2="-122.754" y2="534.511"/>
			<line class="st1" x1="614.03" y1="-222.27" x2="-142.751" y2="534.511"/>
			<line class="st1" x1="594.033" y1="-222.27" x2="-162.748" y2="534.511"/>
			<line class="st1" x1="574.036" y1="-222.27" x2="-182.744" y2="534.511"/>
			<line class="st1" x1="554.04" y1="-222.27" x2="-202.741" y2="534.511"/>
			<line class="st1" x1="540.708" y1="-222.27" x2="-216.073" y2="534.511"/>
			<line class="st1" x1="527.377" y1="-222.27" x2="-229.404" y2="534.511"/>
			<line class="st1" x1="514.046" y1="-222.27" x2="-242.735" y2="534.511"/>
			<line class="st1" x1="500.715" y1="-222.27" x2="-256.066" y2="534.511"/>
			<line class="st1" x1="487.383" y1="-222.27" x2="-269.397" y2="534.511"/>
			<line class="st1" x1="474.052" y1="-222.27" x2="-282.729" y2="534.511"/>
			<line class="st1" x1="460.721" y1="-222.27" x2="-296.06" y2="534.511"/>
			<line class="st1" x1="447.39" y1="-222.27" x2="-309.391" y2="534.511"/>
			<line class="st1" x1="434.059" y1="-222.27" x2="-322.722" y2="534.511"/>
			<line class="st1" x1="420.727" y1="-222.27" x2="-336.054" y2="534.511"/>
			<line class="st1" x1="407.396" y1="-222.27" x2="-349.385" y2="534.511"/>
			<line class="st1" x1="394.065" y1="-222.27" x2="-362.716" y2="534.511"/>
			<line class="st1" x1="380.734" y1="-222.27" x2="-376.047" y2="534.511"/>
			<line class="st1" x1="367.402" y1="-222.27" x2="-389.379" y2="534.511"/>
			<line class="st1" x1="354.071" y1="-222.27" x2="-402.71" y2="534.511"/>
			<line class="st1" x1="340.74" y1="-222.27" x2="-416.041" y2="534.511"/>
			<line class="st1" x1="327.409" y1="-222.27" x2="-429.372" y2="534.511"/>
			<line class="st1" x1="314.077" y1="-222.27" x2="-442.704" y2="534.511"/>
			<line class="st1" x1="300.746" y1="-222.27" x2="-456.035" y2="534.511"/>
			<line class="st1" x1="287.415" y1="-222.27" x2="-469.366" y2="534.511"/>
			<line class="st1" x1="274.084" y1="-222.27" x2="-482.697" y2="534.511"/>
			<line class="st1" x1="260.752" y1="-222.27" x2="-496.029" y2="534.511"/>
			<line class="st1" x1="1187.361" y1="-222.27" x2="430.58" y2="534.511"/>
			<line class="st1" x1="1180.694" y1="-222.27" x2="423.913" y2="534.511"/>
			<line class="st1" x1="1174.027" y1="-222.27" x2="417.246" y2="534.511"/>
			<line class="st1" x1="1167.361" y1="-222.27" x2="410.58" y2="534.511"/>
			<line class="st1" x1="1160.694" y1="-222.27" x2="403.913" y2="534.511"/>
			<line class="st1" x1="1154.027" y1="-222.27" x2="397.246" y2="534.511"/>
			<line class="st1" x1="1147.36" y1="-222.27" x2="390.579" y2="534.511"/>
			<line class="st1" x1="1140.694" y1="-222.27" x2="383.913" y2="534.511"/>
			<line class="st1" x1="1134.027" y1="-222.27" x2="377.246" y2="534.511"/>
			<line class="st1" x1="1127.36" y1="-222.27" x2="370.579" y2="534.511"/>
			<line class="st1" x1="1120.693" y1="-222.27" x2="363.912" y2="534.511"/>
			<line class="st1" x1="1114.027" y1="-222.27" x2="357.246" y2="534.511"/>
			<line class="st1" x1="1107.36" y1="-222.27" x2="350.579" y2="534.511"/>
			<line class="st1" x1="1100.693" y1="-222.27" x2="343.912" y2="534.511"/>
			<line class="st1" x1="1267.362" y1="-222.27" x2="510.581" y2="534.511"/>
			<line class="st1" x1="1260.695" y1="-222.27" x2="503.914" y2="534.511"/>
			<line class="st1" x1="1254.028" y1="-222.27" x2="497.247" y2="534.511"/>
			<line class="st1" x1="1247.362" y1="-222.27" x2="490.581" y2="534.511"/>
			<line class="st1" x1="1240.695" y1="-222.27" x2="483.914" y2="534.511"/>
			<line class="st1" x1="1234.028" y1="-222.27" x2="477.247" y2="534.511"/>
			<line class="st1" x1="1227.361" y1="-222.27" x2="470.58" y2="534.511"/>
			<line class="st1" x1="1220.695" y1="-222.27" x2="463.914" y2="534.511"/>
			<line class="st1" x1="1214.028" y1="-222.27" x2="457.247" y2="534.511"/>
			<line class="st1" x1="1207.361" y1="-222.27" x2="450.58" y2="534.511"/>
			<line class="st1" x1="1200.694" y1="-222.27" x2="443.913" y2="534.511"/>
			<line class="st1" x1="1194.028" y1="-222.27" x2="437.247" y2="534.511"/>
			<line class="st1" x1="1094.026" y1="-222.27" x2="337.246" y2="534.511"/>
			<line class="st1" x1="1087.36" y1="-222.27" x2="330.579" y2="534.511"/>
			<line class="st1" x1="1080.693" y1="-222.27" x2="323.912" y2="534.511"/>
			<line class="st1" x1="1074.026" y1="-222.27" x2="317.245" y2="534.511"/>
			<line class="st1" x1="1067.359" y1="-222.27" x2="310.579" y2="534.511"/>
			<line class="st1" x1="1060.693" y1="-222.27" x2="303.912" y2="534.511"/>
			<line class="st1" x1="1054.026" y1="-222.27" x2="297.245" y2="534.511"/>
			<line class="st1" x1="1047.359" y1="-222.27" x2="290.578" y2="534.511"/>
			<line class="st1" x1="1040.693" y1="-222.27" x2="283.912" y2="534.511"/>
			<line class="st1" x1="1034.026" y1="-222.27" x2="277.245" y2="534.511"/>
			<line class="st1" x1="1020.692" y1="-222.27" x2="263.911" y2="534.511"/>
			<line class="st1" x1="1007.359" y1="-222.27" x2="250.578" y2="534.511"/>
			<line class="st1" x1="994.025" y1="-222.27" x2="237.244" y2="534.511"/>
			<line class="st1" x1="980.692" y1="-222.27" x2="223.911" y2="534.511"/>
			<line class="st1" x1="967.358" y1="-222.27" x2="210.577" y2="534.511"/>
			<line class="st1" x1="954.025" y1="-222.27" x2="197.244" y2="534.511"/>
			<line class="st1" x1="940.691" y1="-222.27" x2="183.911" y2="534.511"/>
			<line class="st1" x1="927.358" y1="-222.27" x2="170.577" y2="534.511"/>
			<line class="st1" x1="914.025" y1="-222.27" x2="157.244" y2="534.511"/>
			<line class="st1" x1="900.691" y1="-222.27" x2="143.91" y2="534.511"/>
			<line class="st1" x1="887.358" y1="-222.27" x2="130.577" y2="534.511"/>
			<line class="st1" x1="874.024" y1="-222.27" x2="117.243" y2="534.511"/>
			<line class="st1" x1="860.691" y1="-222.27" x2="103.91" y2="534.511"/>
			<line class="st1" x1="847.357" y1="-222.27" x2="90.576" y2="534.511"/>
			<line class="st1" x1="834.024" y1="-222.27" x2="77.243" y2="534.511"/>
			<line class="st1" x1="820.69" y1="-222.27" x2="63.909" y2="534.511"/>
			<line class="st1" x1="807.357" y1="-222.27" x2="50.576" y2="534.511"/>
			<line class="st1" x1="794.023" y1="-222.27" x2="37.242" y2="534.511"/>
			<line class="st1" x1="780.69" y1="-222.27" x2="23.909" y2="534.511"/>
			<line class="st1" x1="767.356" y1="-222.27" x2="10.575" y2="534.511"/>
			<line class="st1" x1="754.023" y1="-222.27" x2="-2.758" y2="534.511"/>
			<line class="st1" x1="740.689" y1="-222.27" x2="-16.092" y2="534.511"/>
			<line class="st1" x1="727.356" y1="-222.27" x2="-29.425" y2="534.511"/>
			<line class="st1" x1="714.022" y1="-222.27" x2="-42.759" y2="534.511"/>
			<line class="st1" x1="700.689" y1="-222.27" x2="-56.092" y2="534.511"/>
			<line class="st1" x1="687.355" y1="-222.27" x2="-69.426" y2="534.511"/>
			<line class="st1" x1="674.022" y1="-222.27" x2="-82.759" y2="534.511"/>
			<line class="st1" x1="660.69" y1="-222.27" x2="-96.091" y2="534.511"/>
			<line class="st1" x1="640.693" y1="-222.27" x2="-116.088" y2="534.511"/>
			<line class="st1" x1="620.696" y1="-222.27" x2="-136.085" y2="534.511"/>
			<line class="st1" x1="600.699" y1="-222.27" x2="-156.082" y2="534.511"/>
			<line class="st1" x1="580.702" y1="-222.27" x2="-176.079" y2="534.511"/>
			<line class="st1" x1="560.705" y1="-222.27" x2="-196.076" y2="534.511"/>
		</g>
	</g>
</g>
</svg>
